<svg viewBox="0 0 8399.999999999998 1200" width="100%" height="100%" xmlns="http://www.w3.org/2000/svg"><g><g transform="translate(3927.2727272727225, 200)"><circle r="200" fill="#444"></circle><text font-weight="bold" font-family="sans-serif" text-anchor="middle" alignment-baseline="middle" font-size="10em" fill="#fff">rabbitmq</text></g><g transform="translate(399.9999999999982, 1000)"><circle r="200" fill="#444"></circle><text font-weight="bold" font-family="sans-serif" text-anchor="middle" alignment-baseline="middle" font-size="10em" fill="#fff">worker-manager</text></g><g transform="translate(1199.9999999999973, 1000)"><circle r="200" fill="#444"></circle><text font-weight="bold" font-family="sans-serif" text-anchor="middle" alignment-baseline="middle" font-size="10em" fill="#fff">web-server</text></g><g transform="translate(1999.9999999999955, 1000)"><circle r="200" fill="#444"></circle><text font-weight="bold" font-family="sans-serif" text-anchor="middle" alignment-baseline="middle" font-size="10em" fill="#fff">secrets</text></g><g transform="translate(2799.9999999999964, 1000)"><circle r="200" fill="#444"></circle><text font-weight="bold" font-family="sans-serif" text-anchor="middle" alignment-baseline="middle" font-size="10em" fill="#fff">queue</text></g><g transform="translate(3599.9999999999927, 1000)"><circle r="200" fill="#444"></circle><text font-weight="bold" font-family="sans-serif" text-anchor="middle" alignment-baseline="middle" font-size="10em" fill="#fff">purge-cache</text></g><g transform="translate(4799.999999999988, 1000)"><circle r="200" fill="#444"></circle><text font-weight="bold" font-family="sans-serif" text-anchor="middle" alignment-baseline="middle" font-size="10em" fill="#fff">object</text></g><g transform="translate(5600.000000000003, 1000)"><circle r="200" fill="#444"></circle><text font-weight="bold" font-family="sans-serif" text-anchor="middle" alignment-baseline="middle" font-size="10em" fill="#fff">notify</text></g><g transform="translate(6399.9999999999945, 1000)"><circle r="200" fill="#444"></circle><text font-weight="bold" font-family="sans-serif" text-anchor="middle" alignment-baseline="middle" font-size="10em" fill="#fff">index</text></g><g transform="translate(7200.000000000002, 1000)"><circle r="200" fill="#444"></circle><text font-weight="bold" font-family="sans-serif" text-anchor="middle" alignment-baseline="middle" font-size="10em" fill="#fff">hooks</text></g><g transform="translate(8000.000000000026, 1000)"><circle r="200" fill="#444"></circle><text font-weight="bold" font-family="sans-serif" text-anchor="middle" alignment-baseline="middle" font-size="10em" fill="#fff">github</text></g><g transform="translate(4199.999999999995, 600)"><circle r="200" fill="#444"></circle><text font-weight="bold" font-family="sans-serif" text-anchor="middle" alignment-baseline="middle" font-size="10em" fill="#fff">auth</text></g><g transform="translate(4472.72727272727, 200)"><circle r="200" fill="#444"></circle><text font-weight="bold" font-family="sans-serif" text-anchor="middle" alignment-baseline="middle" font-size="10em" fill="#fff">postgres</text></g></g><g><path d="M3927.2727272727225,200L4199.999999999995,600" fill="none" stroke="#444" stroke-width="10"></path><path d="M3927.2727272727225,200C3927.2727272727225,200,7326.321133132686,272.4254249736188,7799.999999999994,600C7960.539133288699,711.0215000934019,8000.000000000026,1000,8000.000000000026,1000" fill="none" stroke="#444" stroke-width="10"></path><path d="M3927.2727272727225,200C3927.2727272727225,200,6590.843755279021,308.94900085950036,6999.9999999999945,600C7155.439067573825,710.570708638906,7200.000000000002,1000,7200.000000000002,1000" fill="none" stroke="#444" stroke-width="10"></path><path d="M3927.2727272727225,200C3927.2727272727225,200,5863.287843478599,348.9457942064048,6199.999999999996,600C6348.228083865757,710.5195733224442,6399.9999999999945,1000,6399.9999999999945,1000" fill="none" stroke="#444" stroke-width="10"></path><path d="M3927.2727272727225,200C3927.2727272727225,200,5147.687143071797,393.37326232514175,5399.9999999999945,600C5536.586562571415,711.8549255791075,5600.000000000003,1000,5600.000000000003,1000" fill="none" stroke="#444" stroke-width="10"></path><path d="M3927.2727272727225,200C3927.2727272727225,200,4453.237911595117,442.14687124841066,4599.9999999999945,600C4710.9389042248185,719.3227305668375,4799.999999999988,1000,4799.999999999988,1000" fill="none" stroke="#444" stroke-width="10"></path><path d="M3927.2727272727225,200C3927.2727272727225,200,3434.7835612293197,450.82286848698806,3399.999999999998,600C3371.4070530689605,722.6272886940661,3599.9999999999927,1000,3599.9999999999927,1000" fill="none" stroke="#444" stroke-width="10"></path><path d="M3927.2727272727225,200C3927.2727272727225,200,2685.40753875119,401.9890934988363,2599.999999999998,600C2551.489587275222,712.4677158343297,2799.9999999999964,1000,2799.9999999999964,1000" fill="none" stroke="#444" stroke-width="10"></path><path d="M3927.2727272727225,200C3927.2727272727225,200,1920.7550046213964,356.664534862458,1799.999999999999,600C1745.1118572558223,710.6060306739732,1999.9999999999955,1000,1999.9999999999955,1000" fill="none" stroke="#444" stroke-width="10"></path><path d="M3927.2727272727225,200C3927.2727272727225,200,1149.9401617986207,315.9371409701519,1000.0000000000009,600C941.6641841729004,710.5176787119975,1199.9999999999973,1000,1199.9999999999973,1000" fill="none" stroke="#444" stroke-width="10"></path><path d="M3927.2727272727225,200C3927.2727272727225,200,375.4984408741955,278.84417221431767,200,600C139.38335658577853,710.9262748792103,399.9999999999982,1000,399.9999999999982,1000" fill="none" stroke="#444" stroke-width="10"></path><path d="M4199.999999999995,600L8000.000000000026,1000" fill="none" stroke="#444" stroke-width="10"></path><path d="M4199.999999999995,600L7200.000000000002,1000" fill="none" stroke="#444" stroke-width="10"></path><path d="M4199.999999999995,600L6399.9999999999945,1000" fill="none" stroke="#444" stroke-width="10"></path><path d="M4199.999999999995,600L5600.000000000003,1000" fill="none" stroke="#444" stroke-width="10"></path><path d="M4199.999999999995,600L4799.999999999988,1000" fill="none" stroke="#444" stroke-width="10"></path><path d="M4199.999999999995,600L3599.9999999999927,1000" fill="none" stroke="#444" stroke-width="10"></path><path d="M4199.999999999995,600L2799.9999999999964,1000" fill="none" stroke="#444" stroke-width="10"></path><path d="M4199.999999999995,600L1999.9999999999955,1000" fill="none" stroke="#444" stroke-width="10"></path><path d="M4199.999999999995,600L1199.9999999999973,1000" fill="none" stroke="#444" stroke-width="10"></path><path d="M4199.999999999995,600L399.9999999999982,1000" fill="none" stroke="#444" stroke-width="10"></path><path d="M4472.72727272727,200L4199.999999999995,600" fill="none" stroke="#444" stroke-width="10"></path><path d="M4472.72727272727,200C4472.72727272727,200,8024.50155912579,278.84417221431283,8199.999999999998,600C8260.616643414221,710.92627487921,8000.000000000026,1000,8000.000000000026,1000" fill="none" stroke="#444" stroke-width="10"></path><path d="M4472.72727272727,200C4472.72727272727,200,7250.059838201374,315.9371409701516,7399.9999999999945,600C7458.335815827093,710.5176787119974,7200.000000000002,1000,7200.000000000002,1000" fill="none" stroke="#444" stroke-width="10"></path><path d="M4472.72727272727,200C4472.72727272727,200,6479.244995378603,356.66453486245854,6599.999999999997,600C6654.888142744173,710.6060306739732,6399.9999999999945,1000,6399.9999999999945,1000" fill="none" stroke="#444" stroke-width="10"></path><path d="M4472.72727272727,200C4472.72727272727,200,5714.5924612488025,401.9890934988358,5799.999999999996,600C5848.510412724774,712.4677158343296,5600.000000000003,1000,5600.000000000003,1000" fill="none" stroke="#444" stroke-width="10"></path><path d="M4472.72727272727,200C4472.72727272727,200,4965.216438770675,450.8228684869887,4999.999999999996,600C5028.592946931031,722.6272886940665,4799.999999999988,1000,4799.999999999988,1000" fill="none" stroke="#444" stroke-width="10"></path><path d="M4472.72727272727,200C4472.72727272727,200,3946.7620884048774,442.1468712484112,3799.9999999999964,600C3689.061095775168,719.3227305668378,3599.9999999999927,1000,3599.9999999999927,1000" fill="none" stroke="#444" stroke-width="10"></path><path d="M4472.72727272727,200C4472.72727272727,200,3252.3128569281935,393.3732623251411,2999.999999999998,600C2863.413437428579,711.8549255791074,2799.9999999999964,1000,2799.9999999999964,1000" fill="none" stroke="#444" stroke-width="10"></path><path d="M4472.72727272727,200C4472.72727272727,200,2536.7121565213997,348.9457942064057,2199.999999999999,600C2051.771916134237,710.5195733224441,1999.9999999999955,1000,1999.9999999999955,1000" fill="none" stroke="#444" stroke-width="10"></path><path d="M4472.72727272727,200C4472.72727272727,200,1809.1562447209683,308.94900085949956,1399.999999999999,600C1244.560932426168,710.5707086389062,1199.9999999999973,1000,1199.9999999999973,1000" fill="none" stroke="#444" stroke-width="10"></path><path d="M4472.72727272727,200C4472.72727272727,200,1073.678866867286,272.4254249736135,600,600C439.46086671130433,711.021500093402,399.9999999999982,1000,399.9999999999982,1000" fill="none" stroke="#444" stroke-width="10"></path></g></svg>