<svg width="142" height="24" fill="none" xmlns="http://www.w3.org/2000/svg">
  <path
    d="M138.179 0H3.821C1.711 0 0 1.387 0 3.099V16.9C0 18.613 1.71 20 3.821 20H138.18c2.11 0 3.821-1.387 3.821-3.099V3.1C142 1.387 140.289 0 138.179 0Z"
    fill="#B75F1F" />
  <path d="M0 3c0-1.657 1.285-3 2.87-3h36.36v19.998H2.87c-1.585 0-2.87-1.343-2.87-3V3Z" fill="#537AA1" />
  <path d="M17.701 19.996 0 2.997v14.236s0 2.763 2.87 2.763h14.831ZM39.23 20 18.507.008 39.23.002V20Z" fill="#2E4761" />
  <path d="M8.788 11.253 18.647.205l4.447 4.334-9.859 11.048-4.447-4.334Z" fill="#1B2A39" />
  <path d="m13.154 15.652 9.919-11.115 4.447 4.334L17.6 19.986l-4.447-4.334Z" fill="#263C52" />
  <g filter="url(#a)">
    <path
      d="M15.427 5.047V15h-2.044V5.047h2.044Zm3.062 0v1.606h-8.12V5.047h8.12Zm6.747 6.651h2.044a3.707 3.707 0 0 1-.553 1.784 3.3 3.3 0 0 1-1.36 1.217c-.58.292-1.277.438-2.093.438-.638 0-1.21-.11-1.716-.329a3.65 3.65 0 0 1-1.298-.957 4.263 4.263 0 0 1-.814-1.504c-.187-.587-.28-1.246-.28-1.975v-.69c0-.73.096-1.388.287-1.976a4.364 4.364 0 0 1 .834-1.51c.365-.416.8-.735 1.306-.958a4.154 4.154 0 0 1 1.695-.335c.83 0 1.529.15 2.099.451.574.301 1.018.716 1.333 1.244.319.53.51 1.13.574 1.805h-2.05c-.024-.4-.104-.74-.24-1.018a1.357 1.357 0 0 0-.622-.636c-.274-.146-.638-.219-1.094-.219-.342 0-.64.064-.896.191-.255.128-.469.322-.642.582-.173.26-.303.587-.39.984a6.806 6.806 0 0 0-.123 1.38v.705c0 .515.039.968.116 1.36.078.388.196.716.356.985.164.264.374.464.629.601.26.132.572.198.936.198.429 0 .782-.068 1.06-.205.278-.136.49-.34.636-.608.15-.269.239-.604.266-1.005Z"
      fill="#fff" />
  </g>
  <path
    d="M49.826 12.735V8.928c0-.292-.059-.545-.178-.76a1.163 1.163 0 0 0-.519-.505c-.232-.118-.52-.178-.861-.178-.32 0-.6.055-.841.164-.237.11-.424.253-.56.431a.944.944 0 0 0-.199.574h-1.265c0-.264.069-.526.205-.786.137-.26.333-.494.588-.704.26-.214.57-.383.93-.506.365-.127.77-.191 1.217-.191.538 0 1.011.09 1.422.273.414.183.738.458.97.827.237.365.356.823.356 1.374v3.446c0 .246.02.508.061.786.046.278.112.517.199.718V14h-1.32a2.364 2.364 0 0 1-.15-.581 4.679 4.679 0 0 1-.055-.684Zm.219-3.22.014.89H48.78c-.36 0-.681.029-.964.088-.282.055-.52.14-.71.253a1.202 1.202 0 0 0-.438.43c-.1.17-.15.368-.15.595 0 .233.052.445.157.636.105.192.262.344.472.458.214.11.476.164.786.164.387 0 .729-.082 1.025-.246.296-.164.531-.364.704-.601.178-.237.274-.468.287-.69l.54.608a1.837 1.837 0 0 1-.26.635 3.064 3.064 0 0 1-1.401 1.196c-.319.137-.679.206-1.08.206-.501 0-.941-.098-1.32-.294a2.255 2.255 0 0 1-.874-.786 2.08 2.08 0 0 1-.308-1.115c0-.396.078-.745.233-1.046.154-.305.378-.558.67-.758.291-.205.642-.36 1.052-.465.41-.105.868-.157 1.374-.157h1.47Zm5.855 3.583c.3 0 .579-.062.834-.185a1.72 1.72 0 0 0 .629-.506c.164-.219.258-.467.28-.745h1.203c-.022.438-.17.845-.444 1.224a3.032 3.032 0 0 1-1.06.909 3.075 3.075 0 0 1-1.442.342c-.556 0-1.041-.098-1.456-.294a2.888 2.888 0 0 1-1.025-.807 3.607 3.607 0 0 1-.609-1.176 4.965 4.965 0 0 1-.198-1.415v-.287c0-.497.066-.966.198-1.408.137-.447.34-.84.609-1.183.273-.341.615-.61 1.025-.806.415-.196.9-.294 1.456-.294.579 0 1.085.118 1.518.355a2.61 2.61 0 0 1 1.018.957c.25.401.388.857.41 1.367h-1.203a1.82 1.82 0 0 0-.26-.827 1.62 1.62 0 0 0-.601-.588 1.68 1.68 0 0 0-.882-.225c-.387 0-.713.077-.977.232-.26.15-.468.356-.623.616-.15.255-.26.54-.328.854-.064.31-.095.627-.095.95v.287c0 .324.031.643.095.957.064.315.171.6.322.855.155.255.362.46.622.615.264.15.592.226.984.226Zm7.325-6.494v.97h-4v-.97h4Zm-2.646-1.798h1.265v7.362c0 .25.039.44.116.567a.555.555 0 0 0 .301.253c.123.041.255.062.396.062.105 0 .215-.01.329-.027.118-.023.207-.042.266-.055L63.26 14c-.1.032-.232.062-.396.089-.16.032-.354.048-.581.048a1.97 1.97 0 0 1-.855-.185 1.374 1.374 0 0 1-.622-.615c-.15-.292-.226-.684-.226-1.176V4.806Zm5.363 1.798V14h-1.271V6.604h1.271Zm-1.367-1.962c0-.205.062-.379.185-.52.127-.141.314-.212.56-.212.242 0 .426.07.554.212a.732.732 0 0 1 .198.52.715.715 0 0 1-.198.505c-.128.137-.312.206-.554.206-.246 0-.433-.069-.56-.206a.745.745 0 0 1-.185-.505Zm2.923 5.742v-.157c0-.534.077-1.028.232-1.484.155-.46.378-.859.67-1.196a2.99 2.99 0 0 1 1.06-.793c.414-.191.88-.287 1.394-.287.52 0 .987.096 1.401.287.42.187.775.451 1.067.793.296.337.522.736.677 1.196.155.456.232.95.232 1.484v.157c0 .533-.077 1.027-.232 1.483a3.55 3.55 0 0 1-.677 1.196 3.101 3.101 0 0 1-1.06.793c-.41.187-.875.28-1.394.28-.52 0-.987-.093-1.402-.28a3.171 3.171 0 0 1-1.066-.793 3.612 3.612 0 0 1-.67-1.196 4.579 4.579 0 0 1-.232-1.483Zm1.264-.157v.157c0 .369.044.718.13 1.046.087.323.217.61.39.861.178.25.399.449.663.595.264.141.572.212.923.212.346 0 .65-.071.909-.212.264-.146.483-.344.656-.595.173-.25.303-.538.39-.861.091-.328.137-.677.137-1.046v-.157c0-.365-.046-.71-.137-1.033a2.659 2.659 0 0 0-.397-.868 1.885 1.885 0 0 0-.656-.601 1.84 1.84 0 0 0-.916-.22c-.346 0-.652.074-.916.22-.26.145-.478.346-.656.601-.173.25-.303.54-.39.868-.086.324-.13.668-.13 1.033Zm8.18-2.044V14h-1.265V6.604h1.196l.069 1.579Zm-.301 1.838-.526-.02c.004-.506.08-.973.225-1.401.146-.433.351-.81.615-1.128a2.74 2.74 0 0 1 2.167-1.005c.365 0 .693.05.985.15.291.096.54.25.745.465.21.214.369.492.478.834.11.337.164.75.164 1.237V14h-1.271V9.14c0-.388-.057-.698-.171-.93a1.05 1.05 0 0 0-.499-.513c-.219-.11-.488-.164-.807-.164-.314 0-.601.066-.861.198a2.06 2.06 0 0 0-.663.547 2.75 2.75 0 0 0-.43.8c-.101.296-.151.61-.151.944Zm11.232-2.255V14h-1.265V6.604h1.23l.035 1.162Zm2.31-1.204-.007 1.176a1.826 1.826 0 0 0-.3-.04 3.193 3.193 0 0 0-.315-.014c-.292 0-.55.045-.772.136a1.601 1.601 0 0 0-.568.383c-.155.164-.278.36-.369.588-.087.223-.144.47-.17.738l-.356.205c0-.446.043-.866.13-1.257a3.42 3.42 0 0 1 .417-1.04c.186-.305.423-.542.71-.71.292-.174.639-.26 1.04-.26.09 0 .195.011.314.034.118.018.2.039.246.061Zm3.962 7.575a3.64 3.64 0 0 1-1.402-.26 3.179 3.179 0 0 1-1.073-.745 3.314 3.314 0 0 1-.683-1.135 4.162 4.162 0 0 1-.24-1.435v-.288c0-.601.09-1.137.267-1.606.178-.474.42-.875.724-1.203a3.104 3.104 0 0 1 1.04-.745 2.985 2.985 0 0 1 1.203-.253c.528 0 .984.09 1.367.273.387.183.704.438.95.766.246.323.428.706.547 1.148.118.438.178.916.178 1.436v.567h-5.524V9.625h4.259v-.096a3.156 3.156 0 0 0-.205-.957 1.72 1.72 0 0 0-.547-.765c-.25-.2-.592-.301-1.025-.301a1.721 1.721 0 0 0-1.415.718 2.684 2.684 0 0 0-.404.868 4.4 4.4 0 0 0-.143 1.182v.288c0 .35.048.68.143.99.1.306.244.575.43.807.192.233.422.415.691.547.274.132.584.198.93.198.447 0 .825-.09 1.135-.273a2.81 2.81 0 0 0 .813-.731l.766.608c-.16.242-.362.472-.609.69-.246.22-.549.397-.909.534-.355.136-.777.205-1.264.205Zm8.869 2.707V8.025l.11-1.421h1.162v10.24h-1.272Zm-4.97-6.46v-.144c0-.565.067-1.078.199-1.538.132-.465.326-.863.581-1.196a2.61 2.61 0 0 1 .923-.766c.364-.182.779-.273 1.244-.273.465 0 .873.082 1.224.246.355.16.656.394.902.704.251.305.449.674.595 1.107.146.433.246.923.301 1.47v.629a6.534 6.534 0 0 1-.294 1.463 3.49 3.49 0 0 1-.595 1.107c-.246.306-.549.54-.909.705-.356.159-.768.239-1.238.239-.455 0-.866-.094-1.23-.28a2.718 2.718 0 0 1-.923-.787 3.81 3.81 0 0 1-.581-1.19 5.405 5.405 0 0 1-.198-1.496Zm1.272-.144v.144c0 .369.039.718.116 1.046.078.323.196.61.356.861.164.25.369.449.615.595.251.141.547.212.889.212.419 0 .768-.091 1.046-.274.282-.182.508-.421.676-.718.169-.3.299-.622.39-.963V9.495c-.05-.25-.13-.494-.239-.731a2.396 2.396 0 0 0-.41-.636 1.906 1.906 0 0 0-1.45-.622 1.75 1.75 0 0 0-.895.219 1.821 1.821 0 0 0-.622.601c-.16.25-.278.54-.356.868a4.544 4.544 0 0 0-.116 1.046Zm11.386 2.051V6.604h1.271V14h-1.21l-.061-1.709Zm.239-1.559.526-.013c0 .492-.052.948-.157 1.367-.1.415-.264.775-.492 1.08a2.331 2.331 0 0 1-.896.718c-.369.168-.818.253-1.346.253a3 3 0 0 1-.992-.158 1.978 1.978 0 0 1-.765-.485 2.204 2.204 0 0 1-.499-.854c-.114-.351-.171-.773-.171-1.265V6.604h1.265v4.785c0 .332.036.608.109.827.077.214.18.385.308.513.132.123.278.21.437.26.164.05.333.074.506.074.538 0 .964-.102 1.278-.307.315-.21.54-.49.677-.841.141-.355.212-.75.212-1.183Zm4.194-4.128V14h-1.272V6.604h1.272Zm-1.367-1.962c0-.205.061-.379.184-.52.128-.141.315-.212.561-.212.241 0 .426.07.553.212a.73.73 0 0 1 .199.52.712.712 0 0 1-.199.505c-.127.137-.312.206-.553.206-.246 0-.433-.069-.561-.206a.744.744 0 0 1-.184-.505Zm4.522 3.124V14h-1.265V6.604h1.231l.034 1.162Zm2.31-1.204-.007 1.176a1.815 1.815 0 0 0-.3-.04 3.197 3.197 0 0 0-.315-.014 2.03 2.03 0 0 0-.772.136 1.597 1.597 0 0 0-.568.383c-.155.164-.278.36-.369.588-.086.223-.143.47-.171.738l-.355.205c0-.446.043-.866.13-1.257.091-.392.23-.739.417-1.04.187-.305.424-.542.711-.71.291-.174.638-.26 1.039-.26.091 0 .196.011.314.034a.92.92 0 0 1 .246.061Zm3.962 7.575c-.515 0-.982-.087-1.401-.26a3.18 3.18 0 0 1-1.074-.745 3.308 3.308 0 0 1-.683-1.135 4.15 4.15 0 0 1-.24-1.435v-.288c0-.601.089-1.137.267-1.606.178-.474.419-.875.725-1.203a3.094 3.094 0 0 1 1.039-.745 2.982 2.982 0 0 1 1.203-.253c.528 0 .984.09 1.367.273.387.183.704.438.95.766.246.323.429.706.547 1.148.119.438.178.916.178 1.436v.567h-5.524V9.625h4.259v-.096a3.132 3.132 0 0 0-.205-.957 1.719 1.719 0 0 0-.547-.765c-.25-.2-.592-.301-1.025-.301a1.72 1.72 0 0 0-1.415.718 2.695 2.695 0 0 0-.404.868 4.43 4.43 0 0 0-.143 1.182v.288c0 .35.048.68.143.99.101.306.244.575.431.807.192.233.422.415.691.547.273.132.583.198.929.198.447 0 .825-.09 1.135-.273.31-.182.581-.426.813-.731l.766.608a3.522 3.522 0 0 1-.608.69 2.9 2.9 0 0 1-.909.534c-.356.136-.777.205-1.265.205Zm8.876-1.572V3.5h1.272V14h-1.162l-.11-1.435Zm-4.976-2.181v-.144c0-.565.068-1.078.205-1.538.141-.465.34-.863.595-1.196a2.68 2.68 0 0 1 .923-.766c.36-.182.761-.273 1.203-.273.465 0 .87.082 1.216.246.351.16.648.394.889.704.246.305.44.674.581 1.107.142.433.239.923.294 1.47v.629a6.424 6.424 0 0 1-.294 1.463 3.448 3.448 0 0 1-.581 1.107c-.241.306-.538.54-.889.705-.35.159-.761.239-1.23.239a2.54 2.54 0 0 1-1.189-.28 2.793 2.793 0 0 1-.923-.787 3.83 3.83 0 0 1-.595-1.19 5.228 5.228 0 0 1-.205-1.496Zm1.271-.144v.144c0 .369.037.715.11 1.039.077.323.196.608.355.854.16.246.363.44.609.581.246.137.54.205.881.205.42 0 .764-.088 1.033-.266.273-.178.492-.413.656-.704.164-.292.292-.609.383-.95V9.495a3.724 3.724 0 0 0-.239-.724 2.25 2.25 0 0 0-.397-.63 1.71 1.71 0 0 0-.595-.444 1.925 1.925 0 0 0-.827-.164c-.346 0-.645.073-.895.219a1.751 1.751 0 0 0-.609.588 2.719 2.719 0 0 0-.355.861c-.073.324-.11.67-.11 1.04Z"
    fill="#fff" />
  <defs>
    <filter id="a" x="6.368" y="4.903" width="24.926" height="18.233" filterUnits="userSpaceOnUse"
      color-interpolation-filters="sRGB">
      <feFlood flood-opacity="0" result="BackgroundImageFix" />
      <feColorMatrix in="SourceAlpha" values="0 0 0 0 0 0 0 0 0 0 0 0 0 0 0 0 0 0 127 0" result="hardAlpha" />
      <feOffset dy="4" />
      <feGaussianBlur stdDeviation="2" />
      <feComposite in2="hardAlpha" operator="out" />
      <feColorMatrix values="0 0 0 0 0 0 0 0 0 0 0 0 0 0 0 0 0 0 0.25 0" />
      <feBlend in2="BackgroundImageFix" result="effect1_dropShadow_17_66" />
      <feBlend in="SourceGraphic" in2="effect1_dropShadow_17_66" result="shape" />
    </filter>
  </defs>
</svg>
