<svg width="117" height="20" fill="none" xmlns="http://www.w3.org/2000/svg">
  <path
    d="M113.851 0H3.149C1.409 0 0 1.387 0 3.099V16.9C0 18.613 1.41 20 3.149 20H113.85c1.739 0 3.149-1.387 3.149-3.099V3.1C117 1.387 115.59 0 113.851 0Z"
    fill="#986666" />
  <path
    d="M49.924 13.098c.3 0 .579-.062.834-.185s.465-.292.629-.506c.164-.219.257-.467.28-.745h1.203c-.023.438-.17.845-.444 1.224a3.034 3.034 0 0 1-1.06.909 3.075 3.075 0 0 1-1.442.342c-.556 0-1.041-.098-1.456-.294a2.886 2.886 0 0 1-1.026-.807 3.603 3.603 0 0 1-.608-1.176 4.961 4.961 0 0 1-.198-1.415v-.287c0-.497.066-.966.198-1.408.137-.447.34-.84.608-1.183.274-.341.616-.61 1.026-.806.414-.196.9-.294 1.456-.294.579 0 1.084.118 1.517.355a2.61 2.61 0 0 1 1.019.957c.25.401.387.857.41 1.367h-1.203a1.822 1.822 0 0 0-.26-.827 1.62 1.62 0 0 0-.601-.588 1.681 1.681 0 0 0-.882-.225c-.388 0-.713.077-.978.232-.26.15-.467.356-.622.616-.15.255-.26.54-.328.854a4.7 4.7 0 0 0-.096.95v.287c0 .324.032.643.096.957.064.315.171.6.321.855.155.255.363.46.623.615.264.15.592.226.984.226Zm9.01-.363V8.928c0-.292-.06-.545-.178-.76a1.163 1.163 0 0 0-.52-.505c-.232-.118-.52-.178-.861-.178-.32 0-.6.055-.841.164-.237.11-.424.253-.56.431a.944.944 0 0 0-.199.574h-1.264c0-.264.068-.526.204-.786.137-.26.333-.494.588-.704.26-.214.57-.383.93-.506.365-.127.77-.191 1.217-.191.538 0 1.012.09 1.422.273.414.183.738.458.97.827.238.365.356.823.356 1.374v3.446c0 .246.02.508.062.786.045.278.111.517.198.718V14h-1.32a2.364 2.364 0 0 1-.15-.581 4.679 4.679 0 0 1-.055-.684Zm.218-3.22.014.89h-1.279c-.36 0-.68.029-.963.088-.283.055-.52.14-.711.253a1.202 1.202 0 0 0-.438.43c-.1.17-.15.368-.15.595 0 .233.052.445.157.636.105.192.262.344.472.458.214.11.476.164.786.164.387 0 .729-.082 1.025-.246.296-.164.531-.364.704-.601.178-.237.274-.468.287-.69l.54.608a1.837 1.837 0 0 1-.26.635 3.064 3.064 0 0 1-1.401 1.196c-.319.137-.679.206-1.08.206-.501 0-.94-.098-1.32-.294a2.255 2.255 0 0 1-.874-.786 2.08 2.08 0 0 1-.308-1.115c0-.396.078-.745.233-1.046.155-.305.378-.558.67-.758.291-.205.642-.36 1.052-.465.41-.105.868-.157 1.374-.157h1.47Zm4.58-1.332V14h-1.265V6.604h1.197l.068 1.579Zm-.3 1.838-.527-.02c.004-.506.08-.973.225-1.401.146-.433.351-.81.615-1.128a2.742 2.742 0 0 1 2.167-1.005c.365 0 .693.05.985.15.292.096.54.25.745.465.21.214.37.492.479.834.109.337.164.75.164 1.237V14h-1.272V9.14c0-.388-.057-.698-.17-.93a1.05 1.05 0 0 0-.5-.513c-.219-.11-.487-.164-.806-.164-.315 0-.602.066-.862.198a2.06 2.06 0 0 0-.663.547 2.753 2.753 0 0 0-.43.8c-.1.296-.15.61-.15.944Zm10.013 3.077c.301 0 .58-.062.835-.185a1.72 1.72 0 0 0 .628-.506c.164-.219.258-.467.28-.745h1.204c-.023.438-.171.845-.445 1.224a3.033 3.033 0 0 1-1.06.909 3.075 3.075 0 0 1-1.442.342c-.555 0-1.04-.098-1.456-.294a2.888 2.888 0 0 1-1.025-.807 3.603 3.603 0 0 1-.608-1.176 4.965 4.965 0 0 1-.199-1.415v-.287c0-.497.067-.966.199-1.408.136-.447.34-.84.608-1.183.273-.341.615-.61 1.025-.806.415-.196.9-.294 1.456-.294.58 0 1.085.118 1.518.355a2.61 2.61 0 0 1 1.019.957c.25.401.387.857.41 1.367h-1.203a1.822 1.822 0 0 0-.26-.827 1.62 1.62 0 0 0-.602-.588 1.68 1.68 0 0 0-.882-.225c-.387 0-.713.077-.977.232-.26.15-.467.356-.622.616-.15.255-.26.54-.328.854a4.7 4.7 0 0 0-.096.95v.287c0 .324.032.643.096.957.064.315.17.6.321.855.155.255.362.46.622.615.264.15.593.226.984.226Zm7.718 1.039a3.64 3.64 0 0 1-1.401-.26 3.178 3.178 0 0 1-1.074-.745 3.313 3.313 0 0 1-.683-1.135 4.162 4.162 0 0 1-.24-1.435v-.288c0-.601.09-1.137.267-1.606.178-.474.42-.875.725-1.203a3.104 3.104 0 0 1 1.039-.745 2.985 2.985 0 0 1 1.203-.253c.529 0 .984.09 1.367.273.388.183.704.438.95.766.246.323.429.706.547 1.148.119.438.178.916.178 1.436v.567h-5.523V9.625h4.258v-.096a3.156 3.156 0 0 0-.205-.957 1.722 1.722 0 0 0-.547-.765c-.25-.2-.592-.301-1.025-.301a1.722 1.722 0 0 0-1.415.718 2.686 2.686 0 0 0-.404.868 4.4 4.4 0 0 0-.143 1.182v.288c0 .35.048.68.143.99.1.306.244.575.431.807.192.233.422.415.69.547.274.132.584.198.93.198.447 0 .825-.09 1.135-.273.31-.182.581-.426.814-.731l.765.608c-.16.242-.362.472-.608.69-.246.22-.55.397-.91.534-.355.136-.776.205-1.264.205ZM87.171 3.5V14H85.9V3.5h1.271Zm3.685 0V14h-1.272V3.5h1.272Zm5.38 10.637a3.64 3.64 0 0 1-1.402-.26 3.179 3.179 0 0 1-1.073-.745 3.314 3.314 0 0 1-.684-1.135 4.162 4.162 0 0 1-.24-1.435v-.288c0-.601.09-1.137.267-1.606.178-.474.42-.875.725-1.203a3.104 3.104 0 0 1 1.04-.745 2.985 2.985 0 0 1 1.202-.253c.529 0 .985.09 1.368.273.387.183.704.438.95.766.246.323.428.706.547 1.148.118.438.177.916.177 1.436v.567H93.59V9.625h4.259v-.096a3.156 3.156 0 0 0-.205-.957 1.72 1.72 0 0 0-.547-.765c-.25-.2-.593-.301-1.026-.301a1.721 1.721 0 0 0-1.415.718 2.684 2.684 0 0 0-.403.868 4.4 4.4 0 0 0-.144 1.182v.288c0 .35.048.68.144.99.1.306.244.575.43.807.192.233.422.415.691.547.273.132.583.198.93.198.446 0 .825-.09 1.135-.273a2.81 2.81 0 0 0 .813-.731l.766.608c-.16.242-.363.472-.609.69-.246.22-.549.397-.909.534-.355.136-.777.205-1.265.205Zm9.296-1.572V3.5h1.271V14h-1.162l-.109-1.435Zm-4.977-2.181v-.144c0-.565.069-1.078.206-1.538.141-.465.339-.863.594-1.196.26-.333.568-.588.923-.766.36-.182.761-.273 1.203-.273.465 0 .871.082 1.217.246.351.16.647.394.889.704.246.305.439.674.581 1.107.141.433.239.923.294 1.47v.629a6.424 6.424 0 0 1-.294 1.463 3.468 3.468 0 0 1-.581 1.107c-.242.306-.538.54-.889.705-.351.159-.761.239-1.23.239-.433 0-.83-.094-1.19-.28a2.813 2.813 0 0 1-.923-.787 3.828 3.828 0 0 1-.594-1.19 5.227 5.227 0 0 1-.206-1.496Zm1.272-.144v.144c0 .369.036.715.109 1.039.078.323.196.608.356.854.159.246.362.44.608.581.246.137.54.205.882.205.419 0 .763-.088 1.032-.266.274-.178.492-.413.656-.704a4.02 4.02 0 0 0 .383-.95V9.495a3.594 3.594 0 0 0-.239-.724 2.226 2.226 0 0 0-.396-.63 1.72 1.72 0 0 0-.595-.444 1.928 1.928 0 0 0-.827-.164c-.347 0-.645.073-.896.219a1.74 1.74 0 0 0-.608.588 2.72 2.72 0 0 0-.356.861c-.073.324-.109.67-.109 1.04Z"
    fill="#fff" />
  <path d="M0 3c0-1.657 1.245-3 2.78-3H38v19.998H2.78c-1.535 0-2.78-1.343-2.78-3V3Z" fill="#537AA1" />
  <path d="M17.146 19.996 0 2.997v14.236s0 2.763 2.78 2.763h14.366ZM38 20 17.927.008 38 .002V20Z" fill="#2E4761" />
  <path d="M8.512 11.253 18.062.205l4.308 4.334-9.55 11.048-4.308-4.334Z" fill="#1B2A39" />
  <path d="M12.741 15.652 22.35 4.537l4.308 4.334-9.608 11.115-4.308-4.334Z" fill="#263C52" />
  <g filter="url(#a)">
    <path
      d="M15.11 5.047V15h-2.044V5.047h2.044Zm3.063 0v1.606h-8.121V5.047h8.12Zm6.747 6.651h2.044a3.707 3.707 0 0 1-.554 1.784 3.3 3.3 0 0 1-1.36 1.217c-.579.292-1.276.438-2.092.438-.638 0-1.21-.11-1.716-.329a3.651 3.651 0 0 1-1.299-.957 4.264 4.264 0 0 1-.813-1.504c-.187-.587-.28-1.246-.28-1.975v-.69c0-.73.095-1.388.287-1.976a4.362 4.362 0 0 1 .834-1.51c.364-.416.8-.735 1.305-.958a4.154 4.154 0 0 1 1.696-.335c.83 0 1.529.15 2.098.451.575.301 1.019.716 1.333 1.244.32.53.51 1.13.575 1.805h-2.051c-.023-.4-.103-.74-.24-1.018a1.357 1.357 0 0 0-.622-.636c-.273-.146-.638-.219-1.093-.219-.342 0-.64.064-.896.191-.255.128-.47.322-.643.582-.173.26-.302.587-.39.984a6.813 6.813 0 0 0-.122 1.38v.705c0 .515.039.968.116 1.36.078.388.196.716.355.985.165.264.374.464.63.601.26.132.571.198.936.198.428 0 .782-.068 1.06-.205.277-.136.49-.34.635-.608.15-.269.24-.604.267-1.005Z"
      fill="#fff" />
  </g>
  <defs>
    <filter id="a" x="6.052" y="4.903" width="24.926" height="18.233" filterUnits="userSpaceOnUse"
      color-interpolation-filters="sRGB">
      <feFlood flood-opacity="0" result="BackgroundImageFix" />
      <feColorMatrix in="SourceAlpha" values="0 0 0 0 0 0 0 0 0 0 0 0 0 0 0 0 0 0 127 0" result="hardAlpha" />
      <feOffset dy="4" />
      <feGaussianBlur stdDeviation="2" />
      <feComposite in2="hardAlpha" operator="out" />
      <feColorMatrix values="0 0 0 0 0 0 0 0 0 0 0 0 0 0 0 0 0 0 0.25 0" />
      <feBlend in2="BackgroundImageFix" result="effect1_dropShadow_17_9" />
      <feBlend in="SourceGraphic" in2="effect1_dropShadow_17_9" result="shape" />
    </filter>
  </defs>
</svg>
