<?xml version="1.0" encoding="UTF-8" standalone="no"?>
<svg
   xmlns:dc="http://purl.org/dc/elements/1.1/"
   xmlns:cc="http://creativecommons.org/ns#"
   xmlns:rdf="http://www.w3.org/1999/02/22-rdf-syntax-ns#"
   xmlns:svg="http://www.w3.org/2000/svg"
   xmlns="http://www.w3.org/2000/svg"
   width="94"
   height="31"
   viewBox="0 0 94 31.000001"
   id="svg2"
   version="1.1">
  <defs
     id="defs4" />
  <metadata
     id="metadata7">
    <rdf:RDF>
      <cc:Work
         rdf:about="">
        <dc:format>image/svg+xml</dc:format>
        <dc:type
           rdf:resource="http://purl.org/dc/dcmitype/StillImage" />
        <dc:title></dc:title>
      </cc:Work>
    </rdf:RDF>
  </metadata>
  <rect
     ry="3.0985913"
     y="11"
     x="0"
     height="20"
     width="69.316711"
     id="rect4174"
     style="fill:#333333" />
  <g
     id="Layer_2"
     transform="matrix(0.0790251,0,0,0.0693095,52.621789,-2.2113099)">
    <path
       id="path5"
       d="m 111.051,442.516 36.658,0 0,36.658 -36.658,0 0,-36.658 z m -1.291,-290.235 36.658,0 0,-36.658 -36.658,0 -36.658,0 0,36.658 0,0 0,36.658 36.658,0 0,-36.658 z m 36.658,-109.974 -36.658,0 0,36.658 36.658,0 0,-36.658 z m 255.715,146.632 36.658,0 0,-36.658 0,0 0,-36.658 -36.658,0 -36.658,0 0,36.658 36.658,0 0,36.658 z m 0,-146.632 -36.658,0 0,36.658 36.658,0 0,-36.658 z m 73.209,109.867 0,35.999 0,0.659 0,35.34 0,0.659 0,35.892 -1.548,0 -35.003,0 -36.477,0 0,-36.23 -0.181,0 -35.901,0 0,-36.213 -36.97,0 0,-36.658 0,-36.658 -36.658,0 0,36.658 0,36.658 -73.316,0 0,-36.658 0,-36.658 -36.658,0 0,36.658 0,36.658 -36.658,0 0,36.213 -36.212,0 0,36.23 -36.658,0 -36.444,0 0,-35.785 0,-0.659 0,-35.34 0,-0.659 0,-35.999 -36.658,0 0,35.999 0,0.659 0,35.34 0,0.659 0,35.999 36.299,0 0,36.444 0.145,0 36.658,0 36.658,0 0,36.23 0,36.016 0,0.642 0,36.016 37.949,0 0,36.23 71.77,0 0,-36.23 73.898,0 0,36.23 71.77,0 0,-36.23 37.166,0 0,-36.016 0,-0.642 0,-36.016 0,-36.23 36.477,0 35.003,0 1.655,0 0,-36.551 36.552,0 0,-35.999 0,-0.659 0,-35.34 0,-0.659 0,-35.999 -36.658,0 z m -109.867,326.999 36.658,0 0,-36.658 -36.658,0 0,36.658 z"
       style="fill:#7f4aff" />
  </g>
  <g
     id="Layer_3"
     transform="matrix(0.0790251,0,0,0.0693095,52.621789,-2.2113099)">
    <path
       id="path8"
       d="m 218.573,332.941 -72.6,0 0,-72.002 72.6,0 0,72.002 z m 147.659,-72.002 -72.201,0 0,72.002 72.201,0 0,-72.002 z"
       style="fill:#132028" />
  </g>
  <g
     transform="matrix(0.66022575,0,0,0.62255148,-41.949618,-1.1114799)"
     style="font-style:normal;font-variant:normal;font-weight:normal;font-stretch:normal;font-size:22.5px;line-height:125%;font-family:Montserrat;-inkscape-font-specification:Montserrat;letter-spacing:0px;word-spacing:0px;fill:#ffffff;fill-opacity:1;stroke:none;stroke-width:1px;stroke-linecap:butt;stroke-linejoin:miter;stroke-opacity:1"
     id="text3340">
    <path
       d="m 81.827257,30.0365 c -3.555,0.0225 -6.0525,2.475 -6.0525,6.0975 0,3.6 2.43,6.0525 6.12,6.0525 2.07,0 3.78,-0.7425 4.95,-2.025 l -1.3725,-1.4625 c -0.8775,0.9 -2.07,1.395 -3.375,1.395 -1.89,0 -3.3075,-1.1475 -3.7125,-2.9925 l 9.045,0 c 0.315,-4.32 -1.395,-7.065 -5.6025,-7.065 z m -3.4875,5.175 c 0.27,-1.9125 1.62,-3.105 3.51,-3.105 1.9575,0 3.24,1.17 3.33,3.105 l -6.84,0 z"
       id="path3355" />
    <path
       d="m 92.714796,32.5115 0,-2.385 -2.5875,0 0,11.97 2.5875,0 0,-6.255 c 0.2025,-2.0475 1.7325,-3.465 4.14,-3.33 l 0,-2.475 c -1.89,0 -3.33,0.855 -4.14,2.475 z"
       id="path3357" />
    <path
       d="m 101.59175,32.5115 0,-2.385 -2.587501,0 0,11.97 2.587501,0 0,-6.255 c 0.2025,-2.0475 1.7325,-3.465 4.14,-3.33 l 0,-2.475 c -1.89,0 -3.33,0.855 -4.14,2.475 z"
       id="path3359" />
    <path
       d="m 113.0112,30.0365 c -3.7125,0 -6.255,2.4525 -6.255,6.0525 0,3.6225 2.5425,6.0975 6.255,6.0975 3.69,0 6.2325,-2.475 6.2325,-6.0975 0,-3.6 -2.5425,-6.0525 -6.2325,-6.0525 z m 0,2.205 c 2.1375,0 3.645,1.5975 3.645,3.8925 0,2.3175 -1.5075,3.8925 -3.645,3.8925 -2.16,0 -3.6675,-1.575 -3.6675,-3.8925 0,-2.295 1.5075,-3.8925 3.6675,-3.8925 z"
       id="path3361" />
    <path
       d="m 124.5312,32.5115 0,-2.385 -2.5875,0 0,11.97 2.5875,0 0,-6.255 c 0.2025,-2.0475 1.7325,-3.465 4.14,-3.33 l 0,-2.475 c -1.89,0 -3.33,0.855 -4.14,2.475 z"
       id="path3363" />
  </g>
</svg>
