<svg width="84" height="20" fill="none" xmlns="http://www.w3.org/2000/svg">
  <path
    d="M81.766 0H3.234C2 0 1 1.387 1 3.099V16.9C1 18.613 2 20 3.234 20h78.532C83 20 84 18.613 84 16.901V3.1C84 1.387 83 0 81.766 0Z"
    fill="#BA5758" />
  <path
    d="M49.033 14.137a3.64 3.64 0 0 1-1.401-.26 3.179 3.179 0 0 1-1.073-.745 3.314 3.314 0 0 1-.684-1.135 4.162 4.162 0 0 1-.24-1.435v-.288c0-.601.09-1.137.267-1.606.178-.474.42-.875.725-1.203a3.103 3.103 0 0 1 1.039-.745 2.985 2.985 0 0 1 1.203-.253c.529 0 .984.09 1.367.273.388.183.704.438.95.766.247.323.429.706.547 1.148.119.438.178.916.178 1.436v.567h-5.523V9.625h4.259v-.096a3.153 3.153 0 0 0-.206-.957 1.72 1.72 0 0 0-.547-.765c-.25-.2-.592-.301-1.025-.301a1.721 1.721 0 0 0-1.415.718 2.684 2.684 0 0 0-.403.868 4.4 4.4 0 0 0-.144 1.182v.288c0 .35.048.68.144.99.1.306.244.575.43.807.192.233.422.415.69.547.274.132.584.198.93.198.447 0 .825-.09 1.135-.273a2.81 2.81 0 0 0 .814-.731l.765.608c-.16.242-.362.472-.608.69-.246.22-.55.397-.91.534-.355.136-.776.205-1.264.205Zm5.9-6.371V14h-1.265V6.604h1.23l.034 1.162Zm2.31-1.204-.007 1.176a1.827 1.827 0 0 0-.3-.04 3.197 3.197 0 0 0-.315-.014c-.292 0-.55.045-.773.136a1.6 1.6 0 0 0-.567.383c-.155.164-.278.36-.37.588-.086.223-.143.47-.17.738l-.355.205c0-.446.043-.866.13-1.257.09-.392.23-.739.416-1.04.187-.305.424-.542.711-.71.292-.174.638-.26 1.04-.26.09 0 .195.011.314.034.118.018.2.039.246.061Zm2.713 1.204V14h-1.264V6.604h1.23l.035 1.162Zm2.311-1.204-.007 1.176a1.826 1.826 0 0 0-.3-.04 3.193 3.193 0 0 0-.315-.014c-.292 0-.55.045-.773.136a1.601 1.601 0 0 0-.567.383c-.155.164-.278.36-.369.588-.087.223-.144.47-.17.738l-.356.205c0-.446.043-.866.13-1.257a3.42 3.42 0 0 1 .416-1.04c.187-.305.424-.542.711-.71.292-.174.638-.26 1.04-.26.09 0 .195.011.314.034.118.018.2.039.246.061Zm.977 3.822v-.157c0-.534.078-1.028.233-1.484.155-.46.378-.859.67-1.196a2.99 2.99 0 0 1 1.06-.793 3.29 3.29 0 0 1 1.394-.287c.52 0 .986.096 1.401.287.42.187.775.451 1.067.793.296.337.521.736.676 1.196.155.456.233.95.233 1.484v.157c0 .533-.078 1.027-.233 1.483-.155.456-.38.855-.677 1.196a3.1 3.1 0 0 1-1.06.793c-.41.187-.874.28-1.394.28-.52 0-.986-.093-1.401-.28a3.172 3.172 0 0 1-1.066-.793 3.616 3.616 0 0 1-.67-1.196 4.582 4.582 0 0 1-.233-1.483Zm1.265-.157v.157c0 .369.043.718.13 1.046.086.323.216.61.39.861.177.25.398.449.663.595.264.141.572.212.922.212.347 0 .65-.071.91-.212.264-.146.483-.344.656-.595.173-.25.303-.538.39-.861.09-.328.136-.677.136-1.046v-.157c0-.365-.045-.71-.136-1.033a2.659 2.659 0 0 0-.397-.868 1.884 1.884 0 0 0-.656-.601 1.841 1.841 0 0 0-.916-.22c-.347 0-.652.074-.916.22-.26.145-.479.346-.657.601-.173.25-.303.54-.39.868-.086.324-.13.668-.13 1.033Zm8.6-2.461V14h-1.265V6.604h1.23l.034 1.162Zm2.31-1.204-.007 1.176a1.826 1.826 0 0 0-.3-.04 3.194 3.194 0 0 0-.315-.014c-.292 0-.55.045-.773.136a1.601 1.601 0 0 0-.567.383c-.155.164-.278.36-.37.588-.086.223-.143.47-.17.738l-.356.205c0-.446.044-.866.13-1.257a3.42 3.42 0 0 1 .417-1.04c.187-.305.424-.542.711-.71.292-.174.638-.26 1.04-.26.09 0 .195.011.314.034.118.018.2.039.246.061Z"
    fill="#fff" />
  <path d="M0 3c0-1.657 1.245-3 2.78-3H38v19.998H2.78c-1.535 0-2.78-1.343-2.78-3V3Z" fill="#537AA1" />
  <path d="M17.146 19.996 0 2.997v14.236s0 2.763 2.78 2.763h14.366ZM38 20 17.927.008 38 .002V20Z" fill="#2E4761" />
  <path d="M8.512 11.253 18.062.205l4.308 4.334-9.55 11.048-4.308-4.334Z" fill="#1B2A39" />
  <path d="M12.741 15.652 22.35 4.537l4.308 4.334-9.608 11.115-4.308-4.334Z" fill="#263C52" />
  <g filter="url(#a)">
    <path
      d="M15.11 5.047V15h-2.044V5.047h2.044Zm3.063 0v1.606h-8.121V5.047h8.12Zm6.747 6.651h2.044a3.707 3.707 0 0 1-.554 1.784 3.3 3.3 0 0 1-1.36 1.217c-.579.292-1.276.438-2.092.438-.638 0-1.21-.11-1.716-.329a3.651 3.651 0 0 1-1.299-.957 4.264 4.264 0 0 1-.813-1.504c-.187-.587-.28-1.246-.28-1.975v-.69c0-.73.095-1.388.287-1.976a4.362 4.362 0 0 1 .834-1.51c.364-.416.8-.735 1.305-.958a4.154 4.154 0 0 1 1.696-.335c.83 0 1.529.15 2.098.451.575.301 1.019.716 1.333 1.244.32.53.51 1.13.575 1.805h-2.051c-.023-.4-.103-.74-.24-1.018a1.357 1.357 0 0 0-.622-.636c-.273-.146-.638-.219-1.093-.219-.342 0-.64.064-.896.191-.255.128-.47.322-.643.582-.173.26-.302.587-.39.984a6.813 6.813 0 0 0-.122 1.38v.705c0 .515.039.968.116 1.36.078.388.196.716.355.985.165.264.374.464.63.601.26.132.571.198.936.198.428 0 .782-.068 1.06-.205.277-.136.49-.34.635-.608.15-.269.24-.604.267-1.005Z"
      fill="#fff" />
  </g>
  <defs>
    <filter id="a" x="6.052" y="4.903" width="24.926" height="18.233" filterUnits="userSpaceOnUse"
      color-interpolation-filters="sRGB">
      <feFlood flood-opacity="0" result="BackgroundImageFix" />
      <feColorMatrix in="SourceAlpha" values="0 0 0 0 0 0 0 0 0 0 0 0 0 0 0 0 0 0 127 0" result="hardAlpha" />
      <feOffset dy="4" />
      <feGaussianBlur stdDeviation="2" />
      <feComposite in2="hardAlpha" operator="out" />
      <feColorMatrix values="0 0 0 0 0 0 0 0 0 0 0 0 0 0 0 0 0 0 0.25 0" />
      <feBlend in2="BackgroundImageFix" result="effect1_dropShadow_8_366" />
      <feBlend in="SourceGraphic" in2="effect1_dropShadow_8_366" result="shape" />
    </filter>
  </defs>
</svg>
