<?xml version="1.0" encoding="UTF-8" standalone="no"?>
<svg
   xmlns:dc="http://purl.org/dc/elements/1.1/"
   xmlns:cc="http://creativecommons.org/ns#"
   xmlns:rdf="http://www.w3.org/1999/02/22-rdf-syntax-ns#"
   xmlns:svg="http://www.w3.org/2000/svg"
   xmlns="http://www.w3.org/2000/svg"
   width="180"
   height="45"
   viewBox="0 0 180 45.000001"
   id="svg2"
   version="1.1">
  <defs
     id="defs4" />
  <metadata
     id="metadata7">
    <rdf:RDF>
      <cc:Work
         rdf:about="">
        <dc:format>image/svg+xml</dc:format>
        <dc:type
           rdf:resource="http://purl.org/dc/dcmitype/StillImage" />
        <dc:title></dc:title>
      </cc:Work>
    </rdf:RDF>
  </metadata>
  <rect
     ry="4.0669065"
     y="14.068226"
     x="4.8244324"
     height="26.250032"
     width="141.24872"
     id="rect4174"
     style="fill:#333333" />
  <g
     id="g3"
     transform="matrix(0.45967867,0,0,0.42089973,118.25813,-7.588209)">
    <path
       id="path5"
       d="m 95.58,103.04 c 0.6,6.98 -11.94,13.77 -28.02,15.17 -16.08,1.4 -29.61,-3.12 -30.21,-10.11 -0.61,-6.98 11.94,-13.77 28.02,-15.17 16.07,-1.39 29.6,3.14 30.21,10.11 z"
       style="fill:#2f2f2f" />
    <rect
       id="rect7"
       height="19.200001"
       width="73.07"
       transform="matrix(0.998,-0.0626,0.0626,0.998,-4.8582,4.0755)"
       y="69.940002"
       x="26.049999"
       style="fill:#2f2f2f" />
    <path
       id="path9"
       d="m 125.09,92.58 -9.49,-1.71 c 0.34,-1.72 0.55,-3.48 0.67,-5.26 l 8.95,-1.33 c 1.17,-0.17 1.97,-1.26 1.8,-2.42 -0.17,-1.17 -1.25,-1.95 -2.42,-1.8 l -8.22,1.22 c -0.02,-1 -0.05,-2 -0.11,-3 -0.23,-3.35 -0.93,-6.73 -2.04,-10.03 3.26,-9.41 11.48,-35.6 4.76,-42.81 -5.33,-5.72 -24.06,6.53 -30.23,11.06 -1.35,0.99 -2.59,1.89 -3.73,2.71 C 78.31,36.91 70.88,35.72 63.51,35.73 55.93,35.72 48.26,36.96 41.39,39.4 40.01,38.58 38.5,37.68 36.81,36.64 30.27,32.66 10.55,22.07 5.73,28.23 c -5.55,7.08 2.67,28.85 7.24,39.51 -1.21,3.47 -1.98,7.02 -2.22,10.55 -0.06,0.95 -0.09,1.9 -0.12,2.85 L 3.42,80.07 C 2.26,79.92 1.17,80.7 1,81.87 c -0.17,1.17 0.63,2.25 1.8,2.42 l 7.92,1.18 c 0.12,1.88 0.35,3.75 0.71,5.58 l -8.5,1.53 C 1.77,92.79 1,93.9 1.21,95.06 c 0.19,1.03 1.08,1.75 2.09,1.75 0.13,0 0.26,-0.01 0.38,-0.03 l 8.83,-1.59 c 0.66,1.97 1.51,3.88 2.58,5.71 l -8.45,2.68 c -1.13,0.35 -1.75,1.55 -1.39,2.68 0.29,0.91 1.13,1.49 2.03,1.49 0.21,0 0.43,-0.03 0.64,-0.1 l 9.69,-3.08 c 1.56,1.92 3.4,3.73 5.62,5.39 6.05,4.51 13.58,7.57 21.33,9.23 2.95,0.63 10.57,2.1 18.56,2.1 7.99,0 16.35,-1.47 19.3,-2.1 7.75,-1.66 15.28,-4.71 21.33,-9.23 2.31,-1.73 4.23,-3.62 5.82,-5.65 l 10.5,3.34 c 0.21,0.07 0.43,0.1 0.65,0.1 0.91,0 1.74,-0.58 2.03,-1.49 0.36,-1.12 -0.27,-2.33 -1.39,-2.68 l -9.31,-2.96 c 1.02,-1.8 1.84,-3.68 2.47,-5.61 l 9.8,1.77 c 0.13,0.02 0.25,0.03 0.38,0.03 1.01,0 1.91,-0.72 2.1,-1.75 0.22,-1.16 -0.55,-2.26 -1.71,-2.48 z M 42.82,84.64 c -1.89,0.79 -3.67,1.08 -5.26,1.08 -4.39,0 -7.36,-2.21 -7.53,-2.34 -0.94,-0.72 -1.12,-2.05 -0.4,-2.99 0.71,-0.94 2.05,-1.12 2.99,-0.41 0.14,0.1 3.78,2.71 8.57,0.72 4.88,-2.03 5.53,-6.53 5.54,-6.58 0.16,-1.17 1.22,-1.99 2.4,-1.83 1.17,0.15 1.98,1.23 1.83,2.4 -0.05,0.28 -1.03,6.99 -8.14,9.95 z m 37.88,26.97 c -5.48,0.65 -5.99,-1.7 -11.43,-1.09 -5.43,0.68 -5.39,3.08 -10.86,3.72 -5.67,0.67 -9.01,-1.57 -10.25,-5.2 -1.17,-3.38 0.67,-8.52 5.94,-9.8 5.77,-1.39 9.1,2.49 14.07,1.98 4.95,-0.66 7.28,-5.2 13.22,-5.2 5.42,0.02 8.42,4.58 8.07,8.14 -0.36,3.82 -3.09,6.78 -8.76,7.45 z M 96.39,81.99 c -0.17,0.15 -3.39,2.95 -8.33,2.95 -1.33,0 -2.78,-0.2 -4.33,-0.71 -7.32,-2.4 -8.81,-9.02 -8.87,-9.3 -0.24,-1.15 0.49,-2.29 1.64,-2.53 1.14,-0.24 2.28,0.48 2.53,1.62 0.05,0.2 1.1,4.54 6.03,6.16 5.01,1.65 8.46,-1.34 8.5,-1.38 0.88,-0.78 2.22,-0.71 3.01,0.18 0.78,0.88 0.7,2.23 -0.18,3.01 z"
       style="fill:#f79329" />
  </g>
  <g
     transform="matrix(0.80358462,0,0,0.7320058,-3.873915,1.399675)"
     style="display:inline"
     id="layer1" />
  <g
     transform="matrix(0.80358462,0,0,0.7320058,-3.873915,1.399675)"
     style="display:inline"
     id="layer2" />
  <g
     transform="matrix(0.80358462,0,0,0.7320058,-3.873915,1.399675)"
     style="font-style:normal;font-variant:normal;font-weight:normal;font-stretch:normal;font-size:22.5px;line-height:125%;font-family:Montserrat;-inkscape-font-specification:Montserrat;letter-spacing:0px;word-spacing:0px;fill:#ffffff;fill-opacity:1;stroke:none;stroke-width:1px;stroke-linecap:butt;stroke-linejoin:miter;stroke-opacity:1"
     id="text3372">
    <path
       d="m 24.967999,39.3515 c -0.6975,0.3375 -1.26,0.5175 -1.8,0.5175 -0.81,0 -1.2825,-0.3825 -1.2825,-1.62 l 0,-5.7375 3.5325,0 0,-1.935 -3.5325,0 0,-3.285 -2.565,0 0,3.285 -1.6875,0 0,1.935 1.6875,0 0,6.21 c 0,2.4525 1.5525,3.4875 3.3525,3.4875 1.0125,0 2.0025,-0.315 2.9475,-0.8775 l -0.6525,-1.98 z"
       id="path3377" />
    <path
       d="m 37.708624,42.0965 -0.0225,-7.8525 c -0.0225,-2.6325 -1.755,-4.2075 -4.8375,-4.2075 -2.2725,0 -3.4875,0.5175 -5.1525,1.5075 l 1.0575,1.8 c 1.1925,-0.81 2.385,-1.215 3.5325,-1.215 1.89,0 2.8575,0.9 2.8575,2.4075 l 0,0.36 -3.6225,0 c -2.88,0.0225 -4.5225,1.4175 -4.5225,3.6 0,2.115 1.62,3.7125 4.2075,3.7125 1.7325,0 3.105,-0.5175 3.96,-1.575 l 0,1.4625 2.5425,0 z m -5.9625,-1.935 c -1.44,0 -2.3175,-0.6975 -2.3175,-1.7775 0,-1.1475 0.7875,-1.5975 2.475,-1.5975 l 3.24,0 0,1.1025 c -0.135,1.305 -1.5525,2.2725 -3.3975,2.2725 z"
       id="path3379" />
    <path
       d="m 47.989718,33.1415 0.945,-1.9125 c -1.08,-0.765 -2.6775,-1.215 -4.185,-1.215 -2.295,0 -4.41,1.035 -4.41,3.465 -0.0225,4.32 6.2775,2.9475 6.2775,5.4 0,0.9 -0.855,1.2825 -1.9575,1.2825 -1.305,0 -2.97,-0.5625 -4.005,-1.485 l -0.9225,1.845 c 1.1925,1.08 3.06,1.665 4.815,1.665 2.4075,0 4.59,-1.1025 4.59,-3.555 0.0225,-4.3425 -6.345,-3.15 -6.345,-5.355 0,-0.855 0.7425,-1.1925 1.755,-1.1925 1.0575,0 2.385,0.405 3.4425,1.0575 z"
       id="path3381" />
    <path
       d="m 59.998038,42.0965 3.06,0 -4.77,-7.335 4.4325,-4.635 -2.97,0 -5.2875,5.355 0,-10.08 -2.5875,0 0,16.695 2.5875,0 0,-3.3525 2.025,-2.1375 3.51,5.49 z"
       id="path3383" />
    <path
       d="m 65.706359,32.6465 c -0.81,0 -1.4175,0.6075 -1.4175,1.4625 0,0.8775 0.6075,1.5075 1.4175,1.5075 0.81,0 1.4175,-0.63 1.4175,-1.5075 0,-0.855 -0.6075,-1.4625 -1.4175,-1.4625 z m 0,6.6825 c -0.81,0 -1.4175,0.6075 -1.4175,1.4625 0,0.8775 0.6075,1.5075 1.4175,1.5075 0.81,0 1.4175,-0.63 1.4175,-1.5075 0,-0.855 -0.6075,-1.4625 -1.4175,-1.4625 z"
       id="path3385" />
    <path
       d="m 81.579757,27.539 c 0.54,0 1.1475,0.2025 1.6425,0.5625 l 0.99,-1.98 c -0.765,-0.5625 -1.7325,-0.8325 -2.7,-0.8325 -2.07,0 -4.1175,1.3275 -4.1175,4.1175 l 0,1.17 -1.575,0 0,1.935 1.575,0 0,9.585 2.565,0 0,-9.585 3.1275,0 0,-1.935 -3.1275,0 0,-1.4175 c 0,-1.125 0.7425,-1.62 1.62,-1.62 z"
       id="path3387" />
    <path
       d="m 93.607062,42.0965 -0.0225,-7.8525 c -0.0225,-2.6325 -1.755,-4.2075 -4.8375,-4.2075 -2.2725,0 -3.4875,0.5175 -5.1525,1.5075 l 1.0575,1.8 c 1.1925,-0.81 2.385,-1.215 3.5325,-1.215 1.89,0 2.8575,0.9 2.8575,2.4075 l 0,0.36 -3.6225,0 c -2.88,0.0225 -4.5225,1.4175 -4.5225,3.6 0,2.115 1.62,3.7125 4.2075,3.7125 1.7325,0 3.105,-0.5175 3.96,-1.575 l 0,1.4625 2.5425,0 z m -5.9625,-1.935 c -1.44,0 -2.3175,-0.6975 -2.3175,-1.7775 0,-1.1475 0.7875,-1.5975 2.475,-1.5975 l 3.24,0 0,1.1025 c -0.135,1.305 -1.5525,2.2725 -3.3975,2.2725 z"
       id="path3389" />
    <path
       d="m 98.353155,25.154 c -0.855,0 -1.5075,0.6525 -1.5075,1.5525 0,0.8775 0.6525,1.53 1.5075,1.53 0.855,0 1.5075,-0.6525 1.5075,-1.53 0,-0.9 -0.6525,-1.5525 -1.5075,-1.5525 z m -1.2825,4.9725 0,11.97 2.565,0 0,-11.97 -2.565,0 z"
       id="path3391" />
    <path
       d="m 103.55523,25.4015 0,16.695 2.5875,0 0,-16.695 -2.5875,0 z"
       id="path3393" />
    <path
       d="m 118.35847,30.1265 0,5.895 c 0,2.0925 -1.215,3.69 -3.285,3.735 -1.7325,0 -2.79,-1.1025 -2.79,-2.9025 l 0,-6.7275 -2.5875,0 0,7.4475 c 0,2.8575 1.6425,4.6125 4.3875,4.6125 1.9575,-0.0225 3.465,-0.765 4.275,-2.43 l 0,2.34 2.5875,0 0,-11.97 -2.5875,0 z"
       id="path3395" />
    <path
       d="m 127.38765,32.5115 0,-2.385 -2.5875,0 0,11.97 2.5875,0 0,-6.255 c 0.2025,-2.0475 1.7325,-3.465 4.14,-3.33 l 0,-2.475 c -1.89,0 -3.33,0.855 -4.14,2.475 z"
       id="path3397" />
    <path
       d="m 138.6046,30.0365 c -3.555,0.0225 -6.0525,2.475 -6.0525,6.0975 0,3.6 2.43,6.0525 6.12,6.0525 2.07,0 3.78,-0.7425 4.95,-2.025 l -1.3725,-1.4625 c -0.8775,0.9 -2.07,1.395 -3.375,1.395 -1.89,0 -3.3075,-1.1475 -3.7125,-2.9925 l 9.045,0 c 0.315,-4.32 -1.395,-7.065 -5.6025,-7.065 z m -3.4875,5.175 c 0.27,-1.9125 1.62,-3.105 3.51,-3.105 1.9575,0 3.24,1.17 3.33,3.105 l -6.84,0 z"
       id="path3399" />
  </g>
</svg>
