<svg width="95" height="20" fill="none" xmlns="http://www.w3.org/2000/svg">
  <path
    d="M92.444 0H2.556C1.145 0 0 1.387 0 3.099V16.9C0 18.613 1.145 20 2.557 20h89.886C93.856 20 95 18.613 95 16.901V3.1C95 1.387 93.855 0 92.444 0Z"
    fill="#A43535" />
  <path
    d="M48.503 14h-1.265V5.824c0-.533.096-.982.287-1.347a1.93 1.93 0 0 1 .841-.834c.365-.191.798-.287 1.299-.287a3.525 3.525 0 0 1 .875.11l-.069 1.032a2.093 2.093 0 0 0-.328-.048 4.631 4.631 0 0 0-.355-.014c-.269 0-.501.055-.697.164a1.03 1.03 0 0 0-.438.465c-.1.205-.15.458-.15.759V14Zm1.572-7.397v.971h-4.006v-.97h4.006Zm6.05 6.132V8.928c0-.292-.06-.545-.178-.76a1.163 1.163 0 0 0-.52-.505c-.232-.119-.52-.178-.861-.178-.319 0-.6.055-.84.164-.238.11-.425.253-.561.43a.943.943 0 0 0-.199.575h-1.264c0-.264.068-.526.205-.786a2.3 2.3 0 0 1 .588-.704c.26-.214.57-.383.93-.506.364-.128.77-.191 1.216-.191.538 0 1.012.09 1.422.273.415.182.738.458.97.827.238.365.356.823.356 1.374v3.445c0 .247.02.509.062.787.045.278.111.517.198.717V14h-1.32a2.364 2.364 0 0 1-.15-.581 4.692 4.692 0 0 1-.054-.684Zm.218-3.22.014.89h-1.278c-.36 0-.682.029-.964.088-.283.055-.52.139-.711.253a1.2 1.2 0 0 0-.438.43c-.1.17-.15.367-.15.595 0 .233.052.445.157.636.105.191.262.344.472.458.214.11.476.164.786.164.387 0 .73-.082 1.025-.246.297-.164.531-.365.705-.602.177-.236.273-.467.287-.69l.54.608a1.836 1.836 0 0 1-.26.636 3.06 3.06 0 0 1-1.401 1.196 2.715 2.715 0 0 1-1.08.206c-.502 0-.942-.098-1.32-.294a2.255 2.255 0 0 1-.875-.787 2.08 2.08 0 0 1-.307-1.114c0-.396.077-.745.232-1.046a2.02 2.02 0 0 1 .67-.759c.291-.205.642-.36 1.053-.464.41-.105.868-.158 1.374-.158h1.47Zm4.69-2.912V14H59.76V6.603h1.271Zm-1.368-1.962c0-.205.062-.378.185-.52.127-.14.314-.211.56-.211.242 0 .427.07.554.212a.732.732 0 0 1 .198.52.715.715 0 0 1-.198.505c-.127.137-.312.205-.554.205-.246 0-.432-.068-.56-.205a.744.744 0 0 1-.185-.506ZM64.717 3.5V14h-1.272V3.5h1.272Zm6.835 8.79V6.604h1.272V14h-1.21l-.062-1.71Zm.24-1.558.526-.013c0 .492-.052.947-.157 1.367-.1.415-.264.774-.492 1.08a2.328 2.328 0 0 1-.896.718c-.369.168-.818.252-1.346.252-.36 0-.691-.052-.992-.157a1.98 1.98 0 0 1-.765-.485 2.208 2.208 0 0 1-.5-.854c-.113-.351-.17-.773-.17-1.265V6.603h1.264v4.786c0 .332.037.608.11.827.077.214.18.385.307.512.133.123.278.21.438.26.164.05.332.075.506.075.537 0 .964-.102 1.278-.307.314-.21.54-.49.677-.841.141-.356.212-.75.212-1.183Zm4.504-2.967V14h-1.264V6.603h1.23l.034 1.162Zm2.31-1.203L78.6 7.738a1.827 1.827 0 0 0-.3-.04 3.193 3.193 0 0 0-.315-.015c-.292 0-.55.046-.773.137a1.601 1.601 0 0 0-.567.383c-.155.164-.278.36-.37.588-.086.223-.143.47-.17.738l-.356.205c0-.446.044-.866.13-1.258.091-.392.23-.738.417-1.039.187-.305.424-.542.711-.71.292-.174.638-.26 1.04-.26.09 0 .195.011.314.034.118.018.2.039.246.061Zm4.382 7.574a3.64 3.64 0 0 1-1.4-.26 3.178 3.178 0 0 1-1.074-.744 3.314 3.314 0 0 1-.684-1.135 4.162 4.162 0 0 1-.239-1.436v-.287c0-.601.089-1.137.267-1.606.177-.474.419-.875.724-1.203a3.104 3.104 0 0 1 1.04-.745 2.985 2.985 0 0 1 1.202-.253c.529 0 .985.09 1.368.273.387.182.704.438.95.766.246.323.428.706.547 1.148.118.438.177.916.177 1.436v.567h-5.523V9.625h4.259v-.096a3.153 3.153 0 0 0-.205-.957 1.72 1.72 0 0 0-.547-.766c-.25-.2-.593-.3-1.026-.3a1.721 1.721 0 0 0-1.415.717 2.684 2.684 0 0 0-.403.869 4.4 4.4 0 0 0-.144 1.182v.287c0 .351.048.682.144.992.1.305.244.574.43.806.192.233.422.415.691.547.273.132.583.198.93.198.446 0 .825-.09 1.135-.273.31-.182.58-.426.813-.732l.766.609c-.16.241-.363.472-.609.69-.246.219-.549.397-.909.533-.355.137-.777.206-1.265.206Z"
    fill="#F5F5F5" />
  <path d="M0 3c0-1.657 1.245-3 2.78-3H38v19.998H2.78c-1.535 0-2.78-1.343-2.78-3V3Z" fill="#537AA1" />
  <path d="M17.146 19.996 0 2.997v14.236s0 2.763 2.78 2.763h14.366ZM38 20 17.927.008 38 .002V20Z" fill="#2E4761" />
  <path d="M8.512 11.253 18.062.205l4.308 4.334-9.55 11.048-4.308-4.334Z" fill="#1B2A39" />
  <path d="M12.741 15.652 22.35 4.537l4.308 4.334-9.608 11.115-4.308-4.334Z" fill="#263C52" />
  <g filter="url(#a)">
    <path
      d="M15.11 5.047V15h-2.044V5.047h2.044Zm3.063 0v1.606h-8.121V5.047h8.12Zm6.747 6.651h2.044a3.707 3.707 0 0 1-.554 1.784 3.3 3.3 0 0 1-1.36 1.217c-.579.292-1.276.438-2.092.438-.638 0-1.21-.11-1.716-.329a3.651 3.651 0 0 1-1.299-.957 4.264 4.264 0 0 1-.813-1.504c-.187-.587-.28-1.246-.28-1.975v-.69c0-.73.095-1.388.287-1.976a4.362 4.362 0 0 1 .834-1.51c.364-.416.8-.735 1.305-.958a4.154 4.154 0 0 1 1.696-.335c.83 0 1.529.15 2.098.451.575.301 1.019.716 1.333 1.244.32.53.51 1.13.575 1.805h-2.051c-.023-.4-.103-.74-.24-1.018a1.357 1.357 0 0 0-.622-.636c-.273-.146-.638-.219-1.093-.219-.342 0-.64.064-.896.191-.255.128-.47.322-.643.582-.173.26-.302.587-.39.984a6.813 6.813 0 0 0-.122 1.38v.705c0 .515.039.968.116 1.36.078.388.196.716.355.985.165.264.374.464.63.601.26.132.571.198.936.198.428 0 .782-.068 1.06-.205.277-.136.49-.34.635-.608.15-.269.24-.604.267-1.005Z"
      fill="#fff" />
  </g>
  <defs>
    <filter id="a" x="6.052" y="4.903" width="24.926" height="18.233" filterUnits="userSpaceOnUse"
      color-interpolation-filters="sRGB">
      <feFlood flood-opacity="0" result="BackgroundImageFix" />
      <feColorMatrix in="SourceAlpha" values="0 0 0 0 0 0 0 0 0 0 0 0 0 0 0 0 0 0 127 0" result="hardAlpha" />
      <feOffset dy="4" />
      <feGaussianBlur stdDeviation="2" />
      <feComposite in2="hardAlpha" operator="out" />
      <feColorMatrix values="0 0 0 0 0 0 0 0 0 0 0 0 0 0 0 0 0 0 0.25 0" />
      <feBlend in2="BackgroundImageFix" result="effect1_dropShadow_8_362" />
      <feBlend in="SourceGraphic" in2="effect1_dropShadow_8_362" result="shape" />
    </filter>
  </defs>
</svg>
