<svg width="98" height="20" fill="none" xmlns="http://www.w3.org/2000/svg">
  <path
    d="M93.417 0H2.583C1.157 0 0 1.387 0 3.099V16.9C0 18.613 1.157 20 2.583 20h90.834C94.843 20 96 18.613 96 16.901V3.1C96 1.387 94.843 0 93.417 0Z"
    fill="#118289" />
  <path
    d="M47.228 8.183V14h-1.264V6.604h1.196l.069 1.579Zm-.3 1.838-.527-.02c.005-.506.08-.973.226-1.401.146-.433.35-.81.615-1.128a2.741 2.741 0 0 1 2.167-1.005c.365 0 .693.05.985.15.291.096.54.25.745.465.21.214.369.492.478.834.11.337.164.75.164 1.237V14H50.51V9.14c0-.388-.057-.698-.171-.93a1.051 1.051 0 0 0-.5-.513c-.218-.11-.487-.164-.806-.164-.314 0-.601.066-.861.198a2.06 2.06 0 0 0-.663.547 2.75 2.75 0 0 0-.43.8c-.101.296-.151.61-.151.944Zm10.123 4.116a3.64 3.64 0 0 1-1.4-.26 3.179 3.179 0 0 1-1.074-.745 3.314 3.314 0 0 1-.684-1.135 4.162 4.162 0 0 1-.239-1.435v-.288c0-.601.089-1.137.267-1.606.177-.474.419-.875.724-1.203a3.104 3.104 0 0 1 1.04-.745 2.985 2.985 0 0 1 1.202-.253c.53 0 .985.09 1.368.273.387.183.704.438.95.766.246.323.428.706.547 1.148.118.438.177.916.177 1.436v.567h-5.523V9.625h4.259v-.096a3.156 3.156 0 0 0-.205-.957 1.72 1.72 0 0 0-.547-.765c-.25-.2-.593-.301-1.026-.301a1.721 1.721 0 0 0-1.415.718 2.684 2.684 0 0 0-.403.868 4.4 4.4 0 0 0-.144 1.182v.288c0 .35.048.68.144.99.1.306.244.575.43.807.192.233.422.415.691.547.274.132.584.198.93.198.447 0 .825-.09 1.135-.273a2.81 2.81 0 0 0 .813-.731l.766.608c-.16.242-.363.472-.609.69-.246.22-.549.397-.909.534-.355.136-.777.205-1.265.205Zm9.16-1.846V6.604h1.272V14h-1.21l-.062-1.709Zm.24-1.559.526-.013c0 .492-.052.948-.157 1.367-.1.415-.265.775-.492 1.08a2.328 2.328 0 0 1-.896.718c-.37.168-.818.253-1.347.253-.36 0-.69-.053-.99-.158a1.98 1.98 0 0 1-.766-.485 2.208 2.208 0 0 1-.5-.854c-.113-.351-.17-.773-.17-1.265V6.604h1.264v4.785c0 .332.037.608.11.827.077.214.18.385.307.513.132.123.278.21.438.26.164.05.333.074.506.074.537 0 .963-.102 1.278-.307.314-.21.54-.49.677-.841.141-.355.212-.75.212-1.183Zm6.336-4.128v.97h-3.999v-.97h4Zm-2.645-1.798h1.264v7.362c0 .25.04.44.117.567a.556.556 0 0 0 .3.253c.123.041.256.062.397.062.105 0 .214-.01.328-.027.118-.023.207-.042.267-.055L72.82 14c-.1.032-.232.062-.396.089-.16.032-.353.048-.581.048a1.97 1.97 0 0 1-.855-.185 1.374 1.374 0 0 1-.622-.615c-.15-.292-.225-.684-.225-1.176V4.806Zm5.673 2.96V14h-1.264V6.604h1.23l.034 1.162Zm2.31-1.204-.006 1.176a1.826 1.826 0 0 0-.3-.04 3.193 3.193 0 0 0-.315-.014c-.292 0-.55.045-.773.136a1.601 1.601 0 0 0-.567.383c-.155.164-.278.36-.37.588-.086.223-.143.47-.17.738l-.356.205c0-.446.044-.866.13-1.257.092-.392.23-.739.417-1.04.187-.305.424-.542.711-.71.292-.174.638-.26 1.04-.26.09 0 .195.011.314.034.118.018.2.039.246.061Zm5.538 6.173V8.928c0-.292-.06-.545-.178-.76a1.163 1.163 0 0 0-.52-.505c-.232-.118-.52-.178-.86-.178-.32 0-.6.055-.842.164-.237.11-.424.253-.56.431a.944.944 0 0 0-.199.574H79.24c0-.264.068-.526.205-.786a2.3 2.3 0 0 1 .588-.704c.26-.214.57-.383.93-.506.364-.127.77-.191 1.216-.191.538 0 1.012.09 1.422.273.415.183.739.458.97.827.238.365.356.823.356 1.374v3.446c0 .246.02.508.062.786.045.278.111.517.198.718V14h-1.32a2.36 2.36 0 0 1-.15-.581 4.679 4.679 0 0 1-.054-.684Zm.218-3.22.014.89h-1.278c-.36 0-.681.029-.964.088-.283.055-.52.14-.711.253a1.202 1.202 0 0 0-.438.43c-.1.17-.15.368-.15.595 0 .233.052.445.157.636.105.192.262.344.472.458.214.11.476.164.786.164.387 0 .73-.082 1.025-.246.297-.164.532-.364.705-.601.177-.237.273-.468.287-.69l.54.608a1.837 1.837 0 0 1-.26.635 3.06 3.06 0 0 1-1.401 1.196 2.715 2.715 0 0 1-1.08.206c-.502 0-.941-.098-1.32-.294a2.256 2.256 0 0 1-.875-.786 2.081 2.081 0 0 1-.307-1.115c0-.396.077-.745.232-1.046.155-.305.378-.558.67-.758.292-.205.642-.36 1.053-.465.41-.105.868-.157 1.374-.157h1.47Zm4.69-6.015V14h-1.272V3.5h1.272Z"
    fill="#fff" />
  <path d="M0 3c0-1.657 1.245-3 2.78-3H38v19.998H2.78c-1.535 0-2.78-1.343-2.78-3V3Z" fill="#537AA1" />
  <path d="M17.146 19.996 0 2.997v14.236s0 2.763 2.78 2.763h14.366ZM38 20 17.927.008 38 .002V20Z" fill="#2E4761" />
  <path d="M8.512 11.253 18.062.205l4.308 4.334-9.55 11.048-4.308-4.334Z" fill="#1B2A39" />
  <path d="M12.741 15.652 22.35 4.537l4.308 4.334-9.608 11.115-4.308-4.334Z" fill="#263C52" />
  <g filter="url(#a)">
    <path
      d="M15.11 5.047V15h-2.044V5.047h2.044Zm3.063 0v1.606h-8.121V5.047h8.12Zm6.747 6.651h2.044a3.707 3.707 0 0 1-.554 1.784 3.3 3.3 0 0 1-1.36 1.217c-.579.292-1.276.438-2.092.438-.638 0-1.21-.11-1.716-.329a3.651 3.651 0 0 1-1.299-.957 4.264 4.264 0 0 1-.813-1.504c-.187-.587-.28-1.246-.28-1.975v-.69c0-.73.095-1.388.287-1.976a4.362 4.362 0 0 1 .834-1.51c.364-.416.8-.735 1.305-.958a4.154 4.154 0 0 1 1.696-.335c.83 0 1.529.15 2.098.451.575.301 1.019.716 1.333 1.244.32.53.51 1.13.575 1.805h-2.051c-.023-.4-.103-.74-.24-1.018a1.357 1.357 0 0 0-.622-.636c-.273-.146-.638-.219-1.093-.219-.342 0-.64.064-.896.191-.255.128-.47.322-.643.582-.173.26-.302.587-.39.984a6.813 6.813 0 0 0-.122 1.38v.705c0 .515.039.968.116 1.36.078.388.196.716.355.985.165.264.374.464.63.601.26.132.571.198.936.198.428 0 .782-.068 1.06-.205.277-.136.49-.34.635-.608.15-.269.24-.604.267-1.005Z"
      fill="#fff" />
  </g>
  <defs>
    <filter id="a" x="6.052" y="4.903" width="24.926" height="18.233" filterUnits="userSpaceOnUse"
      color-interpolation-filters="sRGB">
      <feFlood flood-opacity="0" result="BackgroundImageFix" />
      <feColorMatrix in="SourceAlpha" values="0 0 0 0 0 0 0 0 0 0 0 0 0 0 0 0 0 0 127 0" result="hardAlpha" />
      <feOffset dy="4" />
      <feGaussianBlur stdDeviation="2" />
      <feComposite in2="hardAlpha" operator="out" />
      <feColorMatrix values="0 0 0 0 0 0 0 0 0 0 0 0 0 0 0 0 0 0 0.25 0" />
      <feBlend in2="BackgroundImageFix" result="effect1_dropShadow_8_367" />
      <feBlend in="SourceGraphic" in2="effect1_dropShadow_8_367" result="shape" />
    </filter>
  </defs>
</svg>
