<?xml version="1.0" encoding="UTF-8" standalone="no"?>
<svg
   xmlns:dc="http://purl.org/dc/elements/1.1/"
   xmlns:cc="http://creativecommons.org/ns#"
   xmlns:rdf="http://www.w3.org/1999/02/22-rdf-syntax-ns#"
   xmlns:svg="http://www.w3.org/2000/svg"
   xmlns="http://www.w3.org/2000/svg"
   width="200"
   height="60"
   viewBox="0 0 200 60.000001"
   id="svg2"
   version="1.1">
  <defs
     id="defs4" />
  <metadata
     id="metadata7">
    <rdf:RDF>
      <cc:Work
         rdf:about="">
        <dc:format>image/svg+xml</dc:format>
        <dc:type
           rdf:resource="http://purl.org/dc/dcmitype/StillImage" />
        <dc:title></dc:title>
      </cc:Work>
    </rdf:RDF>
  </metadata>
  <rect
     ry="5.5558391"
     y="17.306625"
     x="10.824432"
     height="35.860416"
     width="165.61201"
     id="rect4174"
     style="fill:#333333" />
  <g
     id="Layer_2"
     transform="matrix(0.11298946,0,0,0.11251011,139.4021,0.84161487)">
    <path
       id="path5"
       d="m 444.178,248.378 -35.426,6.776 c -1.23,-0.945 -3.731,-30.072 -3.731,-30.072 l -47.809,2.93 -35.874,-58.442 -39.092,26.864 -50.095,-48.777 -41.085,50.943 -22.501,-11.597 c 0,0 -24.893,37.782 -27.011,39.203 l -31.979,-9.643 -33.428,58.005 c 0,0 -23.56,5.73 -23.56,13.534 0,112.371 91.094,203.465 203.465,203.465 112.371,0 203.465,-91.094 203.465,-203.465 0,-5.513 -10.452,-6.12 -10.882,-11.523 l -4.457,-28.201 z"
       style="fill:#b9c1c6" />
  </g>
  <g
     id="Layer_3"
     transform="matrix(0.11298946,0,0,0.11251011,139.4021,0.84161487)">
    <path
       id="path8"
       d="m 410.7,326.01 c -14.319,-29.45 -29.504,-63.146 -35.106,-97.749 9.294,-18.299 14.536,-39.002 14.536,-60.93 C 390.13,109.274 353.411,57.02 301.932,36.849 270.08,20.92 231.958,9.689 221.355,7.478 220.067,7.21 219.044,8.547 219.633,9.723 l 4.017,8.033 c 0.523,1.046 -0.238,2.277 -1.407,2.277 l -28.865,0 c -0.869,0 -1.573,0.704 -1.573,1.573 0,0 14.66,11.865 6.597,18.217 l 2.458,0.47 c -47.249,22.237 -80.214,72.03 -80.214,127.036 0,21.929 5.243,42.632 14.536,60.931 -5.602,34.603 -20.787,68.299 -35.106,97.749 -16.963,34.888 -1.617,34.658 31.226,23.688 19.031,50.002 67.405,85.534 124.086,85.534 56.681,0 105.055,-35.532 124.086,-85.534 32.842,10.971 48.189,11.201 31.226,-23.687 z"
       style="fill:#ffd833" />
  </g>
  <g
     id="Layer_4"
     transform="matrix(0.11298946,0,0,0.11251011,139.4021,0.84161487)">
    <path
       id="path11"
       d="m 324.363,332.575 c 0,38.094 -30.881,68.975 -68.975,68.975 -38.094,0 -68.975,-30.881 -68.975,-68.975 0,-38.094 30.881,-58.456 68.975,-58.456 38.094,0 68.975,20.362 68.975,58.456 z"
       style="fill:#ffe576" />
  </g>
  <g
     id="Layer_5"
     transform="matrix(0.11298946,0,0,0.11251011,139.4021,0.84161487)">
    <path
       id="path14"
       d="m 202.911,149.263 0,26.693 -0.04,0 c 0,0.04 0.04,0.054 0.04,0.074 0,10.483 -8.505,18.988 -18.988,18.988 -10.483,0 -18.988,-8.505 -18.988,-18.988 0,-0.021 0,-0.034 0,-0.074 l -0.081,0 0,-26.693 0.229,0 c 0.848,-9.724 8.895,-17.375 18.841,-17.375 9.918,0 17.966,7.651 18.801,17.375 l 0.186,0 z m 142.824,0 c -0.835,-9.724 -8.883,-17.375 -18.801,-17.375 -9.945,0 -17.993,7.651 -18.841,17.375 l -0.229,0 0,26.693 0.081,0 c 0,0.04 0,0.054 0,0.074 0,10.483 8.505,18.988 18.988,18.988 10.483,0 18.988,-8.505 18.988,-18.988 0,-0.021 -0.04,-0.034 -0.04,-0.074 l 0.04,0 0,-26.693 -0.186,0 z"
       style="fill:#2b3b47" />
  </g>
  <g
     id="Layer_6"
     transform="matrix(0.11298946,0,0,0.11251011,139.4021,0.84161487)">
    <path
       id="path17"
       d="m 217.365,183.183 c 0,-18.217 17.023,-25.844 38.022,-25.844 20.999,0 38.022,7.627 38.022,25.844 0,18.217 -25.21,46.178 -38.022,46.178 -12.811,0 -38.022,-27.961 -38.022,-46.178 z"
       style="fill:#ffb636" />
  </g>
  <g
     id="Layer_7"
     transform="matrix(0.11298946,0,0,0.11251011,139.4021,0.84161487)">
    <path
       id="path20"
       d="m 437.017,298.729 -17.184,-17.314 -30.679,67.736 -29.349,-11.261 c -1.943,1.659 -24.79,45.779 -24.79,45.779 l -20.651,-13.543 -37.706,59.49 -45.975,-56.961 -35.877,31.371 -32.924,-68.247 -43.877,3.421 c 0,0 -2.295,-34.013 -3.424,-35.117 l -32.513,7.913 -22.926,-46.387 c -5.206,3.296 -8,13.415 -8,33.118 0,112.801 91.443,204.244 204.244,204.244 112.801,0 204.244,-91.443 204.244,-204.244 0,-17.152 -2.118,-27.038 -6.1,-31.487 l -16.513,31.489 z"
       style="fill:#e7edf1" />
  </g>
  <g
     id="text3610"
     style="font-style:normal;font-variant:normal;font-weight:normal;font-stretch:normal;font-size:22.5px;line-height:125%;font-family:Montserrat;-inkscape-font-specification:Montserrat;letter-spacing:0px;word-spacing:0px;fill:#ffffff;fill-opacity:1;stroke:none;stroke-width:1px;stroke-linecap:butt;stroke-linejoin:miter;stroke-opacity:1">
    <path
       id="path3615"
       style=""
       d="m 24.6305,28.729242 c -2.025,0 -3.555,0.72 -4.41,2.385 l 0,-2.295 -2.5875,0 0,11.97 2.5875,0 0,-6.3675 c 0.18,-1.8675 1.4175,-3.24 3.3975,-3.2625 1.8,0 2.88,1.1025 2.88,2.9025 l 0,6.7275 2.5875,0 0,-7.4475 c 0,-2.8575 -1.665,-4.6125 -4.455,-4.6125 z" />
    <path
       id="path3617"
       style=""
       d="m 37.704406,28.729242 c -3.7125,0 -6.255,2.4525 -6.255,6.0525 0,3.6225 2.5425,6.0975 6.255,6.0975 3.69,0 6.2325,-2.475 6.2325,-6.0975 0,-3.6 -2.5425,-6.0525 -6.2325,-6.0525 z m 0,2.205 c 2.1375,0 3.645,1.5975 3.645,3.8925 0,2.3175 -1.5075,3.8925 -3.645,3.8925 -2.16,0 -3.6675,-1.575 -3.6675,-3.8925 0,-2.295 1.5075,-3.8925 3.6675,-3.8925 z" />
    <path
       id="path3619"
       style=""
       d="m 54.686984,23.846742 c -0.855,0 -1.5075,0.6525 -1.5075,1.5525 0,0.8775 0.6525,1.53 1.5075,1.53 0.855,0 1.5075,-0.6525 1.5075,-1.53 0,-0.9 -0.6525,-1.5525 -1.5075,-1.5525 z m -1.2825,4.9725 0,11.97 2.565,0 0,-11.97 -2.565,0 z" />
    <path
       id="path3621"
       style=""
       d="m 66.774055,28.729242 c -2.025,0 -3.555,0.72 -4.41,2.385 l 0,-2.295 -2.5875,0 0,11.97 2.5875,0 0,-6.3675 c 0.18,-1.8675 1.4175,-3.24 3.3975,-3.2625 1.8,0 2.88,1.1025 2.88,2.9025 l 0,6.7275 2.5875,0 0,-7.4475 c 0,-2.8575 -1.665,-4.6125 -4.455,-4.6125 z" />
    <path
       id="path3623"
       style=""
       d="m 79.397961,26.231742 c 0.54,0 1.1475,0.2025 1.6425,0.5625 l 0.99,-1.98 c -0.765,-0.5625 -1.7325,-0.8325 -2.7,-0.8325 -2.07,0 -4.1175,1.3275 -4.1175,4.1175 l 0,1.17 -1.575,0 0,1.935 1.575,0 0,9.585 2.565,0 0,-9.585 3.1275,0 0,-1.935 -3.1275,0 0,-1.4175 c 0,-1.125 0.7425,-1.62 1.62,-1.62 z" />
    <path
       id="path3625"
       style=""
       d="m 87.318664,28.729242 c -3.7125,0 -6.255,2.4525 -6.255,6.0525 0,3.6225 2.5425,6.0975 6.255,6.0975 3.69,0 6.2325,-2.475 6.2325,-6.0975 0,-3.6 -2.5425,-6.0525 -6.2325,-6.0525 z m 0,2.205 c 2.1375,0 3.645,1.5975 3.645,3.8925 0,2.3175 -1.5075,3.8925 -3.645,3.8925 -2.16,0 -3.6675,-1.575 -3.6675,-3.8925 0,-2.295 1.5075,-3.8925 3.6675,-3.8925 z" />
    <path
       id="path3627"
       style=""
       d="m 107.72124,42.431742 5.445,-13.6125 -2.5875,0 -3.33,9.0675 -3.5775,-9.0675 -2.6775,0 4.95,11.79 -0.405,0.9 c -0.405,0.9 -1.035,1.3275 -1.8225,1.3275 -0.54,0 -0.99,-0.18 -1.5525,-0.585 l -1.1025,2.0025 c 0.8325,0.6975 1.6875,1.0125 2.7675,1.0125 1.8,0 3.15,-0.945 3.8925,-2.835 z" />
    <path
       id="path3629"
       style=""
       d="m 119.45991,28.729242 c -3.555,0.0225 -6.0525,2.475 -6.0525,6.0975 0,3.6 2.43,6.0525 6.12,6.0525 2.07,0 3.78,-0.7425 4.95,-2.025 l -1.3725,-1.4625 c -0.8775,0.9 -2.07,1.395 -3.375,1.395 -1.89,0 -3.3075,-1.1475 -3.7125,-2.9925 l 9.045,0 c 0.315,-4.32 -1.395,-7.065 -5.6025,-7.065 z m -3.4875,5.175 c 0.27,-1.9125 1.62,-3.105 3.51,-3.105 1.9575,0 3.24,1.17 3.33,3.105 l -6.84,0 z" />
    <path
       id="path3631"
       style=""
       d="m 133.87995,38.044242 c -0.6975,0.3375 -1.26,0.5175 -1.8,0.5175 -0.81,0 -1.2825,-0.3825 -1.2825,-1.62 l 0,-5.7375 3.5325,0 0,-1.935 -3.5325,0 0,-3.285 -2.565,0 0,3.285 -1.6875,0 0,1.935 1.6875,0 0,6.21 c 0,2.4525 1.5525,3.4875 3.3525,3.4875 1.0125,0 2.0025,-0.315 2.9475,-0.8775 l -0.6525,-1.98 z" />
  </g>
</svg>
