<svg width="122" height="20" fill="none" xmlns="http://www.w3.org/2000/svg">
  <path
    d="M116.771 0H3.229C1.446 0 0 1.387 0 3.099V16.9C0 18.613 1.446 20 3.23 20H116.77c1.783 0 3.229-1.387 3.229-3.099V3.1C120 1.387 118.554 0 116.771 0Z"
    fill="#757434" />
  <path
    d="M47.228 8.183V14h-1.264V6.604h1.196l.069 1.579Zm-.3 1.838-.527-.02c.005-.506.08-.973.226-1.401.146-.433.35-.81.615-1.128a2.741 2.741 0 0 1 2.167-1.005c.365 0 .693.05.985.15.291.096.54.25.745.465.21.214.369.492.478.834.11.337.164.75.164 1.237V14H50.51V9.14c0-.388-.057-.698-.171-.93a1.051 1.051 0 0 0-.5-.513c-.218-.11-.487-.164-.806-.164-.314 0-.601.066-.861.198a2.06 2.06 0 0 0-.663.547 2.75 2.75 0 0 0-.43.8c-.101.296-.151.61-.151.944Zm6.72.363v-.157c0-.534.077-1.028.232-1.484.155-.46.378-.859.67-1.196a2.99 2.99 0 0 1 1.06-.793 3.29 3.29 0 0 1 1.394-.287c.52 0 .986.096 1.401.287.42.187.775.451 1.066.793.297.337.522.736.677 1.196.155.456.233.95.233 1.484v.157c0 .533-.078 1.027-.233 1.483-.155.456-.38.855-.677 1.196a3.101 3.101 0 0 1-1.06.793c-.41.187-.874.28-1.394.28-.52 0-.986-.093-1.401-.28a3.172 3.172 0 0 1-1.066-.793 3.616 3.616 0 0 1-.67-1.196 4.582 4.582 0 0 1-.233-1.483Zm1.264-.157v.157c0 .369.043.718.13 1.046.086.323.216.61.39.861.177.25.398.449.662.595.265.141.572.212.923.212.347 0 .65-.071.91-.212.264-.146.483-.344.656-.595.173-.25.303-.538.39-.861.09-.328.136-.677.136-1.046v-.157c0-.365-.046-.71-.137-1.033a2.659 2.659 0 0 0-.396-.868 1.884 1.884 0 0 0-.656-.601 1.84 1.84 0 0 0-.916-.22c-.347 0-.652.074-.916.22-.26.145-.479.346-.657.601-.173.25-.303.54-.39.868-.086.324-.13.668-.13 1.033Zm12.461-3.623V14h-1.271V6.604h1.271Zm-1.367-1.962c0-.205.061-.379.185-.52.127-.141.314-.212.56-.212.242 0 .426.07.554.212a.732.732 0 0 1 .198.52.715.715 0 0 1-.198.505c-.128.137-.312.206-.554.206-.246 0-.433-.069-.56-.206a.744.744 0 0 1-.185-.505Zm4.942 3.54V14h-1.264V6.604h1.196l.068 1.579Zm-.3 1.84L70.12 10c.005-.506.08-.973.226-1.401.145-.433.35-.81.615-1.128a2.74 2.74 0 0 1 2.167-1.005c.364 0 .692.05.984.15.292.096.54.25.745.465.21.214.37.492.479.834.11.337.164.75.164 1.237V14h-1.272V9.14c0-.388-.057-.698-.17-.93a1.051 1.051 0 0 0-.5-.513c-.218-.11-.487-.164-.806-.164-.315 0-.602.066-.862.198a2.06 2.06 0 0 0-.663.547 2.753 2.753 0 0 0-.43.8c-.1.296-.15.61-.15.944ZM79.587 14h-1.264V5.824c0-.533.096-.982.287-1.346a1.93 1.93 0 0 1 .84-.834c.365-.192.798-.288 1.3-.288a3.524 3.524 0 0 1 .875.11l-.069 1.032a2.093 2.093 0 0 0-.328-.048 4.631 4.631 0 0 0-.355-.013c-.27 0-.502.054-.698.164a1.03 1.03 0 0 0-.437.464c-.1.206-.15.458-.15.76V14Zm1.573-7.396v.97h-4.006v-.97h4.006Zm1.353 3.78v-.157c0-.534.078-1.028.232-1.484.155-.46.379-.859.67-1.196a2.99 2.99 0 0 1 1.06-.793 3.29 3.29 0 0 1 1.394-.287c.52 0 .987.096 1.402.287.42.187.774.451 1.066.793.296.337.522.736.677 1.196.155.456.232.95.232 1.484v.157c0 .533-.077 1.027-.232 1.483-.155.456-.38.855-.677 1.196a3.101 3.101 0 0 1-1.06.793c-.41.187-.874.28-1.394.28-.52 0-.987-.093-1.401-.28a3.172 3.172 0 0 1-1.067-.793 3.616 3.616 0 0 1-.67-1.196 4.582 4.582 0 0 1-.232-1.483Zm1.265-.157v.157c0 .369.043.718.13 1.046.086.323.216.61.39.861.177.25.398.449.662.595.265.141.572.212.923.212.347 0 .65-.071.91-.212.264-.146.482-.344.656-.595.173-.25.303-.538.39-.861.09-.328.136-.677.136-1.046v-.157c0-.365-.046-.71-.137-1.033a2.659 2.659 0 0 0-.396-.868 1.884 1.884 0 0 0-.657-.601 1.84 1.84 0 0 0-.916-.22c-.346 0-.651.074-.916.22-.26.145-.478.346-.656.601-.173.25-.303.54-.39.868-.086.324-.13.668-.13 1.033Zm13.165 3.007 2.058-6.63h1.353l-2.967 8.538a4.69 4.69 0 0 1-.273.588c-.11.214-.25.416-.424.608a2.018 2.018 0 0 1-.629.465 1.892 1.892 0 0 1-.868.184 3.7 3.7 0 0 1-.71-.11l-.008-1.024c.037.004.094.009.171.013a2.037 2.037 0 0 0 .902-.102c.201-.073.37-.199.506-.376.142-.174.262-.413.363-.718l.526-1.436Zm-1.51-6.63 1.92 5.742.328 1.333-.909.465-2.72-7.54h1.38Zm9.316 7.533c-.515 0-.982-.087-1.401-.26a3.177 3.177 0 0 1-1.073-.745 3.326 3.326 0 0 1-.684-1.135 4.174 4.174 0 0 1-.239-1.435v-.288c0-.601.089-1.137.267-1.606.177-.474.419-.875.724-1.203a3.114 3.114 0 0 1 1.039-.745 2.989 2.989 0 0 1 1.203-.253c.529 0 .985.09 1.368.273.387.183.704.438.95.766.246.323.428.706.547 1.148.118.438.177.916.177 1.436v.567h-5.523V9.625h4.259v-.096a3.162 3.162 0 0 0-.205-.957 1.726 1.726 0 0 0-.547-.765c-.251-.2-.593-.301-1.026-.301a1.723 1.723 0 0 0-1.415.718 2.694 2.694 0 0 0-.403.868 4.387 4.387 0 0 0-.144 1.182v.288c0 .35.048.68.144.99.1.306.244.575.431.807.191.233.421.415.69.547.274.132.583.198.93.198.446 0 .825-.09 1.135-.273.309-.182.581-.426.813-.731l.766.608c-.16.242-.363.472-.609.69a2.9 2.9 0 0 1-.909.534c-.355.136-.777.205-1.265.205Zm7.732-7.533v.97h-3.999v-.97h3.999Zm-2.646-1.798h1.265v7.362c0 .25.039.44.116.567a.554.554 0 0 0 .301.253c.123.041.255.062.396.062.105 0 .214-.01.328-.027.119-.023.208-.042.267-.055l.007 1.032c-.1.032-.233.062-.397.089a3.01 3.01 0 0 1-.581.048c-.31 0-.594-.062-.854-.185a1.373 1.373 0 0 1-.622-.615c-.151-.292-.226-.684-.226-1.176V4.806Z"
    fill="#fff" />
  <path d="M0 3c0-1.657 1.245-3 2.78-3H38v19.998H2.78c-1.535 0-2.78-1.343-2.78-3V3Z" fill="#537AA1" />
  <path d="M17.146 19.996 0 2.997v14.236s0 2.763 2.78 2.763h14.366ZM38 20 17.927.008 38 .002V20Z" fill="#2E4761" />
  <path d="M8.512 11.253 18.062.205l4.308 4.334-9.55 11.048-4.308-4.334Z" fill="#1B2A39" />
  <path d="M12.741 15.652 22.35 4.537l4.308 4.334-9.608 11.115-4.308-4.334Z" fill="#263C52" />
  <g filter="url(#a)">
    <path
      d="M15.11 5.047V15h-2.044V5.047h2.044Zm3.063 0v1.606h-8.121V5.047h8.12Zm6.747 6.651h2.044a3.707 3.707 0 0 1-.554 1.784 3.3 3.3 0 0 1-1.36 1.217c-.579.292-1.276.438-2.092.438-.638 0-1.21-.11-1.716-.329a3.651 3.651 0 0 1-1.299-.957 4.264 4.264 0 0 1-.813-1.504c-.187-.587-.28-1.246-.28-1.975v-.69c0-.73.095-1.388.287-1.976a4.362 4.362 0 0 1 .834-1.51c.364-.416.8-.735 1.305-.958a4.154 4.154 0 0 1 1.696-.335c.83 0 1.529.15 2.098.451.575.301 1.019.716 1.333 1.244.32.53.51 1.13.575 1.805h-2.051c-.023-.4-.103-.74-.24-1.018a1.357 1.357 0 0 0-.622-.636c-.273-.146-.638-.219-1.093-.219-.342 0-.64.064-.896.191-.255.128-.47.322-.643.582-.173.26-.302.587-.39.984a6.813 6.813 0 0 0-.122 1.38v.705c0 .515.039.968.116 1.36.078.388.196.716.355.985.165.264.374.464.63.601.26.132.571.198.936.198.428 0 .782-.068 1.06-.205.277-.136.49-.34.635-.608.15-.269.24-.604.267-1.005Z"
      fill="#fff" />
  </g>
  <defs>
    <filter id="a" x="6.052" y="4.903" width="24.926" height="18.233" filterUnits="userSpaceOnUse"
      color-interpolation-filters="sRGB">
      <feFlood flood-opacity="0" result="BackgroundImageFix" />
      <feColorMatrix in="SourceAlpha" values="0 0 0 0 0 0 0 0 0 0 0 0 0 0 0 0 0 0 127 0" result="hardAlpha" />
      <feOffset dy="4" />
      <feGaussianBlur stdDeviation="2" />
      <feComposite in2="hardAlpha" operator="out" />
      <feColorMatrix values="0 0 0 0 0 0 0 0 0 0 0 0 0 0 0 0 0 0 0.25 0" />
      <feBlend in2="BackgroundImageFix" result="effect1_dropShadow_8_368" />
      <feBlend in="SourceGraphic" in2="effect1_dropShadow_8_368" result="shape" />
    </filter>
  </defs>
</svg>
