<?xml version="1.0" encoding="UTF-8" standalone="no"?>
<svg
   xmlns:dc="http://purl.org/dc/elements/1.1/"
   xmlns:cc="http://creativecommons.org/ns#"
   xmlns:rdf="http://www.w3.org/1999/02/22-rdf-syntax-ns#"
   xmlns:svg="http://www.w3.org/2000/svg"
   xmlns="http://www.w3.org/2000/svg"
   version="1.1"
   id="svg2"
   viewBox="0 0 235 60.000001"
   height="60"
   width="235">
  <defs
     id="defs4" />
  <metadata
     id="metadata7">
    <rdf:RDF>
      <cc:Work
         rdf:about="">
        <dc:format>image/svg+xml</dc:format>
        <dc:type
           rdf:resource="http://purl.org/dc/dcmitype/StillImage" />
        <dc:title></dc:title>
      </cc:Work>
    </rdf:RDF>
  </metadata>
  <rect
     style="fill:#333333"
     id="rect4174"
     width="175.7733"
     height="35.860416"
     x="10.824432"
     y="17.306625"
     ry="5.5558391" />
  <g
     id="layer1"
     style="display:inline" />
  <g
     id="layer2"
     style="display:inline" />
  <path
     style="fill:#ffdd67"
     d="m 175.50474,27.968095 c 0,14.688852 11.85196,26.5347 26.54839,26.5347 14.69643,0 26.54838,-11.845848 26.54838,-26.5347 0,-14.688852 -11.85195,-26.5346995 -26.54838,-26.5346995 -14.69643,0 -26.54839,11.8458475 -26.54839,26.5346995 z"
     id="path4" />
  <g
     transform="matrix(0.94815668,0,0,0.94766786,171.71211,-0.46194012)"
     style="fill:#917524"
     id="g6">
    <path
       d="m 14.2,12 c 3.4,-2 7.5,-2.3 11.3,-1 0.5,0.2 1.3,-1.7 0.7,-1.9 -4.3,-1.6 -9,-1.2 -13,1.1 -0.6,0.3 0.5,2.1 1,1.8"
       id="path8" />
    <path
       d="m 38.2,15 c 3.4,-2 7.5,-2.3 11.3,-1 0.5,0.2 1.3,-1.7 0.7,-1.9 -4.3,-1.6 -9,-1.2 -13,1.1 -0.6,0.3 0.5,2 1,1.8"
       id="path10" />
  </g>
  <path
     style="fill:#664e27"
     d="m 194.56269,32.422134 c 4.8356,-1.231968 10.14528,-0.379067 14.22235,2.463937 1.04297,0.663367 -0.85334,3.316837 -1.89631,2.558703 -2.74966,-1.800569 -7.01636,-3.127304 -11.4727,-1.990103 -1.13779,0.284301 -2.08594,-2.65347 -0.85334,-3.032537"
     id="path12" />
  <path
     style="fill:#ffffff"
     d="m 212.29322,27.115194 c -3.88744,0 -7.11118,-3.222071 -7.11118,-7.107509 0,-1.611035 0.5689,-3.127304 1.42224,-4.264505 1.61187,-0.473834 3.41336,-0.663368 5.30968,-0.663368 2.27557,0 4.45633,0.379067 6.35265,1.042435 0.75852,1.137201 1.2326,2.463936 1.2326,3.980205 -0.0948,3.885438 -3.22373,7.012742 -7.20599,7.012742"
     id="path14" />
  <path
     style="fill:#664e27"
     d="m 213.24138,15.079812 c 0.37926,0.568601 0.66371,1.231968 0.66371,1.990103 0,1.990102 -1.61187,3.601138 -3.603,3.601138 -1.99113,0 -3.50818,-1.611036 -3.50818,-3.506371 0,-0.568601 0.0948,-1.042435 0.37926,-1.516269 1.42224,-0.379067 3.0341,-0.568601 4.74079,-0.568601 0.47407,0 0.94815,0 1.32742,0"
     id="path16" />
  <path
     style="fill:#ffffff"
     d="m 191.81303,27.115194 c -3.88744,0 -7.11117,-3.222071 -7.11117,-7.107509 0,-1.611035 0.56889,-3.127304 1.42223,-4.264505 1.61187,-0.473834 3.41337,-0.663368 5.30968,-0.663368 2.27558,0 4.45634,0.379067 6.35265,1.042435 0.75853,1.137201 1.23261,2.463936 1.23261,3.980205 -0.0948,3.885438 -3.31855,7.012742 -7.206,7.012742"
     id="path18" />
  <path
     style="fill:#664e27"
     d="m 192.76119,15.079812 c 0.37926,0.568601 0.66371,1.231968 0.66371,1.990103 0,1.990102 -1.61187,3.601138 -3.60299,3.601138 -1.99113,0 -3.603,-1.611036 -3.603,-3.601138 0,-0.568601 0.0948,-1.042435 0.37926,-1.516269 1.42224,-0.379067 3.0341,-0.568601 4.74079,-0.568601 0.56889,0.09477 0.94815,0.09477 1.42223,0.09477"
     id="path20" />
  <path
     style="fill:#ffffff"
     d="m 202.62202,41.235445 c -3.98226,0.947668 -14.12753,2.179636 -15.92903,0.284301 -0.85334,-0.852901 -0.66371,-2.08487 -0.37926,-4.264506 0.28444,-2.179636 -1.8015,-4.454039 -3.31855,-4.643572 -1.8015,-0.189534 -2.84447,1.137201 -2.18076,3.032537 1.32742,4.264505 -1.32742,5.59124 -1.51705,8.718544 -0.0948,1.800569 -0.66371,4.833106 2.08594,8.718545 3.12892,4.359272 8.53341,4.454039 10.42972,4.359272 2.18077,-0.09477 3.12892,-0.189534 3.603,-1.137202 0.56889,-1.137201 0.28445,-1.421501 0.56889,-1.800569 0.47408,-0.852901 0.75853,-0.758134 1.04298,-1.800569 0.28444,-1.042434 -0.47408,-1.705802 -0.28445,-2.179636 0.37926,-1.137201 1.32742,-0.947668 0.37926,-3.601138 3.22374,-0.473833 5.30968,-0.947667 7.20599,-2.084869 3.50818,-1.895336 0.47408,-4.074972 -1.70668,-3.601138"
     id="path22" />
  <path
     style="fill:#cccfd4"
     d="m 188.30486,58.009166 c -3.22374,-0.5686 -5.87858,-2.179636 -7.58526,-4.548805 -2.65484,-3.695905 -2.46521,-6.633675 -2.27557,-8.623778 0,-0.189533 0,-0.473834 0,-0.663367 0.0948,-1.326735 0.47407,-2.36917 0.94815,-3.411605 0.66371,-1.516268 1.23261,-2.748236 0.47408,-5.022639 -0.37926,-1.137202 -0.28445,-2.274403 0.47408,-3.032537 0.66371,-0.663368 1.61187,-1.042435 2.74965,-0.852902 0,0 0.0948,0 0.0948,0 1.99113,0.379068 4.2667,3.032538 3.98226,5.591241 -0.28445,2.084869 -0.37927,3.032537 0.18963,3.601138 0.0948,0.09477 0.37926,0.379067 1.42223,0.473834 3.603,0.663367 10.71417,-0.379068 13.65346,-1.042435 0.47408,-0.09477 1.04297,-0.09477 1.61187,0 1.42223,0.2843 2.4652,1.137201 2.74965,2.179636 0.0948,0.663368 0.0948,1.895336 -1.89631,3.032537 -1.89632,1.042435 -3.88745,1.611036 -6.6371,1.990103 0.75853,1.895335 -1.04297,2.558703 -0.66371,3.316837 0.47408,1.042435 0.37926,1.895336 -0.66371,2.937771 -0.75852,0.663367 0.18963,1.516268 -0.56889,2.843003 -0.85334,1.421502 -2.27558,1.516269 -4.36152,1.611036 -1.42224,-0.09477 -2.56003,-0.09477 -3.69781,-0.379068 m -7.206,-23.217862 c 0.66371,3.127304 0.85335,4.264505 -0.28444,6.823208 -1.70668,3.411605 -2.37039,13.077817 7.77488,14.878386 6.16302,1.137201 7.11118,-0.379067 6.82673,-1.990103 -0.18963,-1.042434 0.66371,-1.421501 0.94816,-1.800569 0.66371,-1.137201 -0.28445,-1.705802 -0.28445,-2.179636 0,-0.852901 0.85334,-0.852901 1.04297,-1.705802 0.28445,-1.516268 -1.61186,-2.084869 0,-2.179636 3.12892,-0.189533 5.21486,-0.758134 7.01636,-1.990102 1.70668,-1.137202 0.47408,-3.506372 -1.8015,-3.032538 -5.30967,1.137202 -13.27419,2.463937 -15.92903,0 -1.2326,-1.137201 -0.28445,-2.463936 -0.37926,-5.022639 -0.18963,-3.411605 -5.59413,-4.73834 -4.93042,-1.800569"
     id="path24" />
  <g
     id="text3348"
     style="font-style:normal;font-variant:normal;font-weight:normal;font-stretch:normal;font-size:22.5px;line-height:125%;font-family:Montserrat;-inkscape-font-specification:Montserrat;letter-spacing:0px;word-spacing:0px;fill:#ffffff;fill-opacity:1;stroke:none;stroke-width:1px;stroke-linecap:butt;stroke-linejoin:miter;stroke-opacity:1">
    <path
       id="path3353"
       style=""
       d="m 24.967999,39.121501 c -0.6975,0.3375 -1.26,0.5175 -1.8,0.5175 -0.81,0 -1.2825,-0.3825 -1.2825,-1.62 l 0,-5.7375 3.5325,0 0,-1.935 -3.5325,0 0,-3.285 -2.565,0 0,3.285 -1.6875,0 0,1.935 1.6875,0 0,6.21 c 0,2.4525 1.5525,3.4875 3.3525,3.4875 1.0125,0 2.0025,-0.315 2.9475,-0.8775 l -0.6525,-1.98 z" />
    <path
       id="path3355"
       style=""
       d="m 37.708624,41.866501 -0.0225,-7.8525 c -0.0225,-2.6325 -1.755,-4.2075 -4.8375,-4.2075 -2.2725,0 -3.4875,0.5175 -5.1525,1.5075 l 1.0575,1.8 c 1.1925,-0.81 2.385,-1.215 3.5325,-1.215 1.89,0 2.8575,0.9 2.8575,2.4075 l 0,0.36 -3.6225,0 c -2.88,0.0225 -4.5225,1.4175 -4.5225,3.6 0,2.115 1.62,3.7125 4.2075,3.7125 1.7325,0 3.105,-0.5175 3.96,-1.575 l 0,1.4625 2.5425,0 z m -5.9625,-1.935 c -1.44,0 -2.3175,-0.6975 -2.3175,-1.7775 0,-1.1475 0.7875,-1.5975 2.475,-1.5975 l 3.24,0 0,1.1025 c -0.135,1.305 -1.5525,2.2725 -3.3975,2.2725 z" />
    <path
       id="path3357"
       style=""
       d="m 47.989718,32.911501 0.945,-1.9125 c -1.08,-0.765 -2.6775,-1.215 -4.185,-1.215 -2.295,0 -4.41,1.035 -4.41,3.465 -0.0225,4.32 6.2775,2.9475 6.2775,5.4 0,0.9 -0.855,1.2825 -1.9575,1.2825 -1.305,0 -2.97,-0.5625 -4.005,-1.485 l -0.9225,1.845 c 1.1925,1.08 3.06,1.665 4.815,1.665 2.4075,0 4.59,-1.1025 4.59,-3.555 0.0225,-4.3425 -6.345,-3.15 -6.345,-5.355 0,-0.855 0.7425,-1.1925 1.755,-1.1925 1.0575,0 2.385,0.405 3.4425,1.0575 z" />
    <path
       id="path3359"
       style=""
       d="m 59.998038,41.866501 3.06,0 -4.77,-7.335 4.4325,-4.635 -2.97,0 -5.2875,5.355 0,-10.08 -2.5875,0 0,16.695 2.5875,0 0,-3.3525 2.025,-2.1375 3.51,5.49 z" />
    <path
       id="path3361"
       style=""
       d="m 65.706359,32.416501 c -0.81,0 -1.4175,0.6075 -1.4175,1.4625 0,0.8775 0.6075,1.5075 1.4175,1.5075 0.81,0 1.4175,-0.63 1.4175,-1.5075 0,-0.855 -0.6075,-1.4625 -1.4175,-1.4625 z m 0,6.6825 c -0.81,0 -1.4175,0.6075 -1.4175,1.4625 0,0.8775 0.6075,1.5075 1.4175,1.5075 0.81,0 1.4175,-0.63 1.4175,-1.5075 0,-0.855 -0.6075,-1.4625 -1.4175,-1.4625 z" />
    <path
       id="path3363"
       style=""
       d="m 83.784757,29.806501 c -1.8675,0 -3.3075,0.765 -4.185,2.16 l 0,-2.07 -2.5875,0 0,16.335 2.5875,0 0,-6.435 c 0.8775,1.395 2.3175,2.16 4.23,2.16 3.42,0 5.67,-2.4525 5.67,-6.03 0,-3.645 -2.3175,-6.12 -5.715,-6.12 z m -0.54,9.945 c -2.1375,0 -3.645,-1.5975 -3.645,-3.915 0,-2.25 1.5075,-3.87 3.645,-3.87 2.1375,0 3.645,1.6425 3.645,3.87 0,2.295 -1.5075,3.915 -3.645,3.915 z" />
    <path
       id="path3365"
       style=""
       d="m 97.120226,29.806501 c -3.555,0.0225 -6.0525,2.475 -6.0525,6.0975 0,3.6 2.43,6.0525 6.12,6.0525 2.07,0 3.780004,-0.7425 4.950004,-2.025 l -1.3725,-1.4625 c -0.877504,0.9 -2.070004,1.395 -3.375004,1.395 -1.89,0 -3.3075,-1.1475 -3.7125,-2.9925 l 9.045004,0 c 0.315,-4.32 -1.395,-7.065 -5.602504,-7.065 z m -3.4875,5.175 c 0.27,-1.9125 1.62,-3.105 3.51,-3.105 1.9575,0 3.240004,1.17 3.330004,3.105 l -6.840004,0 z" />
    <path
       id="path3367"
       style=""
       d="m 112.41776,29.806501 c -2.025,0 -3.555,0.72 -4.41,2.385 l 0,-2.295 -2.5875,0 0,11.97 2.5875,0 0,-6.3675 c 0.18,-1.8675 1.4175,-3.24 3.3975,-3.2625 1.8,0 2.88,1.1025 2.88,2.9025 l 0,6.7275 2.5875,0 0,-7.4475 c 0,-2.8575 -1.665,-4.6125 -4.455,-4.6125 z" />
    <path
       id="path3369"
       style=""
       d="m 129.18167,25.171501 0,6.795 c -0.8775,-1.395 -2.3175,-2.1825 -4.2525,-2.1825 -3.375,0 -5.6925,2.4525 -5.6925,6.0525 0,3.645 2.295,6.1425 5.7375,6.1425 1.9125,0 3.3525,-0.765 4.2075,-2.16 l 0,2.0475 2.5875,0 0,-16.695 -2.5875,0 z m -3.6675,14.6475 c -2.1825,0 -3.6675,-1.62 -3.69,-3.8925 0.0225,-2.295 1.53,-3.9375 3.69,-3.9375 2.16,0 3.6675,1.62 3.6675,3.9375 0,2.2725 -1.5075,3.8925 -3.6675,3.8925 z" />
    <path
       id="path3371"
       style=""
       d="m 136.98109,24.924001 c -0.855,0 -1.5075,0.6525 -1.5075,1.5525 0,0.8775 0.6525,1.53 1.5075,1.53 0.855,0 1.5075,-0.6525 1.5075,-1.53 0,-0.9 -0.6525,-1.5525 -1.5075,-1.5525 z m -1.2825,4.9725 0,11.97 2.565,0 0,-11.97 -2.565,0 z" />
    <path
       id="path3373"
       style=""
       d="m 149.06816,29.806501 c -2.025,0 -3.555,0.72 -4.41,2.385 l 0,-2.295 -2.5875,0 0,11.97 2.5875,0 0,-6.3675 c 0.18,-1.8675 1.4175,-3.24 3.3975,-3.2625 1.8,0 2.88,1.1025 2.88,2.9025 l 0,6.7275 2.5875,0 0,-7.4475 c 0,-2.8575 -1.665,-4.6125 -4.455,-4.6125 z" />
    <path
       id="path3375"
       style=""
       d="m 165.24706,29.896501 0,1.935 c -0.8325,-1.305 -2.205,-2.0475 -4.05,-2.025 -3.1725,0.0225 -5.31,2.3175 -5.31,5.6925 0,3.4425 2.16,5.7825 5.4,5.7825 1.8,0 3.15,-0.72 3.96,-2.025 l 0,1.5075 c 0,2.07 -1.485,3.3975 -3.7575,3.3975 -1.4625,0 -2.6325,-0.4725 -3.7575,-1.305 l -1.1025,1.8675 c 1.4625,0.99 3.105,1.575 4.9725,1.575 3.7575,0 6.21,-2.16 6.21,-5.6025 l 0,-10.8 -2.565,0 z m -3.4425,9.36 c -2.07,0 -3.465,-1.53 -3.4875,-3.69 0.0225,-2.1375 1.44,-3.6675 3.4875,-3.6675 2.025,0 3.4425,1.5075 3.4425,3.6675 0,2.16 -1.4175,3.69 -3.4425,3.69 z" />
  </g>
</svg>
