<svg width="107" height="20" fill="none" xmlns="http://www.w3.org/2000/svg">
  <path
    d="M104.121 0H2.879C1.29 0 0 1.387 0 3.099V16.9C0 18.613 1.29 20 2.88 20H104.12c1.59 0 2.879-1.387 2.879-3.099V3.1C107 1.387 105.711 0 104.121 0Z"
    fill="#585858" />
  <path
    d="M47.88 8.025v8.819h-1.27V6.604h1.161l.11 1.421Zm4.984 2.215v.144c0 .537-.064 1.036-.191 1.497a3.68 3.68 0 0 1-.56 1.19c-.242.336-.54.598-.896.785a2.59 2.59 0 0 1-1.224.28c-.47 0-.884-.077-1.244-.232a2.453 2.453 0 0 1-.916-.677 3.458 3.458 0 0 1-.602-1.066 6.169 6.169 0 0 1-.3-1.401v-.766a6.432 6.432 0 0 1 .307-1.47c.15-.433.349-.802.595-1.107.25-.31.554-.545.909-.704a2.907 2.907 0 0 1 1.23-.246c.465 0 .878.09 1.238.273.36.178.663.433.909.766.246.332.43.731.554 1.196.127.46.191.973.191 1.538Zm-1.271.144v-.144c0-.37-.04-.715-.117-1.039a2.625 2.625 0 0 0-.362-.861 1.726 1.726 0 0 0-.615-.588 1.75 1.75 0 0 0-.896-.219c-.319 0-.597.055-.834.164-.232.11-.43.258-.594.444a2.359 2.359 0 0 0-.404.63c-.1.232-.175.473-.225.724v1.77c.09.32.218.62.383.903.164.278.382.503.656.677.273.168.617.252 1.032.252.342 0 .636-.07.882-.211.25-.146.456-.345.615-.595a2.71 2.71 0 0 0 .362-.861 4.54 4.54 0 0 0 .117-1.046Zm6.234 3.752a3.64 3.64 0 0 1-1.402-.26 3.179 3.179 0 0 1-1.073-.744 3.314 3.314 0 0 1-.683-1.135 4.162 4.162 0 0 1-.24-1.436v-.287c0-.601.09-1.137.267-1.606.178-.474.42-.875.724-1.203a3.103 3.103 0 0 1 1.04-.745 2.985 2.985 0 0 1 1.203-.253c.528 0 .984.09 1.367.273.387.182.704.438.95.766.246.323.428.706.547 1.148.118.438.178.916.178 1.436v.567H55.18V9.625h4.259v-.096a3.153 3.153 0 0 0-.205-.957 1.72 1.72 0 0 0-.547-.766c-.25-.2-.592-.3-1.025-.3a1.721 1.721 0 0 0-1.415.717 2.684 2.684 0 0 0-.404.869 4.4 4.4 0 0 0-.143 1.182v.287c0 .351.048.682.143.992.1.305.244.574.43.806.192.233.422.415.691.547.274.132.584.198.93.198.447 0 .825-.09 1.135-.273a2.81 2.81 0 0 0 .813-.732l.766.609c-.16.241-.362.472-.608.69-.247.219-.55.397-.91.533-.355.137-.777.206-1.264.206Zm5.899-5.954V14H62.46V6.603h1.197l.068 1.58Zm-.3 1.84L62.898 10c.004-.506.08-.973.225-1.402.146-.433.351-.809.615-1.128a2.74 2.74 0 0 1 2.167-1.004c.365 0 .693.05.985.15.292.096.54.25.745.465.21.214.37.492.479.834.109.337.164.75.164 1.237V14h-1.272V9.14c0-.388-.057-.698-.17-.93a1.05 1.05 0 0 0-.5-.513c-.219-.11-.487-.164-.806-.164-.315 0-.602.066-.862.198a2.06 2.06 0 0 0-.663.547 2.75 2.75 0 0 0-.43.8c-.1.296-.15.61-.15.943Zm11.716 2.542V3.5h1.271V14h-1.162l-.11-1.436Zm-4.977-2.18v-.144c0-.565.068-1.078.205-1.538.141-.465.34-.864.595-1.196a2.69 2.69 0 0 1 .923-.766c.36-.182.76-.273 1.203-.273.465 0 .87.082 1.217.246.35.16.647.394.888.704.246.305.44.674.581 1.107.142.433.24.923.294 1.47v.629a6.44 6.44 0 0 1-.294 1.463 3.45 3.45 0 0 1-.58 1.107c-.242.306-.538.54-.89.704-.35.16-.76.24-1.23.24-.433 0-.83-.094-1.19-.28a2.806 2.806 0 0 1-.922-.787 3.831 3.831 0 0 1-.595-1.19 5.238 5.238 0 0 1-.205-1.496Zm1.271-.144v.144c0 .369.037.715.11 1.039.077.323.196.608.355.854.16.246.363.44.609.581.246.137.54.205.882.205.419 0 .763-.089 1.032-.266.273-.178.492-.413.656-.704.164-.292.292-.609.383-.95V9.494a3.652 3.652 0 0 0-.24-.725 2.23 2.23 0 0 0-.396-.629 1.714 1.714 0 0 0-.595-.444 1.926 1.926 0 0 0-.827-.164 1.75 1.75 0 0 0-.895.219 1.744 1.744 0 0 0-.609.588 2.72 2.72 0 0 0-.355.861 4.72 4.72 0 0 0-.11 1.039Zm8.6-3.637V14h-1.272V6.603h1.272Zm-1.367-1.962c0-.205.061-.378.184-.52.128-.14.315-.211.56-.211.242 0 .427.07.555.212a.732.732 0 0 1 .198.52.715.715 0 0 1-.198.505c-.128.137-.313.205-.554.205-.246 0-.433-.068-.56-.205a.745.745 0 0 1-.185-.506Zm4.942 3.541V14h-1.265V6.603h1.196l.069 1.58Zm-.301 1.84L82.784 10c.004-.506.08-.973.225-1.402.146-.433.351-.809.615-1.128a2.742 2.742 0 0 1 2.167-1.004c.365 0 .693.05.985.15.291.096.54.25.745.465.21.214.37.492.478.834.11.337.165.75.165 1.237V14h-1.272V9.14c0-.388-.057-.698-.17-.93a1.05 1.05 0 0 0-.5-.513c-.219-.11-.487-.164-.806-.164-.315 0-.602.066-.862.198a2.06 2.06 0 0 0-.663.547 2.753 2.753 0 0 0-.43.8c-.1.296-.151.61-.151.943Zm11.846-3.419h1.149v7.24c0 .651-.132 1.207-.397 1.668-.264.46-.633.809-1.107 1.045-.47.242-1.012.363-1.627.363-.255 0-.556-.041-.902-.123a3.64 3.64 0 0 1-1.012-.404 2.528 2.528 0 0 1-.827-.758l.663-.752c.31.373.633.633.97.779.342.146.68.219 1.012.219.401 0 .748-.075 1.04-.226.291-.15.517-.374.676-.67.164-.291.246-.652.246-1.08V8.23l.116-1.627Zm-5.092 3.78v-.143c0-.565.066-1.078.198-1.538.137-.465.33-.864.58-1.196a2.608 2.608 0 0 1 2.14-1.04c.465 0 .871.083 1.217.247.351.16.648.394.889.704.246.305.44.674.581 1.107.141.433.24.923.294 1.47v.629a6.44 6.44 0 0 1-.294 1.463 3.452 3.452 0 0 1-.581 1.107c-.241.306-.538.54-.889.704-.35.16-.76.24-1.23.24-.442 0-.843-.094-1.203-.28a2.738 2.738 0 0 1-.916-.787 3.72 3.72 0 0 1-.588-1.19 5.405 5.405 0 0 1-.198-1.496Zm1.264-.143v.144c0 .369.037.715.11 1.039.077.323.193.608.348.854.16.246.363.44.609.581.246.137.54.205.882.205.419 0 .765-.089 1.039-.266.273-.178.49-.413.649-.704.164-.292.292-.609.383-.95V9.494a3.359 3.359 0 0 0-.233-.725 2.231 2.231 0 0 0-.396-.629 1.715 1.715 0 0 0-.595-.444 1.973 1.973 0 0 0-.834-.164 1.75 1.75 0 0 0-.895.219 1.744 1.744 0 0 0-.609.588 2.82 2.82 0 0 0-.348.861 4.72 4.72 0 0 0-.11 1.039Z"
    fill="#fff" />
  <path d="M0 3c0-1.657 1.245-3 2.78-3H38v19.998H2.78c-1.535 0-2.78-1.343-2.78-3V3Z" fill="#537AA1" />
  <path d="M17.146 19.996 0 2.997v14.236s0 2.763 2.78 2.763h14.366ZM38 20 17.927.008 38 .002V20Z" fill="#2E4761" />
  <path d="M8.512 11.253 18.062.205l4.308 4.334-9.55 11.048-4.308-4.334Z" fill="#1B2A39" />
  <path d="M12.741 15.652 22.35 4.537l4.308 4.334-9.608 11.115-4.308-4.334Z" fill="#263C52" />
  <g filter="url(#a)">
    <path
      d="M15.11 5.047V15h-2.044V5.047h2.044Zm3.063 0v1.606h-8.121V5.047h8.12Zm6.747 6.651h2.044a3.707 3.707 0 0 1-.554 1.784 3.3 3.3 0 0 1-1.36 1.217c-.579.292-1.276.438-2.092.438-.638 0-1.21-.11-1.716-.329a3.651 3.651 0 0 1-1.299-.957 4.264 4.264 0 0 1-.813-1.504c-.187-.587-.28-1.246-.28-1.975v-.69c0-.73.095-1.388.287-1.976a4.362 4.362 0 0 1 .834-1.51c.364-.416.8-.735 1.305-.958a4.154 4.154 0 0 1 1.696-.335c.83 0 1.529.15 2.098.451.575.301 1.019.716 1.333 1.244.32.53.51 1.13.575 1.805h-2.051c-.023-.4-.103-.74-.24-1.018a1.357 1.357 0 0 0-.622-.636c-.273-.146-.638-.219-1.093-.219-.342 0-.64.064-.896.191-.255.128-.47.322-.643.582-.173.26-.302.587-.39.984a6.813 6.813 0 0 0-.122 1.38v.705c0 .515.039.968.116 1.36.078.388.196.716.355.985.165.264.374.464.63.601.26.132.571.198.936.198.428 0 .782-.068 1.06-.205.277-.136.49-.34.635-.608.15-.269.24-.604.267-1.005Z"
      fill="#fff" />
  </g>
  <defs>
    <filter id="a" x="6.052" y="4.903" width="24.926" height="18.233" filterUnits="userSpaceOnUse"
      color-interpolation-filters="sRGB">
      <feFlood flood-opacity="0" result="BackgroundImageFix" />
      <feColorMatrix in="SourceAlpha" values="0 0 0 0 0 0 0 0 0 0 0 0 0 0 0 0 0 0 127 0" result="hardAlpha" />
      <feOffset dy="4" />
      <feGaussianBlur stdDeviation="2" />
      <feComposite in2="hardAlpha" operator="out" />
      <feColorMatrix values="0 0 0 0 0 0 0 0 0 0 0 0 0 0 0 0 0 0 0.25 0" />
      <feBlend in2="BackgroundImageFix" result="effect1_dropShadow_8_363" />
      <feBlend in="SourceGraphic" in2="effect1_dropShadow_8_363" result="shape" />
    </filter>
  </defs>
</svg>
