<?xml version="1.0" encoding="UTF-8" standalone="no"?>
<svg
   xmlns:dc="http://purl.org/dc/elements/1.1/"
   xmlns:cc="http://creativecommons.org/ns#"
   xmlns:rdf="http://www.w3.org/1999/02/22-rdf-syntax-ns#"
   xmlns:svg="http://www.w3.org/2000/svg"
   xmlns="http://www.w3.org/2000/svg"
   width="165"
   height="45"
   viewBox="0 0 165 45.000001"
   id="svg2"
   version="1.1">
  <defs
     id="defs4" />
  <metadata
     id="metadata7">
    <rdf:RDF>
      <cc:Work
         rdf:about="">
        <dc:format>image/svg+xml</dc:format>
        <dc:type
           rdf:resource="http://purl.org/dc/dcmitype/StillImage" />
        <dc:title></dc:title>
      </cc:Work>
    </rdf:RDF>
  </metadata>
  <rect
     ry="3.7999723"
     y="16.290051"
     x="4.8244324"
     height="24.527096"
     width="124.92443"
     id="rect4174"
     style="fill:#333333" />
  <g
     transform="matrix(0.71071336,0,0,0.68396013,-2.8686363,4.45301)"
     style="display:inline"
     id="layer1" />
  <g
     transform="matrix(0.71071336,0,0,0.68396013,-2.8686363,4.45301)"
     style="display:inline"
     id="layer2" />
  <path
     id="path4"
     d="m 121.86493,23.582072 c 0,10.046589 8.42334,18.148677 18.86829,18.148677 10.44495,0 18.86829,-8.102088 18.86829,-18.148677 0,-10.046589 -8.42334,-18.148676 -18.86829,-18.148676 -10.44495,0 -18.86829,8.102087 -18.86829,18.148676 z"
     style="fill:#ffdd67" />
  <g
     id="g6"
     style="fill:#917524"
     transform="matrix(0.67386762,0,0,0.64816703,119.16945,4.137062)">
    <path
       id="path8"
       d="m 14.2,12 c 3.4,-2 7.5,-2.3 11.3,-1 0.5,0.2 1.3,-1.7 0.7,-1.9 -4.3,-1.6 -9,-1.2 -13,1.1 -0.6,0.3 0.5,2.1 1,1.8" />
    <path
       id="path10"
       d="m 38.2,15 c 3.4,-2 7.5,-2.3 11.3,-1 0.5,0.2 1.3,-1.7 0.7,-1.9 -4.3,-1.6 -9,-1.2 -13,1.1 -0.6,0.3 0.5,2 1,1.8" />
  </g>
  <path
     id="path12"
     d="m 135.40967,26.628457 c 3.43672,-0.842617 7.21038,-0.259267 10.10801,1.685235 0.74125,0.453716 -0.60648,2.268584 -1.34773,1.75005 -1.95422,-1.231517 -4.98662,-2.138951 -8.1538,-1.361151 -0.80865,0.194451 -1.48251,-1.814867 -0.60648,-2.074134"
     style="fill:#664e27" />
  <path
     id="path14"
     d="m 148.01099,22.998722 c -2.76286,0 -5.05401,-2.203768 -5.05401,-4.861253 0,-1.101884 0.40432,-2.138951 1.0108,-2.916751 1.14558,-0.324084 2.42593,-0.453718 3.77367,-0.453718 1.61727,0 3.16717,0.259267 4.51491,0.712984 0.53909,0.7778 0.87602,1.685234 0.87602,2.722302 -0.0674,2.657484 -2.29114,4.796436 -5.12139,4.796436"
     style="fill:#ffffff" />
  <path
     id="path16"
     d="m 148.68486,14.767 c 0.26955,0.388901 0.47171,0.842617 0.47171,1.361151 0,1.361151 -1.14558,2.463035 -2.5607,2.463035 -1.41512,0 -2.49331,-1.101884 -2.49331,-2.398218 0,-0.3889 0.0674,-0.712984 0.26954,-1.037067 1.01081,-0.259267 2.15638,-0.388901 3.36935,-0.388901 0.33692,0 0.67386,0 0.94341,0"
     style="fill:#664e27" />
  <path
     id="path18"
     d="m 133.45545,22.998722 c -2.76286,0 -5.05401,-2.203768 -5.05401,-4.861253 0,-1.101884 0.40432,-2.138951 1.0108,-2.916751 1.14558,-0.324084 2.42593,-0.453718 3.77366,-0.453718 1.61729,0 3.16718,0.259267 4.51491,0.712984 0.5391,0.7778 0.87604,1.685234 0.87604,2.722302 -0.0674,2.657484 -2.35854,4.796436 -5.1214,4.796436"
     style="fill:#ffffff" />
  <path
     id="path20"
     d="m 134.12932,14.767 c 0.26954,0.388901 0.4717,0.842617 0.4717,1.361151 0,1.361151 -1.14557,2.463035 -2.56069,2.463035 -1.41512,0 -2.5607,-1.101884 -2.5607,-2.463035 0,-0.3889 0.0674,-0.712984 0.26955,-1.037067 1.0108,-0.259267 2.15637,-0.388901 3.36934,-0.388901 0.40432,0.06482 0.67386,0.06482 1.0108,0.06482"
     style="fill:#664e27" />
  <path
     id="path22"
     d="m 141.13754,32.65641 c -2.83025,0.648167 -10.04062,1.490784 -11.32097,0.194451 -0.60649,-0.58335 -0.47171,-1.425968 -0.26955,-2.916752 0.20216,-1.490784 -1.28035,-3.046385 -2.35854,-3.176018 -1.28035,-0.129634 -2.0216,0.7778 -1.54989,2.074134 0.94341,2.916751 -0.94342,3.824185 -1.07819,5.963137 -0.0674,1.231517 -0.47171,3.305651 1.4825,5.963137 2.22377,2.981568 6.06481,3.046385 7.41255,2.981568 1.5499,-0.06482 2.22376,-0.129634 2.5607,-0.777801 0.40431,-0.7778 0.20216,-0.97225 0.40431,-1.231517 0.33694,-0.583351 0.5391,-0.518534 0.74126,-1.231518 0.20216,-0.712983 -0.33693,-1.1667 -0.20216,-1.490784 0.26955,-0.7778 0.94342,-0.648167 0.26955,-2.463035 2.29115,-0.324083 3.77366,-0.648166 5.12139,-1.425967 2.49331,-1.296334 0.33693,-2.787118 -1.21296,-2.463035"
     style="fill:#ffffff" />
  <path
     id="path24"
     d="m 130.96214,44.128967 c -2.29115,-0.3889 -4.17798,-1.490785 -5.39094,-3.111202 -1.88683,-2.527851 -1.75206,-4.537169 -1.61728,-5.89832 0,-0.129633 0,-0.324083 0,-0.453716 0.0674,-0.907434 0.33693,-1.620418 0.67386,-2.333402 0.47171,-1.037067 0.87603,-1.879684 0.33694,-3.435285 -0.26955,-0.777801 -0.20217,-1.555601 0.33693,-2.074134 0.47171,-0.453718 1.14558,-0.712984 1.95421,-0.583351 0,0 0.0674,0 0.0674,0 1.41512,0.259267 3.0324,2.074135 2.83025,3.824185 -0.20217,1.425968 -0.26956,2.074135 0.13477,2.463035 0.0674,0.06482 0.26954,0.259267 1.0108,0.324084 2.5607,0.453716 7.6147,-0.259268 9.70369,-0.712984 0.33694,-0.06482 0.74126,-0.06482 1.14558,0 1.0108,0.19445 1.75205,0.7778 1.95421,1.490784 0.0674,0.453717 0.0674,1.296334 -1.34773,2.074134 -1.34774,0.712984 -2.76286,1.101885 -4.71708,1.361151 0.5391,1.296334 -0.74125,1.750051 -0.4717,2.268585 0.33693,0.712984 0.26954,1.296334 -0.47171,2.009318 -0.53909,0.453717 0.13477,1.037067 -0.40432,1.944501 -0.60648,0.97225 -1.61728,1.037067 -3.09979,1.101884 -1.0108,-0.06482 -1.81945,-0.06482 -2.62808,-0.259267 m -5.1214,-15.880092 c 0.47171,2.138951 0.60649,2.916751 -0.20216,4.666802 -1.21296,2.333402 -1.68467,8.944705 5.52571,10.176223 4.38014,0.7778 5.05401,-0.259267 4.85185,-1.361151 -0.13477,-0.712984 0.47171,-0.97225 0.67387,-1.231518 0.47171,-0.7778 -0.20216,-1.1667 -0.20216,-1.490784 0,-0.58335 0.60648,-0.58335 0.74125,-1.1667 0.20216,-1.037067 -1.14557,-1.425968 0,-1.490785 2.22377,-0.129633 3.70627,-0.518533 4.98662,-1.36115 1.21296,-0.777801 0.33694,-2.398219 -1.28035,-2.074135 -3.77365,0.777801 -9.43414,1.685235 -11.32097,0 -0.87603,-0.7778 -0.20216,-1.685234 -0.26955,-3.435285 -0.13477,-2.333402 -3.97582,-3.240835 -3.50411,-1.231517"
     style="fill:#cccfd4" />
  <g
     transform="matrix(0.71071336,0,0,0.68396013,-2.8686363,4.45301)"
     style="font-style:normal;font-variant:normal;font-weight:normal;font-stretch:normal;font-size:22.5px;line-height:125%;font-family:Montserrat;-inkscape-font-specification:Montserrat;letter-spacing:0px;word-spacing:0px;fill:#ffffff;fill-opacity:1;stroke:none;stroke-width:1px;stroke-linecap:butt;stroke-linejoin:miter;stroke-opacity:1"
     id="text3348">
    <path
       d="m 24.967999,39.121501 c -0.6975,0.3375 -1.26,0.5175 -1.8,0.5175 -0.81,0 -1.2825,-0.3825 -1.2825,-1.62 l 0,-5.7375 3.5325,0 0,-1.935 -3.5325,0 0,-3.285 -2.565,0 0,3.285 -1.6875,0 0,1.935 1.6875,0 0,6.21 c 0,2.4525 1.5525,3.4875 3.3525,3.4875 1.0125,0 2.0025,-0.315 2.9475,-0.8775 l -0.6525,-1.98 z"
       id="path3353" />
    <path
       d="m 37.708624,41.866501 -0.0225,-7.8525 c -0.0225,-2.6325 -1.755,-4.2075 -4.8375,-4.2075 -2.2725,0 -3.4875,0.5175 -5.1525,1.5075 l 1.0575,1.8 c 1.1925,-0.81 2.385,-1.215 3.5325,-1.215 1.89,0 2.8575,0.9 2.8575,2.4075 l 0,0.36 -3.6225,0 c -2.88,0.0225 -4.5225,1.4175 -4.5225,3.6 0,2.115 1.62,3.7125 4.2075,3.7125 1.7325,0 3.105,-0.5175 3.96,-1.575 l 0,1.4625 2.5425,0 z m -5.9625,-1.935 c -1.44,0 -2.3175,-0.6975 -2.3175,-1.7775 0,-1.1475 0.7875,-1.5975 2.475,-1.5975 l 3.24,0 0,1.1025 c -0.135,1.305 -1.5525,2.2725 -3.3975,2.2725 z"
       id="path3355" />
    <path
       d="m 47.989718,32.911501 0.945,-1.9125 c -1.08,-0.765 -2.6775,-1.215 -4.185,-1.215 -2.295,0 -4.41,1.035 -4.41,3.465 -0.0225,4.32 6.2775,2.9475 6.2775,5.4 0,0.9 -0.855,1.2825 -1.9575,1.2825 -1.305,0 -2.97,-0.5625 -4.005,-1.485 l -0.9225,1.845 c 1.1925,1.08 3.06,1.665 4.815,1.665 2.4075,0 4.59,-1.1025 4.59,-3.555 0.0225,-4.3425 -6.345,-3.15 -6.345,-5.355 0,-0.855 0.7425,-1.1925 1.755,-1.1925 1.0575,0 2.385,0.405 3.4425,1.0575 z"
       id="path3357" />
    <path
       d="m 59.998038,41.866501 3.06,0 -4.77,-7.335 4.4325,-4.635 -2.97,0 -5.2875,5.355 0,-10.08 -2.5875,0 0,16.695 2.5875,0 0,-3.3525 2.025,-2.1375 3.51,5.49 z"
       id="path3359" />
    <path
       d="m 65.706359,32.416501 c -0.81,0 -1.4175,0.6075 -1.4175,1.4625 0,0.8775 0.6075,1.5075 1.4175,1.5075 0.81,0 1.4175,-0.63 1.4175,-1.5075 0,-0.855 -0.6075,-1.4625 -1.4175,-1.4625 z m 0,6.6825 c -0.81,0 -1.4175,0.6075 -1.4175,1.4625 0,0.8775 0.6075,1.5075 1.4175,1.5075 0.81,0 1.4175,-0.63 1.4175,-1.5075 0,-0.855 -0.6075,-1.4625 -1.4175,-1.4625 z"
       id="path3361" />
    <path
       d="m 83.784757,29.806501 c -1.8675,0 -3.3075,0.765 -4.185,2.16 l 0,-2.07 -2.5875,0 0,16.335 2.5875,0 0,-6.435 c 0.8775,1.395 2.3175,2.16 4.23,2.16 3.42,0 5.67,-2.4525 5.67,-6.03 0,-3.645 -2.3175,-6.12 -5.715,-6.12 z m -0.54,9.945 c -2.1375,0 -3.645,-1.5975 -3.645,-3.915 0,-2.25 1.5075,-3.87 3.645,-3.87 2.1375,0 3.645,1.6425 3.645,3.87 0,2.295 -1.5075,3.915 -3.645,3.915 z"
       id="path3363" />
    <path
       d="m 97.120226,29.806501 c -3.555,0.0225 -6.0525,2.475 -6.0525,6.0975 0,3.6 2.43,6.0525 6.12,6.0525 2.07,0 3.780004,-0.7425 4.950004,-2.025 l -1.3725,-1.4625 c -0.877504,0.9 -2.070004,1.395 -3.375004,1.395 -1.89,0 -3.3075,-1.1475 -3.7125,-2.9925 l 9.045004,0 c 0.315,-4.32 -1.395,-7.065 -5.602504,-7.065 z m -3.4875,5.175 c 0.27,-1.9125 1.62,-3.105 3.51,-3.105 1.9575,0 3.240004,1.17 3.330004,3.105 l -6.840004,0 z"
       id="path3365" />
    <path
       d="m 112.41776,29.806501 c -2.025,0 -3.555,0.72 -4.41,2.385 l 0,-2.295 -2.5875,0 0,11.97 2.5875,0 0,-6.3675 c 0.18,-1.8675 1.4175,-3.24 3.3975,-3.2625 1.8,0 2.88,1.1025 2.88,2.9025 l 0,6.7275 2.5875,0 0,-7.4475 c 0,-2.8575 -1.665,-4.6125 -4.455,-4.6125 z"
       id="path3367" />
    <path
       d="m 129.18167,25.171501 0,6.795 c -0.8775,-1.395 -2.3175,-2.1825 -4.2525,-2.1825 -3.375,0 -5.6925,2.4525 -5.6925,6.0525 0,3.645 2.295,6.1425 5.7375,6.1425 1.9125,0 3.3525,-0.765 4.2075,-2.16 l 0,2.0475 2.5875,0 0,-16.695 -2.5875,0 z m -3.6675,14.6475 c -2.1825,0 -3.6675,-1.62 -3.69,-3.8925 0.0225,-2.295 1.53,-3.9375 3.69,-3.9375 2.16,0 3.6675,1.62 3.6675,3.9375 0,2.2725 -1.5075,3.8925 -3.6675,3.8925 z"
       id="path3369" />
    <path
       d="m 136.98109,24.924001 c -0.855,0 -1.5075,0.6525 -1.5075,1.5525 0,0.8775 0.6525,1.53 1.5075,1.53 0.855,0 1.5075,-0.6525 1.5075,-1.53 0,-0.9 -0.6525,-1.5525 -1.5075,-1.5525 z m -1.2825,4.9725 0,11.97 2.565,0 0,-11.97 -2.565,0 z"
       id="path3371" />
    <path
       d="m 149.06816,29.806501 c -2.025,0 -3.555,0.72 -4.41,2.385 l 0,-2.295 -2.5875,0 0,11.97 2.5875,0 0,-6.3675 c 0.18,-1.8675 1.4175,-3.24 3.3975,-3.2625 1.8,0 2.88,1.1025 2.88,2.9025 l 0,6.7275 2.5875,0 0,-7.4475 c 0,-2.8575 -1.665,-4.6125 -4.455,-4.6125 z"
       id="path3373" />
    <path
       d="m 165.24706,29.896501 0,1.935 c -0.8325,-1.305 -2.205,-2.0475 -4.05,-2.025 -3.1725,0.0225 -5.31,2.3175 -5.31,5.6925 0,3.4425 2.16,5.7825 5.4,5.7825 1.8,0 3.15,-0.72 3.96,-2.025 l 0,1.5075 c 0,2.07 -1.485,3.3975 -3.7575,3.3975 -1.4625,0 -2.6325,-0.4725 -3.7575,-1.305 l -1.1025,1.8675 c 1.4625,0.99 3.105,1.575 4.9725,1.575 3.7575,0 6.21,-2.16 6.21,-5.6025 l 0,-10.8 -2.565,0 z m -3.4425,9.36 c -2.07,0 -3.465,-1.53 -3.4875,-3.69 0.0225,-2.1375 1.44,-3.6675 3.4875,-3.6675 2.025,0 3.4425,1.5075 3.4425,3.6675 0,2.16 -1.4175,3.69 -3.4425,3.69 z"
       id="path3375" />
  </g>
</svg>
