<?xml version="1.0" encoding="UTF-8" standalone="no"?>
<svg
   xmlns:dc="http://purl.org/dc/elements/1.1/"
   xmlns:cc="http://creativecommons.org/ns#"
   xmlns:rdf="http://www.w3.org/1999/02/22-rdf-syntax-ns#"
   xmlns:svg="http://www.w3.org/2000/svg"
   xmlns="http://www.w3.org/2000/svg"
   version="1.1"
   id="svg2"
   viewBox="0 0 118 27.000001"
   height="27"
   width="118">
  <defs
     id="defs4" />
  <metadata
     id="metadata7">
    <rdf:RDF>
      <cc:Work
         rdf:about="">
        <dc:format>image/svg+xml</dc:format>
        <dc:type
           rdf:resource="http://purl.org/dc/dcmitype/StillImage" />
        <dc:title></dc:title>
      </cc:Work>
    </rdf:RDF>
  </metadata>
  <rect
     style="fill:#333333"
     id="rect4174"
     width="101.424"
     height="20"
     x="0"
     y="7"
     ry="3.0985913" />
  <g
     id="layer1"
     style="display:inline"
     transform="matrix(0.71071336,0,0,0.68396013,-2.8686363,-13.54699)" />
  <g
     id="layer2"
     style="display:inline"
     transform="matrix(0.71071336,0,0,0.68396013,-2.8686363,-13.54699)" />
  <path
     style="fill:#ffdd67"
     d="m 92.36493,12.765973 c 0,6.873128 5.63316,12.415974 12.61829,12.415974 6.98513,0 12.61829,-5.542846 12.61829,-12.415974 C 117.60151,5.892845 111.96835,0.35 104.98322,0.35 97.99809,0.35 92.36493,5.892845 92.36493,12.765973 Z"
     id="path4" />
  <g
     transform="matrix(0.4506533,0,0,0.44342763,90.562308,-0.536855)"
     style="fill:#917524"
     id="g6">
    <path
       d="m 14.2,12 c 3.4,-2 7.5,-2.3 11.3,-1 0.5,0.2 1.3,-1.7 0.7,-1.9 -4.3,-1.6 -9,-1.2 -13,1.1 -0.6,0.3 0.5,2.1 1,1.8"
       id="path8" />
    <path
       d="m 38.2,15 c 3.4,-2 7.5,-2.3 11.3,-1 0.5,0.2 1.3,-1.7 0.7,-1.9 -4.3,-1.6 -9,-1.2 -13,1.1 -0.6,0.3 0.5,2 1,1.8"
       id="path10" />
  </g>
  <path
     style="fill:#664e27"
     d="m 101.42306,14.850083 c 2.29833,-0.576456 4.82199,-0.177371 6.7598,1.152912 0.49571,0.310399 -0.40559,1.551996 -0.9013,1.197254 -1.3069,-0.842512 -3.33484,-1.463311 -5.45291,-0.931198 -0.54079,0.133029 -0.99144,-1.241597 -0.40559,-1.418968"
     id="path12" />
  <path
     style="fill:#ffffff"
     d="m 109.85028,12.366888 c -1.84769,0 -3.37991,-1.507654 -3.37991,-3.325707 0,-0.753827 0.27039,-1.463311 0.67598,-1.995424 0.76612,-0.221714 1.62236,-0.3104 2.52367,-0.3104 1.08156,0 2.11806,0.177371 3.01938,0.487771 0.36051,0.532112 0.58584,1.152911 0.58584,1.862396 -0.045,1.818053 -1.53221,3.281364 -3.42496,3.281364"
     id="path14" />
  <path
     style="fill:#664e27"
     d="m 110.30093,6.735357 c 0.18027,0.266057 0.31546,0.576456 0.31546,0.931198 0,0.931198 -0.76611,1.685025 -1.71248,1.685025 -0.94637,0 -1.66742,-0.753827 -1.66742,-1.640682 0,-0.266056 0.045,-0.48777 0.18025,-0.709484 0.67599,-0.177371 1.4421,-0.266057 2.25328,-0.266057 0.22531,0 0.45065,0 0.63091,0"
     id="path16" />
  <path
     style="fill:#ffffff"
     d="m 100.11616,12.366888 c -1.84768,0 -3.3799,-1.507654 -3.3799,-3.325707 0,-0.753827 0.27039,-1.463311 0.67598,-1.995424 0.76612,-0.221714 1.62236,-0.3104 2.52366,-0.3104 1.08158,0 2.11807,0.177371 3.01937,0.487771 0.36053,0.532112 0.58587,1.152911 0.58587,1.862396 -0.0451,1.818053 -1.57729,3.281364 -3.42498,3.281364"
     id="path18" />
  <path
     style="fill:#664e27"
     d="m 100.56682,6.735357 c 0.18025,0.266057 0.31545,0.576456 0.31545,0.931198 0,0.931198 -0.76611,1.685025 -1.71248,1.685025 -0.94637,0 -1.71248,-0.753827 -1.71248,-1.685025 0,-0.266056 0.0451,-0.48777 0.18026,-0.709484 0.67598,-0.177371 1.44209,-0.266057 2.25327,-0.266057 0.27039,0.04434 0.45065,0.04434 0.67598,0.04434"
     id="path20" />
  <path
     style="fill:#ffffff"
     d="m 105.25361,18.973959 c -1.89275,0.443428 -6.71473,1.019884 -7.57097,0.133029 -0.4056,-0.399084 -0.31546,-0.975541 -0.18026,-1.995424 0.13519,-1.019884 -0.85625,-2.08411 -1.57729,-2.172795 -0.85625,-0.08869 -1.35196,0.532113 -1.0365,1.418968 0.63091,1.995424 -0.63092,2.616222 -0.721047,4.079534 -0.04503,0.842512 -0.31546,2.26148 0.991427,4.079535 1.48716,2.039766 4.05588,2.084109 4.95719,2.039766 1.03651,-0.04434 1.48716,-0.08869 1.71249,-0.532113 0.27038,-0.532113 0.1352,-0.665141 0.27038,-0.842512 0.22533,-0.399086 0.36053,-0.354743 0.49573,-0.842513 0.13519,-0.48777 -0.22533,-0.79817 -0.1352,-1.019884 0.18026,-0.532113 0.63092,-0.443427 0.18026,-1.685025 1.53223,-0.221713 2.52366,-0.443427 3.42497,-0.97554 1.66741,-0.886856 0.22532,-1.906739 -0.81118,-1.685026"
     id="path22" />
  <path
     style="fill:#cccfd4"
     d="m 98.44875,26.822629 c -1.53222,-0.266057 -2.79405,-1.019884 -3.605228,-2.128453 -1.26183,-1.729367 -1.171703,-3.103993 -1.081566,-4.035191 0,-0.08869 0,-0.221714 0,-0.310399 0.04503,-0.620799 0.225323,-1.108569 0.450646,-1.59634 0.31546,-0.709484 0.585851,-1.28594 0.225332,-2.350166 -0.180264,-0.532114 -0.135205,-1.064227 0.225323,-1.418968 0.31546,-0.3104 0.766113,-0.487771 1.306893,-0.399086 0,0 0.045,0 0.045,0 0.94637,0.177372 2.02793,1.418969 1.89275,2.616223 -0.13521,0.975541 -0.18028,1.418969 0.0902,1.685025 0.045,0.04434 0.18026,0.177371 0.67598,0.221714 1.71249,0.310399 5.09238,-0.177372 6.48941,-0.48777 0.22533,-0.04434 0.49572,-0.04434 0.76611,0 0.67598,0.133028 1.17169,0.532113 1.30689,1.019883 0.045,0.3104 0.045,0.886855 -0.9013,1.418968 -0.90131,0.487771 -1.84768,0.753828 -3.15458,0.931198 0.36053,0.886856 -0.49572,1.197255 -0.31545,1.551997 0.22532,0.487771 0.18025,0.886856 -0.31546,1.374626 -0.36052,0.3104 0.0902,0.709484 -0.27039,1.330283 C 101.87372,26.911314 101.19774,26.955657 100.2063,27 99.53032,26.95566 98.98953,26.95566 98.44876,26.822629 M 95.02379,15.958652 c 0.31546,1.463311 0.40559,1.995424 -0.135199,3.192679 -0.811174,1.59634 -1.126634,6.119301 3.695349,6.961814 2.92925,0.532113 3.37991,-0.177371 3.24471,-0.931198 -0.0902,-0.487771 0.31546,-0.665141 0.45066,-0.842513 0.31546,-0.532113 -0.1352,-0.79817 -0.1352,-1.019884 0,-0.399084 0.40559,-0.399084 0.49572,-0.798169 0.13519,-0.709484 -0.76611,-0.975541 0,-1.019884 1.48716,-0.08868 2.47859,-0.354742 3.33483,-0.931198 0.81117,-0.532113 0.22533,-1.640683 -0.85624,-1.418968 -2.52365,0.532113 -6.30914,1.152912 -7.57097,0 -0.58585,-0.532113 -0.1352,-1.152912 -0.18027,-2.350167 -0.0901,-1.59634 -2.658853,-2.217138 -2.34339,-0.842512"
     id="path24" />
  <g
     id="text3348"
     style="font-style:normal;font-variant:normal;font-weight:normal;font-stretch:normal;font-size:22.5px;line-height:125%;font-family:Montserrat;-inkscape-font-specification:Montserrat;letter-spacing:0px;word-spacing:0px;fill:#ffffff;fill-opacity:1;stroke:none;stroke-width:1px;stroke-linecap:butt;stroke-linejoin:miter;stroke-opacity:1"
     transform="matrix(0.5209399,0,0,0.49122807,-4.3467934,-0.440834)">
    <path
       id="path3353"
       d="m 24.967999,39.121501 c -0.6975,0.3375 -1.26,0.5175 -1.8,0.5175 -0.81,0 -1.2825,-0.3825 -1.2825,-1.62 l 0,-5.7375 3.5325,0 0,-1.935 -3.5325,0 0,-3.285 -2.565,0 0,3.285 -1.6875,0 0,1.935 1.6875,0 0,6.21 c 0,2.4525 1.5525,3.4875 3.3525,3.4875 1.0125,0 2.0025,-0.315 2.9475,-0.8775 l -0.6525,-1.98 z" />
    <path
       id="path3355"
       d="m 37.708624,41.866501 -0.0225,-7.8525 c -0.0225,-2.6325 -1.755,-4.2075 -4.8375,-4.2075 -2.2725,0 -3.4875,0.5175 -5.1525,1.5075 l 1.0575,1.8 c 1.1925,-0.81 2.385,-1.215 3.5325,-1.215 1.89,0 2.8575,0.9 2.8575,2.4075 l 0,0.36 -3.6225,0 c -2.88,0.0225 -4.5225,1.4175 -4.5225,3.6 0,2.115 1.62,3.7125 4.2075,3.7125 1.7325,0 3.105,-0.5175 3.96,-1.575 l 0,1.4625 2.5425,0 z m -5.9625,-1.935 c -1.44,0 -2.3175,-0.6975 -2.3175,-1.7775 0,-1.1475 0.7875,-1.5975 2.475,-1.5975 l 3.24,0 0,1.1025 c -0.135,1.305 -1.5525,2.2725 -3.3975,2.2725 z" />
    <path
       id="path3357"
       d="m 47.989718,32.911501 0.945,-1.9125 c -1.08,-0.765 -2.6775,-1.215 -4.185,-1.215 -2.295,0 -4.41,1.035 -4.41,3.465 -0.0225,4.32 6.2775,2.9475 6.2775,5.4 0,0.9 -0.855,1.2825 -1.9575,1.2825 -1.305,0 -2.97,-0.5625 -4.005,-1.485 l -0.9225,1.845 c 1.1925,1.08 3.06,1.665 4.815,1.665 2.4075,0 4.59,-1.1025 4.59,-3.555 0.0225,-4.3425 -6.345,-3.15 -6.345,-5.355 0,-0.855 0.7425,-1.1925 1.755,-1.1925 1.0575,0 2.385,0.405 3.4425,1.0575 z" />
    <path
       id="path3359"
       d="m 59.998038,41.866501 3.06,0 -4.77,-7.335 4.4325,-4.635 -2.97,0 -5.2875,5.355 0,-10.08 -2.5875,0 0,16.695 2.5875,0 0,-3.3525 2.025,-2.1375 3.51,5.49 z" />
    <path
       id="path3361"
       d="m 65.706359,32.416501 c -0.81,0 -1.4175,0.6075 -1.4175,1.4625 0,0.8775 0.6075,1.5075 1.4175,1.5075 0.81,0 1.4175,-0.63 1.4175,-1.5075 0,-0.855 -0.6075,-1.4625 -1.4175,-1.4625 z m 0,6.6825 c -0.81,0 -1.4175,0.6075 -1.4175,1.4625 0,0.8775 0.6075,1.5075 1.4175,1.5075 0.81,0 1.4175,-0.63 1.4175,-1.5075 0,-0.855 -0.6075,-1.4625 -1.4175,-1.4625 z" />
    <path
       id="path3363"
       d="m 83.784757,29.806501 c -1.8675,0 -3.3075,0.765 -4.185,2.16 l 0,-2.07 -2.5875,0 0,16.335 2.5875,0 0,-6.435 c 0.8775,1.395 2.3175,2.16 4.23,2.16 3.42,0 5.67,-2.4525 5.67,-6.03 0,-3.645 -2.3175,-6.12 -5.715,-6.12 z m -0.54,9.945 c -2.1375,0 -3.645,-1.5975 -3.645,-3.915 0,-2.25 1.5075,-3.87 3.645,-3.87 2.1375,0 3.645,1.6425 3.645,3.87 0,2.295 -1.5075,3.915 -3.645,3.915 z" />
    <path
       id="path3365"
       d="m 97.120226,29.806501 c -3.555,0.0225 -6.0525,2.475 -6.0525,6.0975 0,3.6 2.43,6.0525 6.12,6.0525 2.07,0 3.780004,-0.7425 4.950004,-2.025 l -1.3725,-1.4625 c -0.877504,0.9 -2.070004,1.395 -3.375004,1.395 -1.89,0 -3.3075,-1.1475 -3.7125,-2.9925 l 9.045004,0 c 0.315,-4.32 -1.395,-7.065 -5.602504,-7.065 z m -3.4875,5.175 c 0.27,-1.9125 1.62,-3.105 3.51,-3.105 1.9575,0 3.240004,1.17 3.330004,3.105 l -6.840004,0 z" />
    <path
       id="path3367"
       d="m 112.41776,29.806501 c -2.025,0 -3.555,0.72 -4.41,2.385 l 0,-2.295 -2.5875,0 0,11.97 2.5875,0 0,-6.3675 c 0.18,-1.8675 1.4175,-3.24 3.3975,-3.2625 1.8,0 2.88,1.1025 2.88,2.9025 l 0,6.7275 2.5875,0 0,-7.4475 c 0,-2.8575 -1.665,-4.6125 -4.455,-4.6125 z" />
    <path
       id="path3369"
       d="m 129.18167,25.171501 0,6.795 c -0.8775,-1.395 -2.3175,-2.1825 -4.2525,-2.1825 -3.375,0 -5.6925,2.4525 -5.6925,6.0525 0,3.645 2.295,6.1425 5.7375,6.1425 1.9125,0 3.3525,-0.765 4.2075,-2.16 l 0,2.0475 2.5875,0 0,-16.695 -2.5875,0 z m -3.6675,14.6475 c -2.1825,0 -3.6675,-1.62 -3.69,-3.8925 0.0225,-2.295 1.53,-3.9375 3.69,-3.9375 2.16,0 3.6675,1.62 3.6675,3.9375 0,2.2725 -1.5075,3.8925 -3.6675,3.8925 z" />
    <path
       id="path3371"
       d="m 136.98109,24.924001 c -0.855,0 -1.5075,0.6525 -1.5075,1.5525 0,0.8775 0.6525,1.53 1.5075,1.53 0.855,0 1.5075,-0.6525 1.5075,-1.53 0,-0.9 -0.6525,-1.5525 -1.5075,-1.5525 z m -1.2825,4.9725 0,11.97 2.565,0 0,-11.97 -2.565,0 z" />
    <path
       id="path3373"
       d="m 149.06816,29.806501 c -2.025,0 -3.555,0.72 -4.41,2.385 l 0,-2.295 -2.5875,0 0,11.97 2.5875,0 0,-6.3675 c 0.18,-1.8675 1.4175,-3.24 3.3975,-3.2625 1.8,0 2.88,1.1025 2.88,2.9025 l 0,6.7275 2.5875,0 0,-7.4475 c 0,-2.8575 -1.665,-4.6125 -4.455,-4.6125 z" />
    <path
       id="path3375"
       d="m 165.24706,29.896501 0,1.935 c -0.8325,-1.305 -2.205,-2.0475 -4.05,-2.025 -3.1725,0.0225 -5.31,2.3175 -5.31,5.6925 0,3.4425 2.16,5.7825 5.4,5.7825 1.8,0 3.15,-0.72 3.96,-2.025 l 0,1.5075 c 0,2.07 -1.485,3.3975 -3.7575,3.3975 -1.4625,0 -2.6325,-0.4725 -3.7575,-1.305 l -1.1025,1.8675 c 1.4625,0.99 3.105,1.575 4.9725,1.575 3.7575,0 6.21,-2.16 6.21,-5.6025 l 0,-10.8 -2.565,0 z m -3.4425,9.36 c -2.07,0 -3.465,-1.53 -3.4875,-3.69 0.0225,-2.1375 1.44,-3.6675 3.4875,-3.6675 2.025,0 3.4425,1.5075 3.4425,3.6675 0,2.16 -1.4175,3.69 -3.4425,3.69 z" />
  </g>
</svg>
