<svg width="104" height="20" fill="none" xmlns="http://www.w3.org/2000/svg">
  <path
    d="M101.201 0H2.799C1.253 0 0 1.387 0 3.099V16.9C0 18.613 1.253 20 2.799 20H101.2c1.546 0 2.799-1.387 2.799-3.099V3.1C104 1.387 102.747 0 101.201 0Z"
    fill="#567B7A" />
  <path
    d="M50.27 12.038c0-.182-.04-.35-.123-.506-.077-.16-.239-.303-.485-.43-.241-.133-.606-.247-1.094-.342a8.664 8.664 0 0 1-1.114-.308 3.377 3.377 0 0 1-.84-.43 1.807 1.807 0 0 1-.527-.595 1.659 1.659 0 0 1-.185-.8c0-.292.064-.567.192-.827.132-.26.316-.49.553-.69.242-.201.531-.358.869-.472a3.51 3.51 0 0 1 1.128-.171c.592 0 1.098.105 1.517.314.42.21.74.49.964.841.223.346.335.732.335 1.155h-1.265c0-.205-.061-.403-.184-.594a1.361 1.361 0 0 0-.527-.486c-.227-.127-.508-.191-.84-.191-.351 0-.636.055-.855.164-.214.105-.371.24-.472.403a1.015 1.015 0 0 0-.075.889c.05.105.137.203.26.294.123.086.296.168.52.246.223.077.508.155.854.232.606.137 1.105.301 1.497.493.392.191.684.426.875.704.192.278.287.615.287 1.011a1.971 1.971 0 0 1-.786 1.586c-.25.192-.551.342-.902.451a4.032 4.032 0 0 1-1.17.158c-.651 0-1.202-.117-1.654-.349-.45-.232-.793-.533-1.025-.902a2.159 2.159 0 0 1-.349-1.17h1.272c.018.347.118.623.3.828.183.2.406.344.67.43.265.083.527.124.787.124.346 0 .636-.046.868-.137.237-.091.417-.216.54-.376a.871.871 0 0 0 .184-.547ZM54.748 3.5V14h-1.272V3.5h1.272Zm4.518 3.104-3.226 3.452-1.805 1.873-.102-1.347 1.291-1.545 2.297-2.433h1.545ZM58.111 14l-2.639-3.527.657-1.128L59.6 14h-1.49Zm4.115-7.396V14h-1.271V6.604h1.271Zm-1.367-1.962c0-.205.061-.379.184-.52.128-.141.315-.212.56-.212.242 0 .427.07.555.212a.732.732 0 0 1 .198.52.715.715 0 0 1-.198.505c-.128.137-.313.206-.554.206-.246 0-.433-.069-.56-.206a.745.745 0 0 1-.185-.505ZM65.8 8.025v8.819h-1.272V6.604h1.163l.109 1.421Zm4.983 2.215v.144c0 .537-.064 1.037-.191 1.497a3.68 3.68 0 0 1-.56 1.19c-.242.337-.54.599-.896.785a2.59 2.59 0 0 1-1.224.28c-.47 0-.884-.077-1.244-.232a2.454 2.454 0 0 1-.916-.677 3.456 3.456 0 0 1-.602-1.066 6.174 6.174 0 0 1-.3-1.401v-.766a6.432 6.432 0 0 1 .307-1.47c.15-.433.349-.802.595-1.107.25-.31.554-.545.91-.704a2.907 2.907 0 0 1 1.23-.246c.465 0 .877.09 1.237.273.36.178.663.433.91.766.245.333.43.731.553 1.196.127.46.191.973.191 1.538Zm-1.271.144v-.144c0-.369-.039-.715-.116-1.039a2.623 2.623 0 0 0-.363-.861 1.725 1.725 0 0 0-.615-.588 1.75 1.75 0 0 0-.895-.219c-.32 0-.597.055-.834.164-.233.11-.431.258-.595.445a2.357 2.357 0 0 0-.403.629c-.1.232-.176.473-.226.724v1.77c.091.32.219.62.383.903.164.278.383.504.656.677.273.168.618.253 1.032.253.342 0 .636-.071.882-.212.25-.146.456-.344.615-.595.164-.25.285-.538.363-.861a4.54 4.54 0 0 0 .116-1.046Zm4.43-2.359v8.819H72.67V6.604h1.162l.11 1.421Zm4.983 2.215v.144c0 .537-.064 1.037-.192 1.497a3.68 3.68 0 0 1-.56 1.19c-.242.337-.54.599-.896.785a2.59 2.59 0 0 1-1.223.28c-.47 0-.885-.077-1.245-.232a2.454 2.454 0 0 1-.916-.677 3.456 3.456 0 0 1-.601-1.066 6.169 6.169 0 0 1-.3-1.401v-.766a6.432 6.432 0 0 1 .307-1.47c.15-.433.348-.802.594-1.107.251-.31.554-.545.91-.704a2.907 2.907 0 0 1 1.23-.246c.465 0 .877.09 1.237.273.36.178.663.433.91.766.246.333.43.731.553 1.196.128.46.192.973.192 1.538Zm-1.272.144v-.144c0-.369-.039-.715-.116-1.039a2.627 2.627 0 0 0-.362-.861 1.726 1.726 0 0 0-.616-.588 1.75 1.75 0 0 0-.895-.219c-.32 0-.597.055-.834.164-.233.11-.43.258-.595.445a2.357 2.357 0 0 0-.403.629c-.1.232-.176.473-.226.724v1.77c.091.32.22.62.383.903.164.278.383.504.656.677.274.168.618.253 1.033.253.341 0 .635-.071.881-.212.251-.146.456-.344.616-.595.164-.25.284-.538.362-.861.077-.328.116-.677.116-1.046Zm6.234 3.753a3.64 3.64 0 0 1-1.401-.26 3.179 3.179 0 0 1-1.073-.745 3.313 3.313 0 0 1-.684-1.135 4.162 4.162 0 0 1-.24-1.435v-.288c0-.601.09-1.137.267-1.606.178-.474.42-.875.725-1.203a3.104 3.104 0 0 1 1.04-.745 2.985 2.985 0 0 1 1.202-.253c.529 0 .985.09 1.367.273.388.183.705.438.95.766.247.323.429.706.547 1.148.119.438.178.916.178 1.436v.567h-5.523V9.625h4.259v-.096a3.156 3.156 0 0 0-.206-.957 1.72 1.72 0 0 0-.546-.765c-.251-.2-.593-.301-1.026-.301a1.721 1.721 0 0 0-1.415.718 2.684 2.684 0 0 0-.403.868 4.4 4.4 0 0 0-.144 1.182v.288c0 .35.048.68.144.99.1.306.244.575.43.807.192.233.422.415.691.547.273.132.583.198.93.198.446 0 .825-.09 1.134-.273a2.81 2.81 0 0 0 .814-.731l.766.608c-.16.242-.363.472-.609.69-.246.22-.549.397-.91.534-.355.136-.776.205-1.264.205Zm9.297-1.572V3.5h1.271V14h-1.162l-.11-1.435Zm-4.977-2.181v-.144c0-.565.069-1.078.205-1.538.142-.465.34-.863.595-1.196a2.69 2.69 0 0 1 .923-.766c.36-.182.761-.273 1.203-.273.465 0 .87.082 1.217.246.35.16.647.394.889.704.246.305.44.674.58 1.107.142.433.24.923.295 1.47v.629a6.44 6.44 0 0 1-.294 1.463 3.452 3.452 0 0 1-.581 1.107c-.242.306-.538.54-.89.705-.35.159-.76.239-1.23.239-.433 0-.829-.094-1.189-.28a2.806 2.806 0 0 1-.923-.787 3.831 3.831 0 0 1-.595-1.19 5.238 5.238 0 0 1-.205-1.496Zm1.272-.144v.144c0 .369.036.715.11 1.039.077.323.195.608.355.854.16.246.362.44.608.581.246.137.54.205.882.205.42 0 .763-.088 1.032-.266a1.99 1.99 0 0 0 .656-.704c.164-.292.292-.609.383-.95V9.495a3.652 3.652 0 0 0-.24-.724 2.23 2.23 0 0 0-.396-.63 1.714 1.714 0 0 0-.594-.444 1.926 1.926 0 0 0-.827-.164 1.75 1.75 0 0 0-.896.219 1.746 1.746 0 0 0-.608.588 2.72 2.72 0 0 0-.356.861 4.72 4.72 0 0 0-.11 1.04Z"
    fill="#fff" />
  <path d="M0 3c0-1.657 1.245-3 2.78-3H38v19.998H2.78c-1.535 0-2.78-1.343-2.78-3V3Z" fill="#537AA1" />
  <path d="M17.146 19.996 0 2.997v14.236s0 2.763 2.78 2.763h14.366ZM38 20 17.927.008 38 .002V20Z" fill="#2E4761" />
  <path d="M8.512 11.253 18.062.205l4.308 4.334-9.55 11.048-4.308-4.334Z" fill="#1B2A39" />
  <path d="M12.741 15.652 22.35 4.537l4.308 4.334-9.608 11.115-4.308-4.334Z" fill="#263C52" />
  <g filter="url(#a)">
    <path
      d="M15.11 5.047V15h-2.044V5.047h2.044Zm3.063 0v1.606h-8.121V5.047h8.12Zm6.747 6.651h2.044a3.707 3.707 0 0 1-.554 1.784 3.3 3.3 0 0 1-1.36 1.217c-.579.292-1.276.438-2.092.438-.638 0-1.21-.11-1.716-.329a3.651 3.651 0 0 1-1.299-.957 4.264 4.264 0 0 1-.813-1.504c-.187-.587-.28-1.246-.28-1.975v-.69c0-.73.095-1.388.287-1.976a4.362 4.362 0 0 1 .834-1.51c.364-.416.8-.735 1.305-.958a4.154 4.154 0 0 1 1.696-.335c.83 0 1.529.15 2.098.451.575.301 1.019.716 1.333 1.244.32.53.51 1.13.575 1.805h-2.051c-.023-.4-.103-.74-.24-1.018a1.357 1.357 0 0 0-.622-.636c-.273-.146-.638-.219-1.093-.219-.342 0-.64.064-.896.191-.255.128-.47.322-.643.582-.173.26-.302.587-.39.984a6.813 6.813 0 0 0-.122 1.38v.705c0 .515.039.968.116 1.36.078.388.196.716.355.985.165.264.374.464.63.601.26.132.571.198.936.198.428 0 .782-.068 1.06-.205.277-.136.49-.34.635-.608.15-.269.24-.604.267-1.005Z"
      fill="#fff" />
  </g>
  <defs>
    <filter id="a" x="6.052" y="4.903" width="24.926" height="18.233" filterUnits="userSpaceOnUse"
      color-interpolation-filters="sRGB">
      <feFlood flood-opacity="0" result="BackgroundImageFix" />
      <feColorMatrix in="SourceAlpha" values="0 0 0 0 0 0 0 0 0 0 0 0 0 0 0 0 0 0 127 0" result="hardAlpha" />
      <feOffset dy="4" />
      <feGaussianBlur stdDeviation="2" />
      <feComposite in2="hardAlpha" operator="out" />
      <feColorMatrix values="0 0 0 0 0 0 0 0 0 0 0 0 0 0 0 0 0 0 0.25 0" />
      <feBlend in2="BackgroundImageFix" result="effect1_dropShadow_9_17" />
      <feBlend in="SourceGraphic" in2="effect1_dropShadow_9_17" result="shape" />
    </filter>
  </defs>
</svg>
