<svg width="86" height="20" fill="none" xmlns="http://www.w3.org/2000/svg">
  <path
    d="M82.713 0H2.287C1.024 0 0 1.387 0 3.099V16.9C0 18.613 1.024 20 2.287 20h80.426C83.976 20 85 18.613 85 16.901V3.1C85 1.387 83.976 0 82.713 0Z"
    fill="#8E5AA6" />
  <path
    d="M51.27 12.038c0-.182-.04-.35-.123-.506-.077-.16-.239-.303-.485-.43-.241-.133-.606-.247-1.094-.342a8.664 8.664 0 0 1-1.114-.308 3.377 3.377 0 0 1-.84-.43 1.807 1.807 0 0 1-.527-.595 1.659 1.659 0 0 1-.185-.8c0-.292.064-.567.192-.827.132-.26.316-.49.553-.69.242-.201.531-.358.869-.472a3.51 3.51 0 0 1 1.128-.171c.592 0 1.098.105 1.517.314.42.21.74.49.964.841.223.346.335.732.335 1.155h-1.265c0-.205-.061-.403-.184-.594a1.361 1.361 0 0 0-.527-.486c-.227-.127-.508-.191-.84-.191-.351 0-.636.055-.855.164-.214.105-.371.24-.472.403a1.015 1.015 0 0 0-.075.889c.05.105.137.203.26.294.123.086.296.168.52.246.223.077.508.155.854.232.606.137 1.105.301 1.497.493.392.191.684.426.875.704.192.278.287.615.287 1.011a1.971 1.971 0 0 1-.786 1.586c-.25.192-.551.342-.902.451a4.032 4.032 0 0 1-1.17.158c-.651 0-1.202-.117-1.654-.349-.45-.232-.793-.533-1.025-.902a2.159 2.159 0 0 1-.349-1.17h1.272c.018.347.118.623.3.828.183.2.406.344.67.43.265.083.527.124.787.124.346 0 .636-.046.868-.137.237-.091.417-.216.54-.376a.871.871 0 0 0 .184-.547Zm6.303-5.434v.97h-4v-.97h4Zm-2.645-1.798h1.264v7.362c0 .25.039.44.116.567a.556.556 0 0 0 .301.253c.123.041.255.062.397.062.104 0 .214-.01.328-.027.118-.023.207-.042.266-.055L57.607 14c-.1.032-.232.062-.396.089-.16.032-.353.048-.581.048a1.97 1.97 0 0 1-.855-.185 1.375 1.375 0 0 1-.622-.615c-.15-.292-.225-.684-.225-1.176V4.806Zm8.77 7.93V8.927c0-.292-.06-.545-.178-.76a1.163 1.163 0 0 0-.52-.505c-.232-.118-.52-.178-.86-.178-.32 0-.6.055-.842.164-.237.11-.424.253-.56.431a.944.944 0 0 0-.199.574h-1.264c0-.264.068-.526.205-.786a2.3 2.3 0 0 1 .588-.704c.26-.214.57-.383.93-.506.364-.127.77-.191 1.216-.191.538 0 1.012.09 1.422.273.415.183.738.458.97.827.238.365.356.823.356 1.374v3.446c0 .246.02.508.062.786.045.278.111.517.198.718V14h-1.32a2.36 2.36 0 0 1-.15-.581 4.679 4.679 0 0 1-.054-.684Zm.218-3.22.014.888h-1.278c-.36 0-.681.03-.964.09-.283.054-.52.138-.711.252a1.202 1.202 0 0 0-.438.43c-.1.17-.15.368-.15.595 0 .233.052.445.157.636.105.192.262.344.472.458.214.11.476.164.786.164.387 0 .73-.082 1.026-.246.296-.164.53-.364.704-.601.177-.237.273-.468.287-.69l.54.608a1.837 1.837 0 0 1-.26.635 3.06 3.06 0 0 1-1.401 1.196 2.715 2.715 0 0 1-1.08.206c-.502 0-.941-.098-1.32-.294a2.256 2.256 0 0 1-.875-.786 2.081 2.081 0 0 1-.307-1.115c0-.396.077-.745.232-1.046.155-.305.378-.558.67-.758.292-.205.642-.36 1.053-.465.41-.105.868-.157 1.374-.157h1.47Zm4.69-6.016V14h-1.272V3.5h1.272Zm5.38 10.637a3.64 3.64 0 0 1-1.402-.26 3.179 3.179 0 0 1-1.073-.745 3.314 3.314 0 0 1-.684-1.135 4.162 4.162 0 0 1-.24-1.435v-.288c0-.601.09-1.137.267-1.606.178-.474.42-.875.725-1.203a3.104 3.104 0 0 1 1.039-.745 2.985 2.985 0 0 1 1.203-.253c.529 0 .984.09 1.367.273.388.183.704.438.95.766.247.323.429.706.547 1.148.119.438.178.916.178 1.436v.567H71.34V9.625h4.258v-.096a3.153 3.153 0 0 0-.205-.957 1.72 1.72 0 0 0-.546-.765c-.251-.2-.593-.301-1.026-.301a1.721 1.721 0 0 0-1.415.718 2.686 2.686 0 0 0-.403.868 4.4 4.4 0 0 0-.144 1.182v.288c0 .35.048.68.144.99.1.306.244.575.43.807.192.233.422.415.69.547.274.132.584.198.93.198.447 0 .826-.09 1.135-.273a2.81 2.81 0 0 0 .814-.731l.766.608c-.16.242-.363.472-.609.69-.246.22-.55.397-.91.534-.355.136-.776.205-1.264.205Z"
    fill="#fff" />
  <path d="M0 3c0-1.657 1.245-3 2.78-3H38v19.998H2.78c-1.535 0-2.78-1.343-2.78-3V3Z" fill="#537AA1" />
  <path d="M17.146 19.996 0 2.997v14.236s0 2.763 2.78 2.763h14.366ZM38 20 17.927.008 38 .002V20Z" fill="#2E4761" />
  <path d="M8.512 11.253 18.062.205l4.308 4.334-9.55 11.048-4.308-4.334Z" fill="#1B2A39" />
  <path d="M12.741 15.652 22.35 4.537l4.308 4.334-9.608 11.115-4.308-4.334Z" fill="#263C52" />
  <g filter="url(#a)">
    <path
      d="M15.11 5.047V15h-2.044V5.047h2.044Zm3.063 0v1.606h-8.121V5.047h8.12Zm6.747 6.651h2.044a3.707 3.707 0 0 1-.554 1.784 3.3 3.3 0 0 1-1.36 1.217c-.579.292-1.276.438-2.092.438-.638 0-1.21-.11-1.716-.329a3.651 3.651 0 0 1-1.299-.957 4.264 4.264 0 0 1-.813-1.504c-.187-.587-.28-1.246-.28-1.975v-.69c0-.73.095-1.388.287-1.976a4.362 4.362 0 0 1 .834-1.51c.364-.416.8-.735 1.305-.958a4.154 4.154 0 0 1 1.696-.335c.83 0 1.529.15 2.098.451.575.301 1.019.716 1.333 1.244.32.53.51 1.13.575 1.805h-2.051c-.023-.4-.103-.74-.24-1.018a1.357 1.357 0 0 0-.622-.636c-.273-.146-.638-.219-1.093-.219-.342 0-.64.064-.896.191-.255.128-.47.322-.643.582-.173.26-.302.587-.39.984a6.813 6.813 0 0 0-.122 1.38v.705c0 .515.039.968.116 1.36.078.388.196.716.355.985.165.264.374.464.63.601.26.132.571.198.936.198.428 0 .782-.068 1.06-.205.277-.136.49-.34.635-.608.15-.269.24-.604.267-1.005Z"
      fill="#fff" />
  </g>
  <defs>
    <filter id="a" x="6.052" y="4.903" width="24.926" height="18.233" filterUnits="userSpaceOnUse"
      color-interpolation-filters="sRGB">
      <feFlood flood-opacity="0" result="BackgroundImageFix" />
      <feColorMatrix in="SourceAlpha" values="0 0 0 0 0 0 0 0 0 0 0 0 0 0 0 0 0 0 127 0" result="hardAlpha" />
      <feOffset dy="4" />
      <feGaussianBlur stdDeviation="2" />
      <feComposite in2="hardAlpha" operator="out" />
      <feColorMatrix values="0 0 0 0 0 0 0 0 0 0 0 0 0 0 0 0 0 0 0.25 0" />
      <feBlend in2="BackgroundImageFix" result="effect1_dropShadow_8_369" />
      <feBlend in="SourceGraphic" in2="effect1_dropShadow_8_369" result="shape" />
    </filter>
  </defs>
</svg>
