<svg width="108" height="20" fill="none" xmlns="http://www.w3.org/2000/svg">
  <rect width="108" height="20" rx="3" fill="#418618" />
  <path
    d="M51.27 12.038c0-.182-.04-.35-.123-.506-.077-.16-.239-.303-.485-.43-.241-.133-.606-.247-1.094-.342a8.664 8.664 0 0 1-1.114-.308 3.377 3.377 0 0 1-.84-.43 1.807 1.807 0 0 1-.527-.595 1.659 1.659 0 0 1-.185-.8c0-.292.064-.567.192-.827.132-.26.316-.49.553-.69.242-.201.531-.358.869-.472a3.51 3.51 0 0 1 1.128-.171c.592 0 1.098.105 1.517.314.42.21.74.49.964.841.223.346.335.732.335 1.155h-1.265c0-.205-.061-.403-.184-.594a1.361 1.361 0 0 0-.527-.486c-.227-.127-.508-.191-.84-.191-.351 0-.636.055-.855.164-.214.105-.371.24-.472.403a1.015 1.015 0 0 0-.075.889c.05.105.137.203.26.294.123.086.296.168.52.246.223.077.508.155.854.232.606.137 1.105.301 1.497.493.392.191.684.426.875.704.192.278.287.615.287 1.011a1.971 1.971 0 0 1-.786 1.586c-.25.192-.551.342-.902.451a4.032 4.032 0 0 1-1.17.158c-.651 0-1.202-.117-1.654-.349-.45-.232-.793-.533-1.025-.902a2.159 2.159 0 0 1-.349-1.17h1.272c.018.347.118.623.3.828.183.2.406.344.67.43.265.083.527.124.787.124.346 0 .636-.046.868-.137.237-.091.417-.216.54-.376a.871.871 0 0 0 .184-.547Zm7.732.253V6.604h1.271V14h-1.21l-.061-1.709Zm.239-1.559.526-.013c0 .492-.052.948-.157 1.367-.1.415-.264.775-.492 1.08a2.328 2.328 0 0 1-.896.718c-.369.168-.818.253-1.346.253-.36 0-.69-.053-.991-.158a1.98 1.98 0 0 1-.766-.485 2.208 2.208 0 0 1-.5-.854c-.113-.351-.17-.773-.17-1.265V6.604h1.265v4.785c0 .332.036.608.109.827.077.214.18.385.308.513.132.123.278.21.437.26.164.05.333.074.506.074.538 0 .964-.102 1.278-.307.315-.21.54-.49.677-.841.141-.355.212-.75.212-1.183Zm6.2 2.366c.3 0 .579-.062.834-.185s.465-.292.629-.506c.164-.219.257-.467.28-.745h1.203c-.023.438-.17.845-.444 1.224a3.034 3.034 0 0 1-1.06.909 3.075 3.075 0 0 1-1.442.342c-.556 0-1.041-.098-1.456-.294a2.887 2.887 0 0 1-1.026-.807 3.603 3.603 0 0 1-.608-1.176 4.965 4.965 0 0 1-.198-1.415v-.287c0-.497.066-.966.198-1.408.137-.447.34-.84.608-1.183.274-.341.616-.61 1.026-.806.415-.196.9-.294 1.456-.294.579 0 1.084.118 1.517.355a2.61 2.61 0 0 1 1.019.957c.25.401.387.857.41 1.367h-1.203a1.823 1.823 0 0 0-.26-.827 1.62 1.62 0 0 0-.601-.588 1.681 1.681 0 0 0-.882-.225c-.388 0-.713.077-.978.232-.26.15-.467.356-.622.616-.15.255-.26.54-.328.854a4.7 4.7 0 0 0-.096.95v.287c0 .324.032.643.096.957.064.315.171.6.321.855.155.255.363.46.623.615.264.15.592.226.984.226Zm7.608 0c.3 0 .579-.062.834-.185a1.72 1.72 0 0 0 .629-.506c.164-.219.257-.467.28-.745h1.203c-.023.438-.17.845-.444 1.224a3.032 3.032 0 0 1-1.06.909 3.075 3.075 0 0 1-1.442.342c-.556 0-1.041-.098-1.456-.294a2.888 2.888 0 0 1-1.026-.807 3.607 3.607 0 0 1-.608-1.176 4.965 4.965 0 0 1-.198-1.415v-.287c0-.497.066-.966.198-1.408.137-.447.34-.84.608-1.183.274-.341.616-.61 1.026-.806.415-.196.9-.294 1.456-.294.579 0 1.085.118 1.518.355a2.61 2.61 0 0 1 1.018.957c.25.401.388.857.41 1.367h-1.203a1.82 1.82 0 0 0-.26-.827 1.62 1.62 0 0 0-.601-.588 1.68 1.68 0 0 0-.882-.225c-.387 0-.713.077-.978.232-.26.15-.467.356-.622.616-.15.255-.26.54-.328.854-.064.31-.096.627-.096.95v.287c0 .324.032.643.096.957.064.315.171.6.322.855.154.255.362.46.622.615.264.15.592.226.984.226Zm7.717 1.039a3.64 3.64 0 0 1-1.4-.26 3.179 3.179 0 0 1-1.074-.745 3.314 3.314 0 0 1-.684-1.135 4.162 4.162 0 0 1-.239-1.435v-.288c0-.601.089-1.137.267-1.606.177-.474.419-.875.724-1.203a3.104 3.104 0 0 1 1.04-.745 2.985 2.985 0 0 1 1.202-.253c.53 0 .985.09 1.368.273.387.183.704.438.95.766.246.323.428.706.547 1.148.118.438.177.916.177 1.436v.567h-5.523V9.625h4.259v-.096a3.156 3.156 0 0 0-.205-.957 1.72 1.72 0 0 0-.547-.765c-.25-.2-.593-.301-1.026-.301a1.721 1.721 0 0 0-1.415.718 2.684 2.684 0 0 0-.403.868 4.4 4.4 0 0 0-.144 1.182v.288c0 .35.048.68.144.99.1.306.244.575.43.807.192.233.422.415.691.547.274.132.584.198.93.198.447 0 .825-.09 1.135-.273a2.81 2.81 0 0 0 .813-.731l.766.608c-.16.242-.363.472-.609.69-.246.22-.549.397-.909.534-.355.136-.777.205-1.265.205Zm8.942-2.099c0-.182-.041-.35-.123-.506-.078-.16-.24-.303-.486-.43-.241-.133-.606-.247-1.094-.342a8.664 8.664 0 0 1-1.114-.308 3.377 3.377 0 0 1-.84-.43 1.807 1.807 0 0 1-.527-.595 1.659 1.659 0 0 1-.184-.8c0-.292.063-.567.19-.827.133-.26.318-.49.555-.69.241-.201.53-.358.868-.472a3.51 3.51 0 0 1 1.128-.171c.592 0 1.098.105 1.517.314.42.21.74.49.964.841.223.346.335.732.335 1.155h-1.265c0-.205-.061-.403-.184-.594a1.362 1.362 0 0 0-.526-.486c-.228-.127-.509-.191-.841-.191-.351 0-.636.055-.855.164-.214.105-.371.24-.472.403a1.015 1.015 0 0 0-.075.889c.05.105.137.203.26.294.123.086.296.168.52.246.223.077.508.155.854.232.606.137 1.105.301 1.497.493.392.191.684.426.875.704.192.278.287.615.287 1.011a1.971 1.971 0 0 1-.786 1.586c-.25.192-.551.342-.902.451a4.032 4.032 0 0 1-1.17.158c-.65 0-1.202-.117-1.654-.349-.45-.232-.792-.533-1.025-.902a2.158 2.158 0 0 1-.349-1.17h1.272c.018.347.118.623.3.828.183.2.406.344.67.43.265.083.527.124.787.124.346 0 .636-.046.868-.137.237-.091.417-.216.54-.376a.871.871 0 0 0 .185-.547Zm7.512 0c0-.182-.041-.35-.123-.506-.078-.16-.24-.303-.485-.43-.242-.133-.606-.247-1.094-.342a8.664 8.664 0 0 1-1.114-.308 3.377 3.377 0 0 1-.841-.43 1.807 1.807 0 0 1-.527-.595 1.659 1.659 0 0 1-.184-.8c0-.292.064-.567.191-.827.132-.26.317-.49.554-.69.242-.201.53-.358.868-.472.337-.114.713-.171 1.128-.171.593 0 1.098.105 1.518.314.419.21.74.49.963.841.224.346.335.732.335 1.155h-1.264c0-.205-.062-.403-.185-.594a1.362 1.362 0 0 0-.526-.486c-.228-.127-.508-.191-.84-.191-.352 0-.637.055-.855.164-.215.105-.372.24-.472.403a1.015 1.015 0 0 0-.075.889c.05.105.136.203.26.294.123.086.296.168.519.246.223.077.508.155.855.232.606.137 1.105.301 1.497.493.392.191.683.426.875.704.191.278.287.615.287 1.011a1.97 1.97 0 0 1-.786 1.586 2.89 2.89 0 0 1-.903.451 4.031 4.031 0 0 1-1.169.158c-.651 0-1.203-.117-1.654-.349-.451-.232-.793-.533-1.025-.902a2.159 2.159 0 0 1-.35-1.17h1.272c.019.347.119.623.301.828.182.2.406.344.67.43.265.083.527.124.786.124.347 0 .636-.046.868-.137a1.21 1.21 0 0 0 .54-.376.871.871 0 0 0 .185-.547Z"
    fill="#fff" />
  <path d="M0 3c0-1.657 1.245-3 2.78-3H38v19.998H2.78c-1.535 0-2.78-1.343-2.78-3V3Z" fill="#537AA1" />
  <path d="M17.146 19.996 0 2.997v14.236s0 2.763 2.78 2.763h14.366ZM38 20 17.927.008 38 .002V20Z" fill="#2E4761" />
  <path d="M8.512 11.253 18.062.205l4.308 4.334-9.55 11.048-4.308-4.334Z" fill="#1B2A39" />
  <path d="M12.741 15.652 22.35 4.537l4.308 4.334-9.608 11.115-4.308-4.334Z" fill="#263C52" />
  <g filter="url(#a)">
    <path
      d="M15.11 5.047V15h-2.044V5.047h2.044Zm3.063 0v1.606h-8.121V5.047h8.12Zm6.747 6.651h2.044a3.707 3.707 0 0 1-.554 1.784 3.3 3.3 0 0 1-1.36 1.217c-.579.292-1.276.438-2.092.438-.638 0-1.21-.11-1.716-.329a3.651 3.651 0 0 1-1.299-.957 4.263 4.263 0 0 1-.813-1.504c-.187-.587-.28-1.246-.28-1.975v-.69c0-.73.095-1.388.287-1.976a4.362 4.362 0 0 1 .834-1.51c.364-.416.8-.735 1.305-.958a4.154 4.154 0 0 1 1.696-.335c.83 0 1.529.15 2.098.451.575.301 1.019.716 1.333 1.244.32.53.51 1.13.575 1.805h-2.051c-.023-.4-.103-.74-.24-1.018a1.357 1.357 0 0 0-.622-.636c-.273-.146-.638-.219-1.093-.219-.342 0-.64.064-.896.191-.255.128-.47.322-.643.582-.173.26-.302.587-.39.984a6.813 6.813 0 0 0-.122 1.38v.705c0 .515.039.968.116 1.36.078.388.196.716.355.985.165.264.374.464.63.601.26.132.571.198.936.198.428 0 .782-.068 1.06-.205.277-.136.49-.34.635-.608.15-.269.24-.604.267-1.005Z"
      fill="#fff" />
  </g>
  <defs>
    <filter id="a" x="6.052" y="4.903" width="24.926" height="18.233" filterUnits="userSpaceOnUse"
      color-interpolation-filters="sRGB">
      <feFlood flood-opacity="0" result="BackgroundImageFix" />
      <feColorMatrix in="SourceAlpha" values="0 0 0 0 0 0 0 0 0 0 0 0 0 0 0 0 0 0 127 0" result="hardAlpha" />
      <feOffset dy="4" />
      <feGaussianBlur stdDeviation="2" />
      <feComposite in2="hardAlpha" operator="out" />
      <feColorMatrix values="0 0 0 0 0 0 0 0 0 0 0 0 0 0 0 0 0 0 0.25 0" />
      <feBlend in2="BackgroundImageFix" result="effect1_dropShadow_8_361" />
      <feBlend in="SourceGraphic" in2="effect1_dropShadow_8_361" result="shape" />
    </filter>
  </defs>
</svg>
