<?xml version="1.0" encoding="UTF-8" standalone="no"?>
<svg
   xmlns:dc="http://purl.org/dc/elements/1.1/"
   xmlns:cc="http://creativecommons.org/ns#"
   xmlns:rdf="http://www.w3.org/1999/02/22-rdf-syntax-ns#"
   xmlns:svg="http://www.w3.org/2000/svg"
   xmlns="http://www.w3.org/2000/svg"
   version="1.1"
   id="svg2"
   viewBox="0 0 185 45.000001"
   height="45"
   width="185">
  <defs
     id="defs4" />
  <metadata
     id="metadata7">
    <rdf:RDF>
      <cc:Work
         rdf:about="">
        <dc:format>image/svg+xml</dc:format>
        <dc:type
           rdf:resource="http://purl.org/dc/dcmitype/StillImage" />
        <dc:title></dc:title>
      </cc:Work>
    </rdf:RDF>
  </metadata>
  <rect
     style="fill:#333333"
     id="rect4174"
     width="136.3179"
     height="26.127754"
     x="4.8244324"
     y="15.130806"
     ry="4.0479622" />
  <g
     transform="matrix(0.44159455,0,0,0.40485836,124.92293,-4.758586)"
     id="g3660">
    <path
       style="fill:#d65a8c"
       d="m 107.83,75.05 c 0,10.46 -19.58,18.93 -43.74,18.93 -24.15,0 -43.74,-8.47 -43.74,-18.93 0,-10.46 19.58,-18.94 43.74,-18.94 24.16,0.01 43.74,8.49 43.74,18.94 z"
       id="path3662" />
    <rect
       style="fill:#2f2f2f"
       x="36.689999"
       y="92.370003"
       width="58.740002"
       height="19.200001"
       id="rect3664" />
    <path
       style="fill:#f79329"
       d="m 125.09,94.34 -9.95,-1.8 c 0.43,-1.68 0.74,-3.4 0.94,-5.14 l 9.15,-1.36 c 1.17,-0.17 1.97,-1.26 1.8,-2.43 -0.17,-1.16 -1.27,-1.96 -2.42,-1.79 l -8.23,1.22 c 0.03,-1.71 0,-3.41 -0.12,-5.13 -0.25,-3.72 -1.08,-7.47 -2.41,-11.11 2.94,-8.31 12.13,-36.37 5.13,-43.87 C 113.64,17.21 94.92,29.46 88.74,33.99 86.52,35.62 84.6,37 82.95,38.18 76.79,36.32 70.11,35.35 63.49,35.36 56.76,35.35 49.97,36.36 43.72,38.28 41.8,37.16 39.5,35.79 36.78,34.13 30.24,30.16 10.53,19.56 5.71,25.72 c -5.72,7.31 3.2,30.22 7.65,40.47 -1.46,3.83 -2.37,7.79 -2.63,11.71 -0.11,1.66 -0.15,3.32 -0.12,4.97 L 3.41,81.8 c -1.15,-0.17 -2.25,0.63 -2.43,1.79 -0.17,1.17 0.63,2.25 1.8,2.43 l 8.1,1.21 c 0.21,1.85 0.53,3.68 1,5.47 L 2.9,94.32 c -1.16,0.21 -1.93,1.32 -1.72,2.48 0.19,1.03 1.08,1.75 2.1,1.75 0.12,0 0.25,-0.01 0.38,-0.03 l 9.58,-1.72 c 0.78,1.9 1.76,3.73 2.96,5.48 l -9.57,3.04 c -1.12,0.36 -1.75,1.56 -1.39,2.68 0.29,0.91 1.13,1.49 2.03,1.49 0.21,0 0.43,-0.03 0.65,-0.1 l 11.15,-3.54 c 1.23,1.3 2.6,2.55 4.16,3.72 6.05,4.51 13.57,7.57 21.33,9.23 2.95,0.63 10.56,2.1 18.55,2.1 7.99,0 16.35,-1.47 19.3,-2.1 7.75,-1.66 15.28,-4.71 21.33,-9.23 1.67,-1.24 3.11,-2.58 4.4,-3.98 0.02,0.01 0.04,0.03 0.06,0.03 l 11.87,3.77 c 0.21,0.07 0.43,0.1 0.65,0.1 0.9,0 1.75,-0.58 2.03,-1.49 0.35,-1.12 -0.27,-2.32 -1.39,-2.68 l -10.41,-3.31 c 1.15,-1.72 2.09,-3.53 2.84,-5.39 l 10.53,1.9 c 0.13,0.03 0.25,0.03 0.38,0.03 1.01,0 1.91,-0.72 2.1,-1.75 0.22,-1.14 -0.55,-2.25 -1.71,-2.46 z M 27.39,75.17 c -0.75,-3.78 1.71,-7.45 5.5,-8.2 3.73,-0.74 7.34,1.65 8.17,5.34 -0.64,-3.73 1.79,-7.3 5.52,-8.05 3.78,-0.75 7.47,1.72 8.21,5.5 1.8,9.06 -10.38,19.48 -10.38,19.48 0,0 -15.23,-5 -17.02,-14.07 z m 58.86,23.64 c -0.72,3.06 -4.09,9.02 -11.75,9.69 -0.63,0.05 -1.23,0.08 -1.81,0.08 -4.44,0 -7.39,-1.51 -9.2,-2.88 -1.81,1.37 -4.77,2.88 -9.2,2.88 -0.58,0 -1.18,-0.03 -1.81,-0.08 -7.65,-0.67 -11.03,-6.63 -11.75,-9.69 -0.34,-1.43 0.55,-2.87 1.99,-3.21 1.43,-0.34 2.85,0.55 3.2,1.97 0.14,0.54 1.47,5.12 7.03,5.61 5.95,0.53 8.26,-2.54 8.36,-2.67 0.06,-0.09 0.16,-0.13 0.23,-0.21 0.15,-0.16 0.27,-0.34 0.46,-0.47 1.22,-0.82 2.88,-0.5 3.7,0.72 0.07,0.09 2.38,3.16 8.33,2.63 5.57,-0.49 6.89,-5.09 7.03,-5.62 0.36,-1.42 1.8,-2.29 3.22,-1.94 1.42,0.35 2.3,1.77 1.97,3.19 z M 99.61,75.17 c -1.79,9.06 -17.02,14.07 -17.02,14.07 0,0 -12.18,-10.42 -10.38,-19.48 0.75,-3.78 4.43,-6.25 8.21,-5.5 3.73,0.75 6.16,4.32 5.52,8.05 0.83,-3.69 4.44,-6.08 8.17,-5.34 3.79,0.76 6.24,4.43 5.5,8.2 z"
       id="path3666" />
  </g>
  <g
     transform="matrix(0.77553243,0,0,0.72859597,-3.570266,2.521268)"
     style="font-style:normal;font-variant:normal;font-weight:normal;font-stretch:normal;font-size:22.5px;line-height:125%;font-family:Montserrat;-inkscape-font-specification:Montserrat;letter-spacing:0px;word-spacing:0px;fill:#ffffff;fill-opacity:1;stroke:none;stroke-width:1px;stroke-linecap:butt;stroke-linejoin:miter;stroke-opacity:1"
     id="text3339">
    <path
       d="m 24.967986,39.351771 c -0.6975,0.3375 -1.26,0.5175 -1.8,0.5175 -0.81,0 -1.2825,-0.3825 -1.2825,-1.62 l 0,-5.7375 3.5325,0 0,-1.935 -3.5325,0 0,-3.285 -2.565,0 0,3.285 -1.6875,0 0,1.935 1.6875,0 0,6.21 c 0,2.4525 1.5525,3.4875 3.3525,3.4875 1.0125,0 2.0025,-0.315 2.9475,-0.8775 l -0.6525,-1.98 z"
       id="path3369" />
    <path
       d="m 37.708611,42.096771 -0.0225,-7.8525 c -0.0225,-2.6325 -1.755,-4.2075 -4.8375,-4.2075 -2.2725,0 -3.4875,0.5175 -5.1525,1.5075 l 1.0575,1.8 c 1.1925,-0.81 2.385,-1.215 3.5325,-1.215 1.89,0 2.8575,0.9 2.8575,2.4075 l 0,0.36 -3.6225,0 c -2.88,0.0225 -4.5225,1.4175 -4.5225,3.6 0,2.115 1.62,3.7125 4.2075,3.7125 1.7325,0 3.105,-0.5175 3.96,-1.575 l 0,1.4625 2.5425,0 z m -5.9625,-1.935 c -1.44,0 -2.3175,-0.6975 -2.3175,-1.7775 0,-1.1475 0.7875,-1.5975 2.475,-1.5975 l 3.24,0 0,1.1025 c -0.135,1.305 -1.5525,2.2725 -3.3975,2.2725 z"
       id="path3371" />
    <path
       d="m 47.989705,33.141771 0.945,-1.9125 c -1.08,-0.765 -2.6775,-1.215 -4.185,-1.215 -2.295,0 -4.41,1.035 -4.41,3.465 -0.0225,4.32 6.2775,2.9475 6.2775,5.4 0,0.9 -0.855,1.2825 -1.9575,1.2825 -1.305,0 -2.97,-0.5625 -4.005,-1.485 l -0.9225,1.845 c 1.1925,1.08 3.06,1.665 4.815,1.665 2.4075,0 4.59,-1.1025 4.59,-3.555 0.0225,-4.3425 -6.345,-3.15 -6.345,-5.355 0,-0.855 0.7425,-1.1925 1.755,-1.1925 1.0575,0 2.385,0.405 3.4425,1.0575 z"
       id="path3373" />
    <path
       d="m 59.998025,42.096771 3.06,0 -4.77,-7.335 4.4325,-4.635 -2.97,0 -5.2875,5.355 0,-10.08 -2.5875,0 0,16.695 2.5875,0 0,-3.3525 2.025,-2.1375 3.51,5.49 z"
       id="path3375" />
    <path
       d="m 65.706345,32.646771 c -0.81,0 -1.4175,0.6075 -1.4175,1.4625 0,0.8775 0.6075,1.5075 1.4175,1.5075 0.81,0 1.4175,-0.63 1.4175,-1.5075 0,-0.855 -0.6075,-1.4625 -1.4175,-1.4625 z m 0,6.6825 c -0.81,0 -1.4175,0.6075 -1.4175,1.4625 0,0.8775 0.6075,1.5075 1.4175,1.5075 0.81,0 1.4175,-0.63 1.4175,-1.5075 0,-0.855 -0.6075,-1.4625 -1.4175,-1.4625 z"
       id="path3377" />
    <path
       d="m 83.717244,33.141771 0.945,-1.9125 c -1.08,-0.765 -2.6775,-1.215 -4.185,-1.215 -2.295,0 -4.41,1.035 -4.41,3.465 -0.0225,4.32 6.2775,2.9475 6.2775,5.4 0,0.9 -0.855,1.2825 -1.9575,1.2825 -1.305,0 -2.97,-0.5625 -4.005,-1.485 l -0.9225,1.845 c 1.1925,1.08 3.06,1.665 4.815,1.665 2.4075,0 4.59,-1.1025 4.59,-3.555 0.0225,-4.3425 -6.345,-3.15 -6.345,-5.355 0,-0.855 0.7425,-1.1925 1.755,-1.1925 1.0575,0 2.385,0.405 3.4425,1.0575 z"
       id="path3379" />
    <path
       d="m 95.770564,30.126771 0,5.895 c 0,2.0925 -1.215,3.69 -3.285,3.735 -1.7325,0 -2.79,-1.1025 -2.79,-2.9025 l 0,-6.7275 -2.5875,0 0,7.4475 c 0,2.8575 1.6425,4.6125 4.3875,4.6125 1.9575,-0.0225 3.465,-0.765 4.275,-2.43 l 0,2.34 2.5875,0 0,-11.97 -2.5875,0 z"
       id="path3381" />
    <path
       d="m 110.64974,33.659271 1.4175,-1.665 c -1.1025,-1.26 -2.79,-1.9575 -4.95,-1.9575 -3.555,0 -6.03,2.475 -6.03,6.0975 0,3.6 2.475,6.0525 6.03,6.0525 2.2725,0 4.005,-0.81 5.085,-2.2275 l -1.44,-1.44 c -0.81,0.945 -2.025,1.44 -3.5325,1.44 -2.07,0 -3.555,-1.5525 -3.555,-3.825 0,-2.2725 1.485,-3.825 3.555,-3.825 1.44,-0.0225 2.5875,0.495 3.42,1.35 z"
       id="path3383" />
    <path
       d="m 122.86654,33.659271 1.4175,-1.665 c -1.1025,-1.26 -2.79,-1.9575 -4.95,-1.9575 -3.555,0 -6.03,2.475 -6.03,6.0975 0,3.6 2.475,6.0525 6.03,6.0525 2.2725,0 4.005,-0.81 5.085,-2.2275 l -1.44,-1.44 c -0.81,0.945 -2.025,1.44 -3.5325,1.44 -2.07,0 -3.555,-1.5525 -3.555,-3.825 0,-2.2725 1.485,-3.825 3.555,-3.825 1.44,-0.0225 2.5875,0.495 3.42,1.35 z"
       id="path3385" />
    <path
       d="m 131.57334,30.036771 c -3.555,0.0225 -6.0525,2.475 -6.0525,6.0975 0,3.6 2.43,6.0525 6.12,6.0525 2.07,0 3.78,-0.7425 4.95,-2.025 l -1.3725,-1.4625 c -0.8775,0.9 -2.07,1.395 -3.375,1.395 -1.89,0 -3.3075,-1.1475 -3.7125,-2.9925 l 9.045,0 c 0.315,-4.32 -1.395,-7.065 -5.6025,-7.065 z m -3.4875,5.175 c 0.27,-1.9125 1.62,-3.105 3.51,-3.105 1.9575,0 3.24,1.17 3.33,3.105 l -6.84,0 z"
       id="path3387" />
    <path
       d="m 146.69088,33.141771 0.945,-1.9125 c -1.08,-0.765 -2.6775,-1.215 -4.185,-1.215 -2.295,0 -4.41,1.035 -4.41,3.465 -0.0225,4.32 6.2775,2.9475 6.2775,5.4 0,0.9 -0.855,1.2825 -1.9575,1.2825 -1.305,0 -2.97,-0.5625 -4.005,-1.485 l -0.9225,1.845 c 1.1925,1.08 3.06,1.665 4.815,1.665 2.4075,0 4.59,-1.1025 4.59,-3.555 0.0225,-4.3425 -6.345,-3.15 -6.345,-5.355 0,-0.855 0.7425,-1.1925 1.755,-1.1925 1.0575,0 2.385,0.405 3.4425,1.0575 z"
       id="path3389" />
    <path
       d="m 157.2817,33.141771 0.945,-1.9125 c -1.08,-0.765 -2.6775,-1.215 -4.185,-1.215 -2.295,0 -4.41,1.035 -4.41,3.465 -0.0225,4.32 6.2775,2.9475 6.2775,5.4 0,0.9 -0.855,1.2825 -1.9575,1.2825 -1.305,0 -2.97,-0.5625 -4.005,-1.485 l -0.9225,1.845 c 1.1925,1.08 3.06,1.665 4.815,1.665 2.4075,0 4.59,-1.1025 4.59,-3.555 0.0225,-4.3425 -6.345,-3.15 -6.345,-5.355 0,-0.855 0.7425,-1.1925 1.755,-1.1925 1.0575,0 2.385,0.405 3.4425,1.0575 z"
       id="path3391" />
  </g>
</svg>
