<svg width="116" height="20" fill="none" xmlns="http://www.w3.org/2000/svg">
  <path
    d="M112.878 0H3.122C1.398 0 0 1.387 0 3.099V16.9C0 18.613 1.398 20 3.122 20h109.756c1.724 0 3.122-1.387 3.122-3.099V3.1C116 1.387 114.602 0 112.878 0Z"
    fill="#5778A9" />
  <path
    d="M50.06 6.604v.97h-3.998v-.97h3.998Zm-2.645-1.798h1.265v7.362c0 .25.038.44.116.567a.555.555 0 0 0 .3.253c.124.041.256.062.397.062.105 0 .214-.01.328-.027.119-.023.208-.042.267-.055L50.095 14c-.1.032-.233.062-.397.089-.16.032-.353.048-.58.048a1.97 1.97 0 0 1-.855-.185 1.374 1.374 0 0 1-.622-.615c-.15-.292-.226-.684-.226-1.176V4.806Zm5.783 1.798V14h-1.272V6.604h1.272Zm-1.367-1.962c0-.205.061-.379.184-.52.128-.141.315-.212.56-.212.242 0 .427.07.555.212a.732.732 0 0 1 .198.52.715.715 0 0 1-.198.505c-.128.137-.313.206-.554.206-.246 0-.433-.069-.56-.206a.744.744 0 0 1-.185-.505Zm4.935 3.431V14h-1.271V6.604h1.203l.068 1.47Zm-.26 1.948-.588-.02c.005-.506.071-.973.199-1.401.127-.433.316-.81.567-1.128.25-.32.563-.565.937-.739.373-.177.806-.266 1.298-.266.347 0 .666.05.957.15.292.096.545.249.76.458.213.21.38.479.498.807.119.328.178.724.178 1.19V14h-1.265V9.133c0-.388-.066-.697-.198-.93a1.133 1.133 0 0 0-.547-.506 1.973 1.973 0 0 0-.834-.164c-.374 0-.686.066-.936.198-.251.133-.451.315-.602.547-.15.233-.26.5-.328.8-.064.296-.096.61-.096.944Zm4.792-.697-.847.26c.004-.406.07-.795.198-1.169.132-.374.321-.706.567-.998.25-.292.559-.522.923-.69.365-.174.782-.26 1.251-.26.397 0 .748.052 1.053.157.31.105.57.267.78.485.213.215.375.49.484.828.11.337.165.738.165 1.203V14H64.6V9.126c0-.415-.066-.736-.198-.964a1.033 1.033 0 0 0-.547-.485 2.186 2.186 0 0 0-.834-.144c-.278 0-.524.048-.738.144a1.527 1.527 0 0 0-.54.396 1.73 1.73 0 0 0-.335.568c-.073.214-.11.442-.11.683Zm9.837 4.813a3.64 3.64 0 0 1-1.401-.26 3.178 3.178 0 0 1-1.074-.745 3.314 3.314 0 0 1-.683-1.135 4.162 4.162 0 0 1-.24-1.435v-.288c0-.601.09-1.137.267-1.606.178-.474.42-.875.725-1.203a3.104 3.104 0 0 1 1.039-.745 2.985 2.985 0 0 1 1.203-.253c.528 0 .984.09 1.367.273.387.183.704.438.95.766.246.323.429.706.547 1.148.119.438.178.916.178 1.436v.567h-5.524V9.625h4.26v-.096a3.153 3.153 0 0 0-.206-.957 1.72 1.72 0 0 0-.547-.765c-.25-.2-.592-.301-1.025-.301a1.721 1.721 0 0 0-1.415.718 2.684 2.684 0 0 0-.403.868 4.4 4.4 0 0 0-.144 1.182v.288c0 .35.048.68.144.99.1.306.243.575.43.807.192.233.422.415.69.547.274.132.584.198.93.198.447 0 .825-.09 1.135-.273a2.81 2.81 0 0 0 .814-.731l.765.608a3.54 3.54 0 0 1-.608.69c-.246.22-.55.397-.91.534-.355.136-.776.205-1.264.205Zm9.296-1.572V3.5h1.272V14h-1.162l-.11-1.435Zm-4.976-2.181v-.144c0-.565.068-1.078.205-1.538.141-.465.34-.863.595-1.196a2.69 2.69 0 0 1 .923-.766c.36-.182.76-.273 1.203-.273.465 0 .87.082 1.216.246.352.16.648.394.89.704.245.305.439.674.58 1.107.142.433.24.923.294 1.47v.629a6.44 6.44 0 0 1-.294 1.463 3.452 3.452 0 0 1-.58 1.107c-.242.306-.538.54-.89.705-.35.159-.76.239-1.23.239-.433 0-.83-.094-1.19-.28a2.805 2.805 0 0 1-.922-.787 3.832 3.832 0 0 1-.595-1.19 5.238 5.238 0 0 1-.205-1.496Zm1.271-.144v.144c0 .369.037.715.11 1.039.077.323.196.608.355.854.16.246.363.44.609.581.246.137.54.205.882.205.419 0 .763-.088 1.032-.266a1.99 1.99 0 0 0 .656-.704c.164-.292.292-.609.383-.95V9.495a3.652 3.652 0 0 0-.24-.724 2.234 2.234 0 0 0-.396-.63 1.714 1.714 0 0 0-.595-.444 1.926 1.926 0 0 0-.827-.164 1.75 1.75 0 0 0-.895.219 1.744 1.744 0 0 0-.609.588 2.72 2.72 0 0 0-.355.861 4.72 4.72 0 0 0-.11 1.04Zm10.644.144v-.157c0-.534.077-1.028.232-1.484.155-.46.378-.859.67-1.196a2.99 2.99 0 0 1 1.06-.793c.414-.191.879-.287 1.394-.287.52 0 .987.096 1.401.287.42.187.775.451 1.067.793.296.337.522.736.676 1.196.155.456.233.95.233 1.484v.157c0 .533-.078 1.027-.233 1.483a3.55 3.55 0 0 1-.676 1.196 3.101 3.101 0 0 1-1.06.793c-.41.187-.875.28-1.394.28-.52 0-.987-.093-1.402-.28a3.171 3.171 0 0 1-1.066-.793 3.612 3.612 0 0 1-.67-1.196 4.579 4.579 0 0 1-.233-1.483Zm1.264-.157v.157c0 .369.043.718.13 1.046.087.323.217.61.39.861.177.25.398.449.663.595.264.141.572.212.923.212.346 0 .649-.071.909-.212.264-.146.483-.344.656-.595a2.75 2.75 0 0 0 .39-.861 3.89 3.89 0 0 0 .136-1.046v-.157c0-.365-.045-.71-.136-1.033a2.657 2.657 0 0 0-.397-.868 1.885 1.885 0 0 0-.656-.601 1.84 1.84 0 0 0-.916-.22c-.347 0-.652.074-.916.22-.26.145-.479.346-.656.601-.173.25-.303.54-.39.868-.087.324-.13.668-.13 1.033Zm11.86 2.064V6.604h1.272V14h-1.21l-.062-1.709Zm.239-1.559.527-.013c0 .492-.053.948-.157 1.367a2.946 2.946 0 0 1-.493 1.08 2.32 2.32 0 0 1-.895.718c-.37.168-.818.253-1.347.253-.36 0-.69-.053-.991-.158a1.98 1.98 0 0 1-.766-.485 2.208 2.208 0 0 1-.499-.854c-.114-.351-.17-.773-.17-1.265V6.604h1.264v4.785c0 .332.037.608.11.827.077.214.18.385.307.513.132.123.278.21.438.26.164.05.332.074.505.074.538 0 .964-.102 1.279-.307.314-.21.54-.49.677-.841a3.18 3.18 0 0 0 .211-1.183Zm6.337-4.128v.97h-3.999v-.97h3.999Zm-2.645-1.798h1.264v7.362c0 .25.039.44.116.567a.558.558 0 0 0 .301.253c.123.041.255.062.397.062.105 0 .214-.01.328-.027.118-.023.207-.042.266-.055l.007 1.032c-.1.032-.232.062-.396.089-.16.032-.353.048-.581.048-.31 0-.595-.062-.855-.185a1.373 1.373 0 0 1-.622-.615c-.15-.292-.225-.684-.225-1.176V4.806Z"
    fill="#fff" />
  <path d="M0 3c0-1.657 1.245-3 2.78-3H38v19.998H2.78c-1.535 0-2.78-1.343-2.78-3V3Z" fill="#537AA1" />
  <path d="M17.146 19.996 0 2.997v14.236s0 2.763 2.78 2.763h14.366ZM38 20 17.927.008 38 .002V20Z" fill="#2E4761" />
  <path d="M8.512 11.253 18.062.205l4.308 4.334-9.55 11.048-4.308-4.334Z" fill="#1B2A39" />
  <path d="M12.741 15.652 22.35 4.537l4.308 4.334-9.608 11.115-4.308-4.334Z" fill="#263C52" />
  <g filter="url(#a)">
    <path
      d="M15.11 5.047V15h-2.044V5.047h2.044Zm3.063 0v1.606h-8.121V5.047h8.12Zm6.747 6.651h2.044a3.707 3.707 0 0 1-.554 1.784 3.3 3.3 0 0 1-1.36 1.217c-.579.292-1.276.438-2.092.438-.638 0-1.21-.11-1.716-.329a3.651 3.651 0 0 1-1.299-.957 4.263 4.263 0 0 1-.813-1.504c-.187-.587-.28-1.246-.28-1.975v-.69c0-.73.095-1.388.287-1.976a4.362 4.362 0 0 1 .834-1.51c.364-.416.8-.735 1.305-.958a4.154 4.154 0 0 1 1.696-.335c.83 0 1.529.15 2.098.451.575.301 1.019.716 1.333 1.244.32.53.51 1.13.575 1.805h-2.051c-.023-.4-.103-.74-.24-1.018a1.357 1.357 0 0 0-.622-.636c-.273-.146-.638-.219-1.093-.219-.342 0-.64.064-.896.191-.255.128-.47.322-.643.582-.173.26-.302.587-.39.984a6.813 6.813 0 0 0-.122 1.38v.705c0 .515.039.968.116 1.36.078.388.196.716.355.985.165.264.374.464.63.601.26.132.571.198.936.198.428 0 .782-.068 1.06-.205.277-.136.49-.34.635-.608.15-.269.24-.604.267-1.005Z"
      fill="#fff" />
  </g>
  <defs>
    <filter id="a" x="6.052" y="4.903" width="24.926" height="18.233" filterUnits="userSpaceOnUse"
      color-interpolation-filters="sRGB">
      <feFlood flood-opacity="0" result="BackgroundImageFix" />
      <feColorMatrix in="SourceAlpha" values="0 0 0 0 0 0 0 0 0 0 0 0 0 0 0 0 0 0 127 0" result="hardAlpha" />
      <feOffset dy="4" />
      <feGaussianBlur stdDeviation="2" />
      <feComposite in2="hardAlpha" operator="out" />
      <feColorMatrix values="0 0 0 0 0 0 0 0 0 0 0 0 0 0 0 0 0 0 0.25 0" />
      <feBlend in2="BackgroundImageFix" result="effect1_dropShadow_8_370" />
      <feBlend in="SourceGraphic" in2="effect1_dropShadow_8_370" result="shape" />
    </filter>
  </defs>
</svg>
